<?xml version="1.0" encoding="utf-8"?>
<!-- Generator: Adobe Illustrator 25.3.1, SVG Export Plug-In . SVG Version: 6.00 Build 0)  -->
<svg version="1.1" xmlns="http://www.w3.org/2000/svg" xmlns:xlink="http://www.w3.org/1999/xlink" x="0px" y="0px"
	 viewBox="0 0 500 500" style="enable-background:new 0 0 500 500;" xml:space="preserve">
<style type="text/css">
	.st0{fill:url(#SVGID_1_);}
	.st1{opacity:0.2;}
	.st2{fill:#FF7C95;}
	.st3{opacity:0.65;}
	.st4{opacity:0.7;fill:url(#SVGID_2_);}
	.st5{opacity:0.7;fill:url(#SVGID_3_);}
	.st6{opacity:0.7;fill:url(#SVGID_4_);}
	.st7{opacity:0.7;fill:url(#SVGID_5_);}
	.st8{opacity:0.42;fill:#FF7C95;}
	.st9{fill:url(#SVGID_6_);}
	.st10{fill:#8439B4;}
	.st11{font-family:'Raleway-Bold';}
	.st12{font-size:19.7652px;}
	.st13{letter-spacing:3;}
	.st14{fill:url(#SVGID_7_);}
	.st15{fill:url(#SVGID_8_);}
	.st16{fill:url(#SVGID_9_);}
	.st17{fill:url(#SVGID_10_);}
	.st18{opacity:0.87;fill:#8439B4;}
	.st19{fill:#7084AC;}
	.st20{fill:#4FD69C;}
	.st21{fill:#D1D8E4;}
	.st22{fill:#371B64;}
	.st23{opacity:0.55;fill:#371B64;}
	.st24{opacity:0.86;fill:#72E8FF;}
	.st25{fill:url(#SVGID_11_);}
	.st26{opacity:0.8;}
	.st27{fill:#B7F3FF;}
</style>
<g id="BACKGROUND">
	<radialGradient id="SVGID_1_" cx="251.947" cy="253.3075" r="399.6421" gradientUnits="userSpaceOnUse">
		<stop  offset="0" style="stop-color:#FFB8C5"/>
		<stop  offset="1" style="stop-color:#FF5575"/>
	</radialGradient>
	<rect class="st0" width="500" height="500"/>
	<g class="st1">
		<polygon class="st2" points="0,0 0,151.8 191.12,199.14 248.06,0 		"/>
		<polygon class="st2" points="321.61,500 500,500 500,356.41 		"/>
	</g>
</g>
<g id="OBJECTS">
	<g class="st3">
		<linearGradient id="SVGID_2_" gradientUnits="userSpaceOnUse" x1="107.4665" y1="128.051" x2="111.3085" y2="56.7004">
			<stop  offset="2.004790e-03" style="stop-color:#FF7992;stop-opacity:0"/>
			<stop  offset="1" style="stop-color:#FFF988"/>
		</linearGradient>
		<polygon class="st4" points="141.16,70.26 110.58,28.7 80,70.26 89.51,70.26 89.51,125.73 131.65,125.73 131.65,70.26 		"/>
		<linearGradient id="SVGID_3_" gradientUnits="userSpaceOnUse" x1="417.3502" y1="216.7739" x2="421.8826" y2="132.6003">
			<stop  offset="2.004790e-03" style="stop-color:#FF7992;stop-opacity:0"/>
			<stop  offset="1" style="stop-color:#FFF988"/>
		</linearGradient>
		<polygon class="st5" points="457.1,148.6 421.02,99.57 384.94,148.6 396.17,148.6 396.17,214.03 445.88,214.03 445.88,148.6 		"/>
		<linearGradient id="SVGID_4_" gradientUnits="userSpaceOnUse" x1="15.788" y1="500.0943" x2="21.199" y2="399.6041">
			<stop  offset="2.004790e-03" style="stop-color:#FF7992;stop-opacity:0"/>
			<stop  offset="1" style="stop-color:#FFF988"/>
		</linearGradient>
		<polygon class="st6" points="0,359.08 0,497.33 30.02,497.33 30.02,418.3 43.57,418.3 		"/>
		
			<linearGradient id="SVGID_5_" gradientUnits="userSpaceOnUse" x1="460.6846" y1="361.8" x2="465.1727" y2="278.4496" gradientTransform="matrix(-1 0 0 1 947.5894 0)">
			<stop  offset="2.004790e-03" style="stop-color:#FF7992;stop-opacity:0"/>
			<stop  offset="1" style="stop-color:#FFF988"/>
		</linearGradient>
		<polygon class="st7" points="500,244.84 500,359.51 475.1,359.51 475.1,293.96 463.86,293.96 		"/>
	</g>
	<g>
		
			<rect x="63.95" y="94.73" transform="matrix(0.9926 -0.1212 0.1212 0.9926 -31.3986 26.4001)" class="st8" width="274.83" height="353.26"/>
		<g>
			<linearGradient id="SVGID_6_" gradientUnits="userSpaceOnUse" x1="54.0999" y1="388.4619" x2="364.1068" y2="133.4731">
				<stop  offset="4.009590e-03" style="stop-color:#FFF7E6"/>
				<stop  offset="1" style="stop-color:#FFFCF7"/>
			</linearGradient>
			<polygon class="st9" points="368.11,418.65 95.31,451.95 52.5,101.3 325.31,68 			"/>
			<text transform="matrix(0.9926 -0.1212 0.1212 0.9926 111.4406 147.0873)" class="st10 st11 st12 st13">credit report</text>
			<g>
				<linearGradient id="SVGID_7_" gradientUnits="userSpaceOnUse" x1="106.6067" y1="204.0743" x2="273.0491" y2="175.2378">
					<stop  offset="0" style="stop-color:#FF2D6E"/>
					<stop  offset="0.3247" style="stop-color:#FFAC32"/>
					<stop  offset="0.6689" style="stop-color:#FFF755"/>
					<stop  offset="1" style="stop-color:#1BCA7F"/>
				</linearGradient>
				<path class="st14" d="M187.83,166.2l4.01,32.81c11.08-0.3,21.58,2.97,30.27,8.86l20.92-25.57
					C227.52,170.99,208.19,164.89,187.83,166.2z"/>
				<linearGradient id="SVGID_8_" gradientUnits="userSpaceOnUse" x1="106.2677" y1="202.117" x2="272.7097" y2="173.2806">
					<stop  offset="0" style="stop-color:#FF2D6E"/>
					<stop  offset="0.3247" style="stop-color:#FFAC32"/>
					<stop  offset="0.6689" style="stop-color:#FFF755"/>
					<stop  offset="1" style="stop-color:#1BCA7F"/>
				</linearGradient>
				<path class="st15" d="M154.98,215.96c7.02-7.74,16.38-13.41,27.15-15.77l-4.01-32.81c-20.03,3.62-37.29,14.15-49.61,28.79
					L154.98,215.96z"/>
				<linearGradient id="SVGID_9_" gradientUnits="userSpaceOnUse" x1="112.9354" y1="240.6021" x2="279.3777" y2="211.7656">
					<stop  offset="0" style="stop-color:#FF2D6E"/>
					<stop  offset="0.3247" style="stop-color:#FFAC32"/>
					<stop  offset="0.6689" style="stop-color:#FFF755"/>
					<stop  offset="1" style="stop-color:#1BCA7F"/>
				</linearGradient>
				<path class="st16" d="M250.58,188.5l-20.93,25.57c7.93,7.89,13.39,18.37,14.84,30.31l32.73-4
					C274.69,219.69,264.83,201.64,250.58,188.5z"/>
				<linearGradient id="SVGID_10_" gradientUnits="userSpaceOnUse" x1="111.7928" y1="234.0075" x2="278.2353" y2="205.1709">
					<stop  offset="0" style="stop-color:#FF2D6E"/>
					<stop  offset="0.3247" style="stop-color:#FFAC32"/>
					<stop  offset="0.6689" style="stop-color:#FFF755"/>
					<stop  offset="1" style="stop-color:#1BCA7F"/>
				</linearGradient>
				<path class="st17" d="M122.67,204c-10.73,16.2-16,36.14-13.46,56.9l32.73-4c-1.46-11.99,1.34-23.53,7.19-33.12L122.67,204z"/>
			</g>
			<path class="st18" d="M184.87,244.76c-0.28,2.25,7.4,7.04,9.38,5.13c3.27-3.15,14.38-32.23,12.5-33.7
				C204.87,214.72,185.33,241.04,184.87,244.76z"/>
			<g>
				
					<rect x="150.24" y="288.42" transform="matrix(0.9926 -0.1212 0.1212 0.9926 -33.8219 26.0126)" class="st19" width="93.44" height="5.33"/>
				
					<rect x="152.38" y="307.11" transform="matrix(0.9926 -0.1212 0.1212 0.9926 -36.2118 24.0756)" class="st19" width="54.93" height="5.33"/>
				<path class="st20" d="M125.48,321.33c-0.87,0.11-1.76-0.12-2.48-0.65l-6.97-5.09c-1.56-1.14-1.9-3.32-0.76-4.87
					c1.14-1.55,3.32-1.9,4.87-0.76l3.58,2.61l7.69-16.03c0.83-1.74,2.92-2.47,4.65-1.64c1.74,0.83,2.47,2.92,1.64,4.65l-9.5,19.81
					c-0.45,0.93-1.29,1.62-2.29,1.87C125.76,321.29,125.62,321.32,125.48,321.33z"/>
			</g>
			<g>
				
					<rect x="156.25" y="337.61" transform="matrix(0.9926 -0.1212 0.1212 0.9926 -39.7378 27.1027)" class="st19" width="93.44" height="5.33"/>
				
					<rect x="158.39" y="356.29" transform="matrix(0.9926 -0.1212 0.1212 0.9926 -42.1277 25.1657)" class="st19" width="54.93" height="5.33"/>
				<path class="st20" d="M131.48,370.52c-0.87,0.11-1.76-0.12-2.48-0.65l-6.97-5.09c-1.56-1.14-1.9-3.32-0.76-4.87
					c1.14-1.55,3.32-1.9,4.87-0.76l3.58,2.61l7.69-16.03c0.83-1.74,2.92-2.47,4.65-1.64c1.74,0.83,2.47,2.92,1.64,4.65l-9.5,19.81
					c-0.45,0.93-1.29,1.62-2.29,1.87C131.77,370.48,131.62,370.5,131.48,370.52z"/>
			</g>
			
				<rect x="120.18" y="386.98" transform="matrix(0.9926 -0.1212 0.1212 0.9926 -46.0211 30.3606)" class="st21" width="212.87" height="13.17"/>
		</g>
		<g>
			<path class="st22" d="M454.91,355.54l-73.11-80.48c-8.66,7.49-17.16,15.15-25.9,22.55l73.59,81.02
				c3.92,4.31,10.59,4.63,14.9,0.72l9.8-8.9C458.51,366.52,458.83,359.85,454.91,355.54z"/>
			<path class="st23" d="M394.35,288.87l-12.55-13.81c-8.66,7.49-17.16,15.15-25.9,22.55l29.02,31.95
				C387.89,315.95,391.11,302.41,394.35,288.87z"/>
			
				<ellipse transform="matrix(0.2231 -0.9748 0.9748 0.2231 22.3378 489.986)" class="st24" cx="318.58" cy="230.98" rx="69.2" ry="69.2"/>
			<linearGradient id="SVGID_11_" gradientUnits="userSpaceOnUse" x1="391.6815" y1="256.0945" x2="253.7319" y2="208.7006">
				<stop  offset="0" style="stop-color:#371B64"/>
				<stop  offset="1" style="stop-color:#8439B4"/>
			</linearGradient>
			<path class="st25" d="M318.58,146.76c-46.51,0-84.21,37.7-84.21,84.21s37.7,84.21,84.21,84.21c46.51,0,84.21-37.7,84.21-84.21
				S365.09,146.76,318.58,146.76z M318.58,295.35c-35.55,0-64.37-28.82-64.37-64.37c0-35.55,28.82-64.37,64.37-64.37
				c35.55,0,64.37,28.82,64.37,64.37C382.94,266.53,354.13,295.35,318.58,295.35z"/>
			<g class="st26">
				<path class="st27" d="M354.62,194.39c-10.03-9.61-23.21-14.91-37.11-14.91c-7.87,0-15.45,1.67-22.54,4.95
					c-2.69,1.25-3.86,4.43-2.61,7.12c1.25,2.69,4.44,3.86,7.12,2.61c5.66-2.62,11.73-3.96,18.02-3.96
					c11.12,0,21.66,4.24,29.69,11.93c1.04,1,2.38,1.49,3.71,1.49c1.41,0,2.82-0.55,3.87-1.65
					C356.83,199.84,356.75,196.44,354.62,194.39z"/>
				<path class="st27" d="M370.29,223.57c-0.77-4.29-2.07-8.47-3.85-12.44c-1.22-2.7-4.39-3.91-7.09-2.69
					c-2.7,1.22-3.9,4.39-2.69,7.09c1.43,3.17,2.46,6.51,3.08,9.93c0.47,2.59,2.73,4.41,5.27,4.41c0.32,0,0.63-0.03,0.96-0.09
					C368.88,229.28,370.82,226.49,370.29,223.57z"/>
			</g>
		</g>
	</g>
</g>
</svg>
