<svg xmlns="http://www.w3.org/2000/svg" preserveAspectRatio="xMidYMid meet" viewBox="0 0 196.2941 139.8824"><defs><style>.a{isolation:isolate;}.b{fill:#3c2519;}.c{fill:#826baf;}.d{fill:#f1ae75;}.e,.h,.k{fill:#f5ccb9;}.e,.h{mix-blend-mode:multiply;}.f{fill:#ef80af;}.g{fill:#c9598a;}.h{opacity:0.8;}.i{fill:#3c2517;}.j{fill:#906743;}.l{fill:#7fa1cc;}.m{fill:#e6e6e5;}.n{fill:#f15e45;}.o{fill:#fff;}.p{fill:#2e1d14;}.q{fill:#be8858;}.r{fill:#ef9e26;}.s{fill:#44414e;}.t{fill:#32313b;}.u{fill:#9fd8f1;}.v{fill:#43414e;}.w{fill:#2e1d13;}.x{fill:#971b4e;}</style></defs><g class="a"><path class="b" d="M89.097,72.404q.0609-.1239.1193-.2485c.9235-1.9744.6509-3.9029,1.2355-5.9469,1.2722-4.448,3.5621-7.155,6.0259-5.931,3.5381-3.7642,8.6279-.2486,9.54.4084a6.7543,6.7543,0,0,1,2.4131,2.7,20.7527,20.7527,0,0,1,1.8581,6.3149c.4428,2.367,2.5144,4.2351,2.7388,6.6333.2356,2.5207-1.2768,3.624.2242,6.1728.5822.9886,1.5677,1.94,1.8615,3.0493.3259,1.2306-.1624,2.5494.1281,3.7889.4241,1.8094,2.4143,2.6575,2.649,4.44.2331,1.7715-1.3305,3.0853-2.7331,3.8425-2.2284,1.2029-4.9119,1.0562-7.438.8779-7.1827-.5073-14.4143.4837-21.5817-.2009-4.0511-.3869-4.2017-2.6845-4.0686-3.6.1817-1.25,1.6324-2.1689,2.2433-3.2746.8175-1.48-.0591-3.63.2474-5.2928.31-1.6828,1.7857-2.3569,2.215-4.0133.3681-1.42-.3752-2.9259-.2252-4.3855C86.7524,75.7653,88.2448,74.1375,89.097,72.404Z"/><polygon class="c" points="96.48 85.044 103.473 85.044 103.393 87.661 96.558 87.661 96.48 85.044"/><polygon class="d" points="102.906 97.436 97.044 97.436 95.579 86.048 97.044 85.527 97.044 82.081 102.906 82.081 102.906 85.511 104.372 86.113 102.906 97.436"/><polygon class="e" points="97.044 82.106 97.044 83.758 102.906 85.527 102.906 82.106 97.044 82.106"/><path class="f" d="M113.5775,102.6949c-.0811-2.9713-.1758-5.4358-.28-6.3575l-.014-.1239c-.3134-2.7669-.7032-6.2108-3.1407-8.55-2.0971-2.0122-4.5174-2.0431-6.6563-2.0657l-.61,2.2646L99.9766,94.43l-2.9019-6.5736-.3942-2.2591c-2.1388.0232-4.7751.0541-6.8723,2.0663-2.4376,2.3393-2.8275,5.7838-3.1408,8.5513l-.0138.1225c-.1045.9213-.1993,3.386-.28,6.3575Z"/><polygon class="g" points="100.276 102.695 100.276 94.183 99.977 94.43 99.677 94.183 99.677 102.695 100.276 102.695"/><polygon class="g" points="93.047 87.389 96.334 88.604 95.044 90.363 99.977 94.43 96.48 85.044 93.047 87.389"/><polygon class="g" points="106.906 87.389 103.473 85.044 99.977 94.43 104.909 90.363 103.619 88.604 106.906 87.389"/><path class="d" d="M106.6911,71.8707V68.8225c0-3.2374-3.7478-7.3274-6.7145-7.3274s-6.7146,4.09-6.7146,7.3274v3.0482A1.479,1.479,0,0,0,91.77,73.3362V74.86a1.4789,1.4789,0,0,0,1.4921,1.4655c0,3.2375,3.7479,7.4447,6.7146,7.4447s6.7145-4.2072,6.7145-7.4447a1.479,1.479,0,0,0,1.4922-1.4655V73.3362A1.479,1.479,0,0,0,106.6911,71.8707Z"/><path class="h" d="M99.9766,78.3482v5.4223c2.9667,0,6.7145-4.2072,6.7145-7.4447a1.479,1.479,0,0,0,1.4922-1.4655V73.3362a1.479,1.479,0,0,0-1.4922-1.4655V68.8225c0-3.2374-3.7478-7.3274-6.7145-7.3274v11.87a19.9276,19.9276,0,0,0-1.4921,4.69Z"/><path class="b" d="M109.3733,73.1992c-1.4454-1.676-1.0485-3.286-1.2112-3.8224-.4762-1.5705-.3679-3.0636-1.0069-4.5753-1.9745-4.6712-11.6412-6.4752-14.48,2.2463-.4463,1.371.1582,3.7961.7458,5.1128.3963-.14,2.6285-3.5477,3.6372-5.916C99.54,70.5225,106.5162,72.6991,109.3733,73.1992Z"/><path class="i" d="M107.6753,71.6654h-1.0315a5.2522,5.2522,0,0,0-2.6408-.3971c-1.6413,0-2.74.3222-3.271.9549a2.1809,2.1809,0,0,0-1.5108,0c-.5307-.6327-1.63-.9549-3.2711-.9549a5.2525,5.2525,0,0,0-2.6408.3971H92.2778v1.1138l.4462.2479A3.3207,3.3207,0,0,0,95.95,76.1926c1.588,0,3.1216-.31,3.587-2.5552a1.9891,1.9891,0,0,0,.0413-.4389.4587.4587,0,0,1,.7964,0,1.9771,1.9771,0,0,0,.0413.4389c.4654,2.2455,1.9989,2.5552,3.5869,2.5552a3.3206,3.3206,0,0,0,3.2261-3.1655l.4462-.2479ZM99.0205,73.53c-.4785,1.5366-1.13,2.1344-3.07,2.1344a2.7965,2.7965,0,0,1-2.7-2.6671c0-.8294,1.8576-.9084,2.7-.9084C97.8064,72.0893,99.2279,72.8644,99.0205,73.53Zm4.9825,2.1344c-1.94,0-2.5918-.5978-3.07-2.1344-.2074-.666,1.214-1.4411,3.07-1.4411.8426,0,2.7.079,2.7.9084A2.7965,2.7965,0,0,1,104.003,75.6648Z"/><path class="j" d="M71.505,86.3805c-.0117.0674-.0264.126-.0411.1876-.1494.639-.3165,1.2339-.4982,1.7762a8.4686,8.4686,0,0,1-1.0728,2.2891,3.142,3.142,0,0,1-.6624.6858,2.854,2.854,0,0,1-1.782.5422H56.51a2.8422,2.8422,0,0,1-1.8436-.5891,3.2153,3.2153,0,0,1-.6009-.6389,8.4687,8.4687,0,0,1-1.0727-2.2891c-.1817-.5423-.3488-1.1372-.4983-1.7762-.0146-.0616-.0293-.12-.041-.1817-1.7146-7.5473-1.2046-20.9242,2.6818-24.9543a8.9138,8.9138,0,0,1,6.8438-3.1068,8.4946,8.4946,0,0,1,5.7946,2.1191,13.4182,13.4182,0,0,1,1.0492.9877,5.7728,5.7728,0,0,1,.384.4455C72.7419,66.3679,73.161,79.0971,71.505,86.3805Z"/><path class="k" d="M67.18,85.7762l-2.2694-.1777V81.86h-5.862l0,1.1829v2.5555l-2.27.1777-1.5407,9.3863H68.7208Z"/><polygon class="e" points="59.049 82.178 59.049 83.536 64.911 85.598 64.911 82.178 59.049 82.178"/><path class="l" d="M75.579,102.6949H48.38c.0821-2.9339.1758-5.3636.2784-6.2752l.0147-.1231c.3136-2.7668.7034-6.2107,3.139-8.55a7.8092,7.8092,0,0,1,4.7834-1.9637c.1436-.0147.2843-.0264.425-.0382-.0586,1.231-.0147,6.4218,4.924,6.4218,4.9475,0,4.9826-5.2112,4.9211-6.4276.1378.0117.2784.0234.4191.0352a7.8525,7.8525,0,0,1,4.8625,1.9725c2.4386,2.3389,2.8284,5.7828,3.142,8.55l.0117.1231C75.406,97.3313,75.5,99.761,75.579,102.6949Z"/><path class="k" d="M68.73,71.757V68.7088c0-3.2375-3.7479-7.3274-6.7146-7.3274s-6.7146,4.09-6.7146,7.3274V71.757a1.4789,1.4789,0,0,0-1.4921,1.4655v1.5241a1.479,1.479,0,0,0,1.4921,1.4655c0,3.2374,3.7479,7.4446,6.7146,7.4446S68.73,79.45,68.73,76.2121a1.479,1.479,0,0,0,1.4921-1.4655V73.2225A1.4789,1.4789,0,0,0,68.73,71.757Z"/><path class="h" d="M62.0155,78.2344v5.4223c2.9667,0,6.7146-4.2072,6.7146-7.4446a1.479,1.479,0,0,0,1.4921-1.4655V73.2225A1.4789,1.4789,0,0,0,68.73,71.757V68.7088c0-3.2375-3.7479-7.3274-6.7146-7.3274v11.87a19.933,19.933,0,0,0-1.4921,4.6895Z"/><path class="j" d="M70.27,72.1723,65.0357,71l-.22-1.4655L64.23,71H59.6868l-.44-3.2241L58.6609,71l-5.0448.8793c-.3971-5.6671-.2931-12.8963,8.18-12.8963S70.9364,66.5063,70.27,72.1723Z"/><rect class="m" x="133.6949" y="85.6782" width="8.4206" height="3.6146"/><rect class="d" x="134.388" y="82.8714" width="7.0343" height="14.7691"/><polygon class="e" points="141.422 82.898 141.422 86.318 141.239 86.257 134.388 84.521 134.388 82.898 141.422 82.898"/><polygon class="m" points="139.838 91.638 137.904 93.532 135.97 91.638 134.798 92.315 136.794 94.495 137.904 94.495 139.014 94.495 141.01 92.315 139.838 91.638"/><path class="n" d="M155.6888,102.6949c-.4071-3.6331-1.4509-7.1278-1.9618-10.1172-.5614-3.2849-5.8839-3.5776-11.6052-5.7271,0,0,.503,6.6814-4.2166,6.6814s-4.2032-6.6814-4.2032-6.6814c-5.7213,2.15-11.0438,2.4422-11.6052,5.7271-.537,3.1425-1.4991,6.5354-1.8377,10.1172Z"/><polygon class="o" points="142.113 85.678 137.904 93.532 133.695 85.678 130.615 88.007 133.394 93.584 135.714 92.335 137.904 93.532 140.094 92.335 142.414 93.584 145.193 88.007 142.113 85.678"/><path class="d" d="M145.5807,72.6249l.2381-3.0953c0-4.0477-3.8689-7.3274-7.9137-7.3274-4.0476,0-7.9136,3.28-7.9136,7.3274l.2379,3.0923a1.4353,1.4353,0,0,0-.6013.3047,1.4592,1.4592,0,0,0-.5159,1.1167v1.5241a1.4636,1.4636,0,0,0,1.4564,1.4645c0,3.8223,4.5927,7.4456,7.3365,7.4456s7.3365-3.6228,7.3365-7.4451a1.4649,1.4649,0,0,0,1.4552-1.4644V74.0439A1.4628,1.4628,0,0,0,145.5807,72.6249Z"/><path class="h" d="M145.5807,72.6249l.2381-3.0953c0-4.0477-3.8689-7.3274-7.9137-7.3274l-.0012,10.4049a30.5611,30.5611,0,0,0-1.7586,5.5688h1.7586v6.3016c2.7462-.0008,7.3377-3.6233,7.3377-7.4451a1.4649,1.4649,0,0,0,1.4552-1.4644V74.0439A1.4628,1.4628,0,0,0,145.5807,72.6249Z"/><path class="p" d="M141.4493,79.8185c-1.05-1.0971-3.2309-1.2139-3.4762-1.2236-.0155-.0006-.031-.0006-.0464,0-.2453.01-2.4258.1265-3.4763,1.2236a.5845.5845,0,0,0-.1628.41,17.8064,17.8064,0,0,0,.2908,3.0117.5848.5848,0,0,0,.18.2462,5.7394,5.7394,0,0,0,6.3829.0005.5856.5856,0,0,0,.18-.2467,17.8687,17.8687,0,0,0,.2908-3.0114A.5848.5848,0,0,0,141.4493,79.8185Zm-1.1655,2.8405a6.8648,6.8648,0,0,1-1.6023.5435v-.786a.7328.7328,0,0,0-1.4655,0v.786a6.829,6.829,0,0,1-1.6-.5435,14.2554,14.2554,0,0,1-.1474-2.1808,4.6866,4.6866,0,0,1,4.9629,0A14.3806,14.3806,0,0,1,140.2838,82.659Z"/><path class="p" d="M141.8776,60.6579a6.7318,6.7318,0,0,0-7.5864-.4285c-2.8143,1.6569-3.1512,2.1212-4.5294,2.035-.4418-.0276-.8895-.0939-.9448.3453a5.6746,5.6746,0,0,0,.6673,3.6626c-.96,3.9239.7991,8.3578.7991,8.3578s-.3339-4.3834.6886-6.7685c2.65,1.8476,7.3057,1.6786,11.8616-1.428,2.7207,1.9109,2.6884,8.1965,2.6884,8.1965S150.6746,62.6884,141.8776,60.6579Z"/><rect class="m" x="19.4162" y="84.8788" width="8.4206" height="3.6146"/><rect class="k" x="20.1093" y="82.0719" width="7.0343" height="14.7691"/><polygon class="e" points="27.144 82.098 27.144 85.519 26.96 85.457 20.109 83.455 20.109 82.098 27.144 82.098"/><polygon class="m" points="25.559 90.838 23.625 92.733 21.691 90.838 20.519 91.516 22.516 93.696 23.625 93.696 24.735 93.696 26.732 91.516 25.559 90.838"/><path class="q" d="M41.41,101.8955c-.4071-3.6332-1.4509-7.1278-1.9618-10.1172-.5614-3.2849-5.8839-3.5776-11.6052-5.7271,0,0,.503,6.6813-4.2166,6.6813s-4.2031-6.6813-4.2031-6.6813C13.702,88.2007,8.38,88.4934,7.8182,91.7783,7.2811,94.9207,6.319,98.3136,5.98,101.8955Z"/><polygon class="o" points="27.834 84.879 23.625 92.733 19.416 84.879 16.336 87.208 19.116 92.785 21.435 91.535 23.625 92.733 25.815 91.535 28.135 92.785 30.915 87.208 27.834 84.879"/><path class="k" d="M31.302,71.8254,31.54,68.73c0-4.0476-3.8689-7.3274-7.9136-7.3274-4.0477,0-7.9136,3.28-7.9136,7.3274l.2378,3.0923a1.437,1.437,0,0,0-.6013.3047,1.46,1.46,0,0,0-.5158,1.1167v1.5241A1.4635,1.4635,0,0,0,16.29,76.2325c0,3.8223,4.5926,7.4456,7.3365,7.4456s7.3364-3.6229,7.3364-7.4451a1.4649,1.4649,0,0,0,1.4553-1.4645V73.2444A1.463,1.463,0,0,0,31.302,71.8254Z"/><path class="h" d="M31.302,71.8254,31.54,68.73c0-4.0476-3.8689-7.3274-7.9136-7.3274l-.0012,10.4049a30.5523,30.5523,0,0,0-1.7586,5.5689h1.7586V83.678c2.7462-.0008,7.3376-3.6232,7.3376-7.445a1.4649,1.4649,0,0,0,1.4553-1.4645V73.2444A1.463,1.463,0,0,0,31.302,71.8254Z"/><path class="r" d="M27.5989,59.8585a6.7318,6.7318,0,0,0-7.5864-.4286c-2.8143,1.657-3.1511,2.1213-4.5294,2.0351-.4417-.0277-.8895-.094-.9448.3452a5.6757,5.6757,0,0,0,.6673,3.6626c-.96,3.924.7992,8.3578.7992,8.3578s-.3339-4.3833.6886-6.7684c2.65,1.8475,7.3057,1.6785,11.8616-1.428,2.7207,1.9108,2.6883,8.1964,2.6883,8.1964S36.3959,61.889,27.5989,59.8585Z"/><path class="s" d="M31.653,70.5634H30.0668a4.6868,4.6868,0,0,0-2.185-.43c-1.6332,0-2.7416.3129-3.31.924a2.1589,2.1589,0,0,0-2.2425-.004c-.57-.6084-1.677-.92-3.3065-.92a4.6871,4.6871,0,0,0-2.185.43H15.24V71.706l.5244.184a2.6466,2.6466,0,0,0-.0755.6411c0,1.7236.5456,2.7214,3.3338,2.7214,2.3554,0,3.29-.6717,3.702-2.6619a1.9394,1.9394,0,0,0,.0221-.6935,1.2855,1.2855,0,0,1,.7-.156,1.2681,1.2681,0,0,1,.71.1624,1.9442,1.9442,0,0,0,.0232.6871c.4124,1.99,1.3465,2.6619,3.7019,2.6619,2.7883,0,3.3338-.9978,3.3338-2.7214a2.6424,2.6424,0,0,0-.0766-.6447l.514-.18ZM22.15,72.4716c-.3572,1.723-1.03,2.1947-3.1281,2.1947-2.5564,0-2.7476-.8455-2.7476-2.1352,0-.4482,0-1.8118,2.7476-1.8118,1.8957,0,2.6429.429,2.9359.7891A1.1026,1.1026,0,0,1,22.15,72.4716Zm5.7314,2.1947c-2.0985,0-2.7708-.4717-3.1281-2.1947a1.1023,1.1023,0,0,1,.1923-.9632c.2929-.36,1.04-.7891,2.9358-.7891,2.7476,0,2.7476,1.3636,2.7476,1.8118C30.6294,73.8208,30.4382,74.6663,27.8818,74.6663Z"/><polygon class="t" points="172.651 85.592 179.644 85.592 179.555 88.208 172.719 88.208 172.651 85.592"/><polygon class="q" points="180.544 86.376 179.078 86.064 179.078 82.326 173.217 82.326 173.216 86.064 171.751 86.376 173.216 95.628 179.078 95.628 180.544 86.376"/><polygon class="e" points="173.216 82.35 173.216 84.002 179.078 86.064 179.078 82.35 173.216 82.35"/><rect class="o" x="170.2406" y="92.9902" width="11.8137" height="9.5236"/><rect class="u" x="170.2155" y="92.9903" width="11.8137" height="9.5235"/><path class="v" d="M189.98,102.5138c-.0436-2.6948-.1066-4.8272-.1974-5.6286-.3134-2.767-1.0035-6.0418-3.4408-8.381a9.4676,9.4676,0,0,0-6.776-2.4255l-.0008.0059-.0268-.0059-1.9369,8.8988v7.5363Z"/><path class="v" d="M172.7564,86.0787h0a9.4672,9.4672,0,0,0-6.7759,2.4255c-2.4374,2.3392-3.1275,5.614-3.4409,8.381-.0908.8014-.1538,2.9338-.1973,5.6286h12.351V94.9775l-1.9368-8.8985Z"/><polygon class="t" points="169.218 87.937 172.505 89.151 171.215 90.91 174.682 94.977 172.651 85.592 169.218 87.937"/><polygon class="t" points="183.077 87.937 179.644 85.592 177.602 94.977 181.08 90.91 179.79 89.151 183.077 87.937"/><path class="q" d="M182.8758,72.2125V69.1643c0-3.2375-3.7479-7.3274-6.7146-7.3274s-6.7145,4.09-6.7145,7.3274v3.0482a1.479,1.479,0,0,0-1.4922,1.4655v1.5241a1.4791,1.4791,0,0,0,1.4922,1.4655c0,3.2374,3.7479,7.4446,6.7145,7.4446s6.7146-4.2072,6.7146-7.4446a1.4791,1.4791,0,0,0,1.4922-1.4655V73.678A1.479,1.479,0,0,0,182.8758,72.2125Z"/><path class="h" d="M176.1613,78.69v5.4223c2.9667,0,6.7145-4.2072,6.7145-7.4446a1.4791,1.4791,0,0,0,1.4922-1.4655V73.678a1.479,1.479,0,0,0-1.4922-1.4655V69.1643c0-3.2375-3.7478-7.3274-6.7145-7.3274v11.87a19.9306,19.9306,0,0,0-1.4922,4.6895Z"/><path class="w" d="M181.6866,59.5326a2.1566,2.1566,0,0,0-.0489-.4533,1.9786,1.9786,0,0,0-1.2807-2.3,2.08,2.08,0,0,0-2.03-2.0022,2.2313,2.2313,0,0,0-4.0569-.18,1.8969,1.8969,0,0,0-2.3768,1.8422c0,.0354.0034.07.0053.105a2.19,2.19,0,0,0-1.046,3.454,1.87,1.87,0,0,0,2.2575,2.8229,1.6222,1.6222,0,0,0,2.1271,1.4843,2.244,2.244,0,0,0,3.9906-1.06,2.1633,2.1633,0,0,0,1.3462-1.83A2.1482,2.1482,0,0,0,181.6866,59.5326Z"/><path class="b" d="M176.1613,58.9276c-6.8574,0-9.2968,6.7016-7.2434,13.2937a.2932.2932,0,0,0,.5717-.0677c.2668-3.7415,1.8122-6.8887,6.6717-5.2928,4.8595-1.5959,6.4048,1.5513,6.6717,5.2928a.2932.2932,0,0,0,.5716.0677C185.458,65.6292,183.0186,58.9276,176.1613,58.9276Z"/><path class="x" d="M72.02,46.8366c-.6492,1.6245-7.3146,7.7732-9.0791,9.4424a.0617.0617,0,0,0-.0938,0c-1.7644-1.6692-8.43-7.8179-9.079-9.4424a5.4111,5.4111,0,0,1,.3826-5.137,5.5523,5.5523,0,0,1,5.0723-2.42,4.8723,4.8723,0,0,1,3.671,2.2127A4.8727,4.8727,0,0,1,66.5649,39.28a5.5521,5.5521,0,0,1,5.0722,2.42A5.4089,5.4089,0,0,1,72.02,46.8366Z"/><path class="o" d="M58.8713,48.2838l1.25-.1294a1.0717,1.0717,0,0,0,.3168.6717.86.86,0,0,0,.6069.2476.843.843,0,0,0,.665-.319,1.4527,1.4527,0,0,0,.2722-.9618,1.3171,1.3171,0,0,0-.27-.9036.8992.8992,0,0,0-.7029-.3013,1.2773,1.2773,0,0,0-.9684.4775l-1.0175-.1473.6427-3.405h3.3158v1.1737H60.6162L60.42,45.7981a1.9167,1.9167,0,0,1,2.2715.3972,2.1859,2.1859,0,0,1,.58,1.5753,2.3621,2.3621,0,0,1-.4685,1.4415,2.0775,2.0775,0,0,1-1.7717.8657,2.1988,2.1988,0,0,1-1.4772-.4864A2.0024,2.0024,0,0,1,58.8713,48.2838Z"/><path class="o" d="M66.9167,49.9663H65.6626V45.24a4.3232,4.3232,0,0,1-1.62.9506v-1.138a3.6294,3.6294,0,0,0,1.0666-.6091,2.3147,2.3147,0,0,0,.79-1.0466h1.0175Z"/><path class="x" d="M112.3583,42.8389c-.8349,2.0891-9.4068,9.9965-11.6759,12.1431a.0793.0793,0,0,0-.1206,0c-2.2691-2.1466-10.841-10.054-11.6759-12.1431a6.9589,6.9589,0,0,1,.4921-6.6063,7.14,7.14,0,0,1,6.523-3.1116,6.2658,6.2658,0,0,1,4.7211,2.8455,6.2658,6.2658,0,0,1,4.7211-2.8455,7.14,7.14,0,0,1,6.523,3.1116A6.9564,6.9564,0,0,1,112.3583,42.8389Z"/><path class="o" d="M94.67,39.758V38.2407h5.5866v1.1859A8.7929,8.7929,0,0,0,98.85,41.38a11.3829,11.3829,0,0,0-1.09,2.7061,10.0253,10.0253,0,0,0-.3692,2.5608H95.8152a10.9518,10.9518,0,0,1,.73-3.6043,12.0158,12.0158,0,0,1,1.84-3.2845Z"/><path class="o" d="M102.3947,42.0485a1.8288,1.8288,0,0,1-1.2091-1.7615,2.063,2.063,0,0,1,.6657-1.5754,3.18,3.18,0,0,1,3.7786,0,2.0553,2.0553,0,0,1,.6714,1.5754,1.858,1.858,0,0,1-.3081,1.0551,1.95,1.95,0,0,1-.8662.7064,2.2831,2.2831,0,0,1,1.0783.8313,2.1992,2.1992,0,0,1,.3692,1.2615,2.5676,2.5676,0,0,1-.7529,1.9184,2.7364,2.7364,0,0,1-2.0026.7383,3.027,3.027,0,0,1-1.9358-.61,2.3812,2.3812,0,0,1-.9127-1.9766,2.4432,2.4432,0,0,1,.343-1.27A2.2077,2.2077,0,0,1,102.3947,42.0485Zm.1861,2.0056a1.501,1.501,0,0,0,.3458,1.0522,1.1216,1.1216,0,0,0,.8633.3779,1.0844,1.0844,0,0,0,.8372-.3634,1.5047,1.5047,0,0,0,.3313-1.0493,1.3589,1.3589,0,0,0-.3372-.9622,1.1156,1.1156,0,0,0-.8545-.3632,1.0218,1.0218,0,0,0-.8923.4127A1.5132,1.5132,0,0,0,102.5808,44.0541Zm.1511-3.6508a1.0233,1.0233,0,0,0,.2761.7615.9993.9993,0,0,0,.7354.2733,1.0119,1.0119,0,0,0,.7441-.2761,1.0269,1.0269,0,0,0,.2791-.7645.95.95,0,0,0-1.0057-1.0115,1.0134,1.0134,0,0,0-.75.279A.9979.9979,0,0,0,102.7319,40.4033Z"/><path class="x" d="M144.5991,47.5424c-.5013,1.2544-5.6479,6.002-7.01,7.2908a.0479.0479,0,0,0-.0725,0c-1.3623-1.2888-6.509-6.0364-7.01-7.2908a4.178,4.178,0,0,1,.2954-3.9664,4.2872,4.2872,0,0,1,3.9165-1.8683,3.7622,3.7622,0,0,1,2.8346,1.7085,3.7618,3.7618,0,0,1,2.8345-1.7085,4.2871,4.2871,0,0,1,3.9165,1.8683A4.1766,4.1766,0,0,1,144.5991,47.5424Z"/><path class="o" d="M135.9641,49.4712V48.4477h-2.0816v-.8534l2.2065-3.23h.8188v3.2265h.6314v.8569h-.6314v1.0235Zm0-1.88V45.8527l-1.1691,1.7381Z"/><path class="o" d="M141.1292,45.6306l-.9436.1041a.6886.6886,0,0,0-.18-.43.5268.5268,0,0,0-.3783-.1387.6389.6389,0,0,0-.5222.2775,2.34,2.34,0,0,0-.2688,1.1553,1.14,1.14,0,0,1,.9056-.43,1.3827,1.3827,0,0,1,1.0459.4649,1.6855,1.6855,0,0,1,.4354,1.2,1.7215,1.7215,0,0,1-.4579,1.2524,1.6679,1.6679,0,0,1-2.4424-.1266,3.0785,3.0785,0,0,1-.4961-1.9619,3.1363,3.1363,0,0,1,.5169-2.0157,1.6686,1.6686,0,0,1,1.3427-.6176,1.4254,1.4254,0,0,1,.9591.3244A1.52,1.52,0,0,1,141.1292,45.6306Zm-2.21,2.1267a1.1047,1.1047,0,0,0,.2186.7338.6432.6432,0,0,0,.5.2585.5687.5687,0,0,0,.451-.2117,1.0665,1.0665,0,0,0,.18-.6938,1.1176,1.1176,0,0,0-.1943-.7269.6247.6247,0,0,0-.961-.01A.956.956,0,0,0,138.9192,47.7573Z"/><path class="x" d="M186.447,39.6791c-.7106,1.778-8.0064,8.5083-9.9377,10.3353a.0674.0674,0,0,0-.1026,0c-1.9313-1.827-9.2271-8.5573-9.9377-10.3353a5.9229,5.9229,0,0,1,.4189-5.6228,6.077,6.077,0,0,1,5.5519-2.6484A5.3328,5.3328,0,0,1,176.458,33.83a5.3328,5.3328,0,0,1,4.0183-2.4218,6.0769,6.0769,0,0,1,5.5518,2.6484A5.9207,5.9207,0,0,1,186.447,39.6791Z"/><path class="o" d="M175.98,37.7639l-1.497.1651a1.0911,1.0911,0,0,0-.2862-.6825.835.835,0,0,0-.6-.22,1.0131,1.0131,0,0,0-.8283.44,3.71,3.71,0,0,0-.4265,1.8327,1.8086,1.8086,0,0,1,1.4366-.6825,2.1938,2.1938,0,0,1,1.6592.7375,2.6745,2.6745,0,0,1,.6907,1.9042,2.731,2.731,0,0,1-.7265,1.9868,2.6458,2.6458,0,0,1-3.8745-.2008,4.8834,4.8834,0,0,1-.7869-3.1123,4.9754,4.9754,0,0,1,.82-3.1976,2.647,2.647,0,0,1,2.13-.98,2.2607,2.2607,0,0,1,1.5215.5145A2.4117,2.4117,0,0,1,175.98,37.7639Zm-3.5059,3.3736a1.7536,1.7536,0,0,0,.3466,1.164,1.0209,1.0209,0,0,0,.7925.41.9022.9022,0,0,0,.7157-.3358,1.6931,1.6931,0,0,0,.2862-1.1007,1.7731,1.7731,0,0,0-.3082-1.153.9911.9911,0,0,0-1.5246-.0164A1.5167,1.5167,0,0,0,172.4741,41.1375Z"/><path class="o" d="M176.7492,41.7815l1.541-.16a1.3215,1.3215,0,0,0,.3909.8283,1.06,1.06,0,0,0,.7485.3054,1.04,1.04,0,0,0,.82-.3935,1.791,1.791,0,0,0,.3356-1.186,1.6245,1.6245,0,0,0-.3328-1.1144,1.11,1.11,0,0,0-.8668-.3716,1.5752,1.5752,0,0,0-1.1944.5889l-1.2548-.1816.7925-4.1992h4.089v1.4474h-2.9166l-.2421,1.37a2.3636,2.3636,0,0,1,2.8011.49,2.6959,2.6959,0,0,1,.7155,1.9427,2.9115,2.9115,0,0,1-.578,1.7777,2.5614,2.5614,0,0,1-2.1848,1.0677,2.7119,2.7119,0,0,1-1.8218-.6A2.4707,2.4707,0,0,1,176.7492,41.7815Z"/><path class="x" d="M38.242,41.0523C37.25,43.5344,27.0658,52.9292,24.37,55.48a.0943.0943,0,0,0-.1433,0c-2.6959-2.55-12.88-11.9451-13.8721-14.4272a8.2675,8.2675,0,0,1,.5847-7.8489,8.4833,8.4833,0,0,1,7.75-3.6969,7.4442,7.4442,0,0,1,5.6091,3.3807,7.4446,7.4446,0,0,1,5.6092-3.3807,8.4833,8.4833,0,0,1,7.75,3.6969A8.2647,8.2647,0,0,1,38.242,41.0523Z"/><path class="o" d="M18.4473,40.1778a2.3507,2.3507,0,0,1-1.5545-2.2646,2.6516,2.6516,0,0,1,.8558-2.0254,3.4293,3.4293,0,0,1,2.4326-.8,3.4362,3.4362,0,0,1,2.4254.8,2.6422,2.6422,0,0,1,.8631,2.0254,2.3875,2.3875,0,0,1-.3963,1.3564,2.5067,2.5067,0,0,1-1.1134.9082,2.9366,2.9366,0,0,1,1.3863,1.0687,2.8284,2.8284,0,0,1,.4745,1.6218,3.3016,3.3016,0,0,1-.9678,2.4664,3.518,3.518,0,0,1-2.5748.9492,3.8911,3.8911,0,0,1-2.4886-.7848,3.0609,3.0609,0,0,1-1.1735-2.5411,3.1416,3.1416,0,0,1,.4411-1.6329A2.8368,2.8368,0,0,1,18.4473,40.1778Zm.2392,2.5784a1.9289,1.9289,0,0,0,.4446,1.3528,1.4421,1.4421,0,0,0,1.11.4858,1.3941,1.3941,0,0,0,1.0763-.4672,1.9344,1.9344,0,0,0,.4258-1.349,1.747,1.747,0,0,0-.4335-1.237,1.4339,1.4339,0,0,0-1.0985-.467,1.3131,1.3131,0,0,0-1.1471.5307A1.9451,1.9451,0,0,0,18.6865,42.7562Zm.1943-4.6935a1.315,1.315,0,0,0,.3549.979,1.285,1.285,0,0,0,.9455.3513,1.3017,1.3017,0,0,0,.9567-.3549,1.32,1.32,0,0,0,.3587-.9829,1.2206,1.2206,0,0,0-1.2931-1.3,1.3024,1.3024,0,0,0-.964.3587A1.2836,1.2836,0,0,0,18.8808,38.0627Z"/><path class="o" d="M24.7013,43.1822l2.0329-.2466a1.9235,1.9235,0,0,0,.5232,1.1883,1.4308,1.4308,0,0,0,1.0314.4111,1.4156,1.4156,0,0,0,1.0946-.4933,1.9121,1.9121,0,0,0,.445-1.33,1.7837,1.7837,0,0,0-.4262-1.2556,1.3579,1.3579,0,0,0-1.0387-.4634,3.6623,3.6623,0,0,0-.9643.157l.2319-1.7115a1.8417,1.8417,0,0,0,1.3-.37,1.3172,1.3172,0,0,0,.4484-1.0427,1.1319,1.1319,0,0,0-1.2034-1.2108,1.2655,1.2655,0,0,0-.9191.3737,1.755,1.755,0,0,0-.4634,1.0912l-1.9359-.3288a4.3271,4.3271,0,0,1,.609-1.5881,2.752,2.752,0,0,1,1.1361-.9344,3.8167,3.8167,0,0,1,1.6331-.34,3.2575,3.2575,0,0,1,2.4813.9865A2.4976,2.4976,0,0,1,29.91,40.2a2.5515,2.5515,0,0,1,1.5059.9043,2.6228,2.6228,0,0,1,.5645,1.6966,3.29,3.29,0,0,1-1.054,2.4588,3.935,3.935,0,0,1-5.0894.1608A3.3627,3.3627,0,0,1,24.7013,43.1822Z"/></g></svg>