<svg xmlns="http://www.w3.org/2000/svg" viewBox="0 0 2058.34 2393.16"><defs><style>.cls-1{fill:#eaf4fe;}.cls-2{fill:#dde9f5;}.cls-3{fill:#cadae8;}.cls-4{fill:#f5f9fd;}.cls-5{fill:#e04545;}.cls-6{fill:#ffc5a6;}.cls-7{fill:#f0a17d;}.cls-8{fill:#f95959;}.cls-9{fill:#6b3f30;}.cls-10{fill:#233142;}.cls-11{fill:#ff7e67;}.cls-12{fill:#f08d6c;}.cls-13{fill:#455d7a;}</style></defs><g id="Layer_2" data-name="Layer 2"><path class="cls-1" d="M2293.46,2545.18c460.07,0,520.23-265.42,474.22-438.83,442.37-191.11,244.19-644.09-14.15-644.09,265.42-177,173.4-491.92-31.86-506.08C2849.08,598.75,2226.22,305,1964.34,708.46c-389.29-116.79-857.61,120.32-772.68,491.91-443.55,250.09-125,648.81,139.2,633.48-424.68,240.65-357.44,470.68-81.4,569.77S2293.46,2545.18,2293.46,2545.18Z" transform="translate(-970.83 -303.42)"/><path class="cls-2" d="M2230,2474.17c360.57,0,407.72-208,371.67-343.93,346.7-149.78,125.48-538.22-77-538.22,208-138.68,160.87-390,0-401.08,162-356.38-344.46-686.56-552.62-156.29-305.1-91.53-578-38.22-511.43,253-347.63,196-167,472.08,40.11,460.06-332.84,188.61-305.3,537.83-89,615.5S2230,2474.17,2230,2474.17Z" transform="translate(-970.83 -303.42)"/><path class="cls-3" d="M2196.83,2230.63c256.8,0,290.38-148.16,264.7-245,334.46,7.42,89.37-383.33-54.83-383.33,148.15-98.77,63.26-291.45-51.31-299.35,115.35-253.81-194-475.27-342.28-97.61-321.27-212.05-370.45,8.75-323,216.17-389.29-26.54-98,337.68,49.54,329.12-445.91,86.71-359.34,429.53-205.26,484.84S2196.83,2230.63,2196.83,2230.63Z" transform="translate(-970.83 -303.42)"/><path class="cls-3" d="M1536.44,763.09,1232,875.21a33.72,33.72,0,0,1-43.29-20l-85-230.93a33.7,33.7,0,0,1,20-43.29l304.48-112.12a33.72,33.72,0,0,1,43.29,20l85,230.94A33.7,33.7,0,0,1,1536.44,763.09Z" transform="translate(-970.83 -303.42)"/><polygon class="cls-3" points="444.02 487.68 560.63 535.68 531.6 450.79 444.02 487.68"/><path class="cls-4" d="M1256.64,699.37a13.86,13.86,0,1,0-12.58,15A13.85,13.85,0,0,0,1256.64,699.37Z" transform="translate(-970.83 -303.42)"/><path class="cls-4" d="M1345.88,672.32a13.86,13.86,0,1,0-12.58,15A13.87,13.87,0,0,0,1345.88,672.32Z" transform="translate(-970.83 -303.42)"/><path class="cls-4" d="M1434.19,641.29a13.86,13.86,0,1,0-12.59,15A13.86,13.86,0,0,0,1434.19,641.29Z" transform="translate(-970.83 -303.42)"/><path class="cls-5" d="M1621.83,2184.53c-3.54-9.43-139.79-60.16-156.9-53.08s-54.1,68.12-54.1,68.12c12.22,39.23,94.21,74.28,142,81.82S1625.37,2194,1621.83,2184.53Z" transform="translate(-970.83 -303.42)"/><path class="cls-6" d="M1462.76,2173.76c113.25-2.36,225.43,1,232.07,17.85s-82.25,278.69-95.82,315.26-42.47,155.72-42.47,155.72c-122.68,12.09-217.64-69.31-207.09-152.48,6.59-51.92,34.25-117.91,43.12-147.15C1420.29,2271.53,1462.76,2173.76,1462.76,2173.76Z" transform="translate(-970.83 -303.42)"/><path class="cls-7" d="M1669,2239l-37,137.54-87.29,31.26,114.42,7.67,2.56.15c18.12-66.61,36.57-143.13,32.54-153.36C1692.38,2257.45,1683.43,2248.82,1669,2239Z" transform="translate(-970.83 -303.42)"/><path class="cls-8" d="M1581.31,1821.79c-23.8,31.83-53.41,90-81.86,152.25-53,115.91-88.62,225.53-88.62,225.53,74.32-31,230.76,8,283,74.32,48.84,62.09,59.16-261,59.16-261Z" transform="translate(-970.83 -303.42)"/><path class="cls-5" d="M1735.89,1993.89l-37.38-41.62-67.54-75.2-6.3-4.08,36.27,195.64,7.85,302.58c33.08,14.38-5.55-98.79,11.62-77,12.47,15.86,23.31,5.22,32.53-19.37Z" transform="translate(-970.83 -303.42)"/><path class="cls-5" d="M2513.24,2279.2c-55.15,15-123.27,15-123.27,15l19.46-148.64,90.25,64.59Z" transform="translate(-970.83 -303.42)"/><path class="cls-8" d="M1861.78,1648.38l-280.47,173.41L1683.94,2061l-73.13,434.12s585.11,36.57,588.64,34.21S2341,2088.89,2341,2088.89l148-264.45-303.15-162.35Z" transform="translate(-970.83 -303.42)"/><path class="cls-5" d="M1870.33,1577.3C1993.16,1555,2175,1593.53,2175,1593.53l-216.32,247.28Z" transform="translate(-970.83 -303.42)"/><path class="cls-6" d="M1870.63,1400.65c35.38,100.86,47.77,299.93,46,402.56,75.2,91.13,192,31,233.57-26.54-1.77-194.65,28.32-299.05,28.32-299.05S2018.38,1355.53,1870.63,1400.65Z" transform="translate(-970.83 -303.42)"/><path class="cls-7" d="M1870.63,1400.65c21,59.92,33.93,154.5,40.57,242.93l247.66-51.34c8.34-75.28,19.66-114.62,19.66-114.62S2018.38,1355.53,1870.63,1400.65Z" transform="translate(-970.83 -303.42)"/><path class="cls-6" d="M1972.44,717.08C2069.16,755.55,2146,857.19,2171,908.23c16.84,34.49,19.49,173.69,50.74,232.52s62,86.64,69.94,152.49,14.43,247-13.93,276.59-121,43.47-288.15-84.94-255.41-251.25-271.84-282.62-144.54-161.73-94-243.49S1972.44,717.08,1972.44,717.08Z" transform="translate(-970.83 -303.42)"/><path class="cls-7" d="M2247.41,1422.78c-16.12,26.21-68.37,15.52-75,11.41,9.39,30.2,54.2,49.73,63.26,37.41S2247.41,1422.78,2247.41,1422.78Z" transform="translate(-970.83 -303.42)"/><path class="cls-9" d="M2224.5,1327.7c-57.62,14.14-57.24,51.27-56.31,64.4.79,11.33,11.52,31.13,33.07,27.35s46.23-48.5,17.34-70.48C2210.55,1340.75,2224.5,1327.7,2224.5,1327.7Z" transform="translate(-970.83 -303.42)"/><path class="cls-10" d="M1863,1361.67s-47.46-95.79-49-102.05c-35.13-115.66-51.87-248.28-51.87-248.28-46.89-1-95.65.53-95.65.53S1774.14,889.64,1909.23,834s142.66-53.22,142.66-53.22c31.83,14.17,66.62,51.12,90.86,80.88,0-29.51-21.84-166.62-42.24-187.52s-92.46,9.22-104.77,7-98-56.53-168.31-41.68-135.71,143.23-164.1,188.12S1568.77,975.13,1561,1012.89s129.17,241.69,201.27,297.75S1863,1361.67,1863,1361.67Z" transform="translate(-970.83 -303.42)"/><path class="cls-11" d="M2169.7,1399.19c3.71,10.86,14.07,23.33,31.56,20.26,11.81-2.08,24.55-16.46,28.9-32.64C2216.29,1385,2191.88,1384.68,2169.7,1399.19Z" transform="translate(-970.83 -303.42)"/><path class="cls-12" d="M2202.6,1218.48c-8.48,41.57-69.53,55-83,53.58,38.53,32.27,60.3,19.58,75.37-2.54S2202.6,1218.48,2202.6,1218.48Z" transform="translate(-970.83 -303.42)"/><path class="cls-10" d="M2038.67,1140.58c5.33,18.57-1.45,36.8-15.14,40.73s-29.12-7.93-34.45-26.49,1.46-36.79,15.15-40.73S2033.34,1122,2038.67,1140.58Z" transform="translate(-970.83 -303.42)"/><path class="cls-13" d="M2025.49,1122.29c4.26,5.11,4.66,11.79.89,14.93s-10.28,1.55-14.54-3.56-4.65-11.79-.88-14.94S2021.23,1117.18,2025.49,1122.29Z" transform="translate(-970.83 -303.42)"/><path class="cls-10" d="M2168.94,1075.63c5.37,16.58.52,33-10.83,36.67s-24.89-6.79-30.25-23.38-.52-33,10.83-36.66S2163.58,1059.05,2168.94,1075.63Z" transform="translate(-970.83 -303.42)"/><path class="cls-10" d="M1918.67,939.35c18.71,19.69,20.08,26.51-7.11,65.68-43.43,62.58-30.4,83.33-34.52,86.7s-22.72-28.37-10.4-70.82C1875.91,989,1911.66,932,1918.67,939.35Z" transform="translate(-970.83 -303.42)"/><path class="cls-10" d="M2069.57,887.79c-6,22.8,22,27.17,33.88,25.89,51.32-5.58,58.41,23.44,63.05,22.71s1.41-28-26.33-43.8C2119.29,880.7,2071.82,879.25,2069.57,887.79Z" transform="translate(-970.83 -303.42)"/><path class="cls-13" d="M2011.8,707.17c-98.38,9.57-149.31,57.08-149.31,57.08-149.06,21.67-232.15,177.68-232.15,177.68,88.39-213.64,152.26-289,228.38-288.22S2011.8,707.17,2011.8,707.17Z" transform="translate(-970.83 -303.42)"/><path class="cls-13" d="M2036,721.73c22.65,9.19,28.52,38.94,28.52,38.94,1.35-47.76,29.48-86.16,29.48-86.16-32.87,9.87-73.72,12.93-73.72,12.93C2034.81,707.52,2036,721.73,2036,721.73Z" transform="translate(-970.83 -303.42)"/><path class="cls-13" d="M2156.33,1058.68c3.93,4.72,4.67,10.57,1.65,13.09s-8.64.73-12.57-4-4.67-10.57-1.65-13.08S2152.4,1054,2156.33,1058.68Z" transform="translate(-970.83 -303.42)"/><path class="cls-7" d="M2278.49,1564.33c12.11-13.69,19.68-52.93,19.39-102.81-7.68-5.74-39.78-8.44-46.82-10.44-40.34-6.42-20.34,6.93-77.56,1.48-7.69-.74-47-10.27-61.34-9.15-34.59,2.72-29.49,45.42-11.21,62.53,29.23,27.34,130.06,38.33,130.06,38.33-18.28,20.06-25.34,30.72-33.33,49.26C2255.91,1606.44,2263.35,1581.45,2278.49,1564.33Z" transform="translate(-970.83 -303.42)"/><path class="cls-8" d="M1870.33,1577.3c12.39,23,76.09,86.12,76.09,86.12l12.38,174,69.6-178.13L2175,1593.53l41,112.06c-56.62,77-262.18,162.2-264.83,162.2-72.55-73.43-118.56-200-118.56-200Z" transform="translate(-970.83 -303.42)"/><polygon class="cls-8" points="965.27 1370.62 850.25 1531.64 842.29 1374.15 899.5 1273.88 965.27 1370.62"/><polygon class="cls-8" points="1069.37 1374.74 1123.05 1558.18 1245.14 1410.72 1204.15 1290.1 1069.37 1374.74"/><polygon class="cls-5" points="846.42 1525.15 947.75 1395.14 975 1546.6 969.1 1569.57 682.15 1498.9 842.29 1395.14 846.42 1525.15"/><polygon class="cls-5" points="1069.37 1374.74 984.44 1569.39 1283.7 1569.35 1235.7 1430.19 1151.88 1551.66 1069.37 1374.74"/><polyline class="cls-5" points="987.83 1537.39 959.08 1609.49 971.38 1654.62 884.11 2206.69 873.46 2206.04 965.27 1656.83 949.79 1605.96 987.98 1534"/><path class="cls-6" d="M2061.87,2559.71s-349.61,89.9-505.33,102.88c-106.76-16.52-154.4-39-144.41-104.46s48-128.52,153.26-146.61c37.34-6.42,527.69,27.1,541.35,29.19C2143.85,2486,2061.87,2559.71,2061.87,2559.71Z" transform="translate(-970.83 -303.42)"/><polygon class="cls-11" points="1391.05 2231.14 1576.55 2109.93 1593.36 2138.24 1401.67 2264.17 1391.05 2231.14"/><path class="cls-5" d="M2558,2431.3l-167.7,110.78s1.6,5.85,3.35,11.59l170.5-112Z" transform="translate(-970.83 -303.42)"/><path class="cls-6" d="M2106.74,2440.71c113.83,8.14,222.09,25.54,237.88,27.51s31.8,6.82,42.25,29.07c9.68,20.59,18.39,40.58,21.24,50.87,2.08,8.32,4.76,50.65-8.58,72-4.49,7.2-22.61,6.74-31.24,5.2-15.68-2.82-18.14-8.3-22-11.14-13.8,14.85-41.65,21.14-41.65,21.14-5.09,13.58-21.92,27.44-29.28,30.91a18.43,18.43,0,0,1-10,1.88C2260.48,2681.67,2238,2696,2238,2696c-12.64,4.14-73.68-16.62-80.45-22.15s-8.7-34.25-7.64-38c-23.62-3.79-134.74-64.71-135.26-85.34S2003.8,2486.33,2106.74,2440.71Z" transform="translate(-970.83 -303.42)"/><path class="cls-7" d="M2149.86,2635.93c1-.14,64.82,17.87,64.82,17.87l2.46,21.41s-5.74-14.49-6.53-14.55-61.29-17.2-61.29-17.2Z" transform="translate(-970.83 -303.42)"/><path class="cls-7" d="M2338,2516.93" transform="translate(-970.83 -303.42)"/><path class="cls-7" d="M2305,2578.48l-.34,56.88s2.63-.6,6.65-1.84Z" transform="translate(-970.83 -303.42)"/><path class="cls-7" d="M2265.42,2668.15l.64-57.13,5.75,56.57C2269.43,2669,2265.42,2668.15,2265.42,2668.15Z" transform="translate(-970.83 -303.42)"/><path class="cls-5" d="M1826.44,2088.89c126.47-22,232.63,25.16,232.63,25.16C1929.83,1997.74,1826.44,2088.89,1826.44,2088.89Z" transform="translate(-970.83 -303.42)"/><path class="cls-7" d="M2205.35,2563.5c112.51-10.47,169.87-86.12,199.36-132.12s86.12-389.29,86.12-389.29l-193.46,9.44Z" transform="translate(-970.83 -303.42)"/><path class="cls-7" d="M2205.94,2560.55c-103.22-3.54-170.51-96.64-125-107.2s68.42,25.21,99.68,48.8A63.71,63.71,0,0,1,2205.94,2560.55Z" transform="translate(-970.83 -303.42)"/><path class="cls-7" d="M2450.08,2263.3c6.25-30.47,12.27-61.71,17.69-90.77l-149-53L2286,2401.74l51.94,35.39,38.75-191.55A256.09,256.09,0,0,1,2450.08,2263.3Z" transform="translate(-970.83 -303.42)"/><path class="cls-8" d="M2489.06,1824.44c80.81,46.6,26.54,450,24.18,454.76-73.14-72-248.9-118-248.9-118C2328,1924.12,2408.25,1810.88,2489.06,1824.44Z" transform="translate(-970.83 -303.42)"/><path class="cls-5" d="M2357.16,1948.86c21.82-48.95,76.68-99.68,76.68-99.68s-69,50.14-74.91,64.29S2357.16,1948.86,2357.16,1948.86Z" transform="translate(-970.83 -303.42)"/><path class="cls-6" d="M2252.54,1841.55S2099.18,2233.19,2062.61,2350s73.14,219.41,142.74,213.52,132.6-72,140.38-158.08c3.79-41.93,36.57-588.94,35.39-604.28C2336.29,1756.32,2252.54,1841.55,2252.54,1841.55Z" transform="translate(-970.83 -303.42)"/><path class="cls-6" d="M2381.12,1801.14c0-127.1-10.17-248.76-11.06-266.45s-18.52-35.72-41.14-49.1c-20.94-12.39-49.84-32-60.46-36-11.5-4-56.32-1.62-95.25-1.62s-56-12.1-74.32-11.51,3.48,49.34,37.6,63.7c16.81,7.08,74.76,7.23,97.17.15,23,14.16,40.7,27.13,40.7,27.13-29.49-.79-63.75,1.26-67.83,4.72a43.49,43.49,0,0,0-15.33,33.62c-14.68,4.57-26,20.65-31.49,26.84-4.42,4.95-6,14.16-6,14.16-14.6,4.42-31.41,28.31-31.41,28.31-5.3,13.71,12,83.16,17.26,91.13s35.39,12.38,39.37,11.5c2.21,26.54,57.95,154.83,79.62,157S2325.38,1911.88,2381.12,1801.14Z" transform="translate(-970.83 -303.42)"/><path class="cls-7" d="M2179,1737.74c.22-1.11-13.94-73.44-13.94-73.44l-22.34-4.42s14.82,7.52,14.82,8.41,13.49,69.45,13.49,69.45Z" transform="translate(-970.83 -303.42)"/><polygon class="cls-7" points="1303.53 1224.04 1347.48 1234.81 1285.77 1211.68 1303.53 1224.04"/><polygon class="cls-7" points="1220.37 1262.38 1280.24 1266.51 1220.66 1254.71 1220.37 1262.38"/><path class="cls-7" d="M2153.74,1606.8l60.17,3.83-58.25-10.26A16.7,16.7,0,0,0,2153.74,1606.8Z" transform="translate(-970.83 -303.42)"/><polygon class="cls-7" points="1059.43 2266.74 1030.3 2237.88 1041.11 2268.79 1059.43 2266.74"/><path class="cls-7" d="M2346.32,2614.22c3.17-28.46,4.28-65.17,4.28-65.17l15,27.2a24.57,24.57,0,0,1-8.85-7.6,475.36,475.36,0,0,0-.14,53.28C2352.37,2621.15,2346.32,2614.22,2346.32,2614.22Z" transform="translate(-970.83 -303.42)"/><path class="cls-6" d="M1795.57,1303.41c-27-11.9-63-2.08-70.06,31.32-8.7,41,18.34,85.36,54.22,102.62s105,6.47,122.77-12.92C1930.43,1394,1842.52,1324.08,1795.57,1303.41Z" transform="translate(-970.83 -303.42)"/><path class="cls-7" d="M1886.49,1389.92s-22.47.08-31.89-5.25-30.88-36.41-30.88-36.41c-36.64-19.53-78.7-12.37-76.84,19.08,5.87-14.75,16-21,31.36-22.14s39.34,7.84,41.2,9.19c6.16,11.7,26.46,31.4,26.46,31.4-8.4,17.54-11.61,20.6-11.61,20.6.39-16.7,21.2-13.87,21.2-13.87C1870.2,1395.53,1886.49,1389.92,1886.49,1389.92Z" transform="translate(-970.83 -303.42)"/><path class="cls-7" d="M1784.16,1345.64c15.55,4.14-11,27.84,6.73,51s76.92,16.65,77.57,7.35-3.51-13.36-3.51-13.36l-19.58-7.08-25.78-31.67S1793.69,1344.36,1784.16,1345.64Z" transform="translate(-970.83 -303.42)"/><path class="cls-11" d="M2418.73,905.78l-6.93-73.19,45.91-34.27,106.51,13.93-10.85,98.18Zm122.08-120.55-92.35-60.31,56-141.89,132.91-38.43L2590,434.34l-109.09,24.87,1.64,107.09L2367,575.79l-11-98.53,53.93-153.78,236.7-20.06,97.8,105.28-37.5,243.41-129.81,38.7Z" transform="translate(-970.83 -303.42)"/><path class="cls-11" d="M2623.46,1699.67l6.33-51.57,36.89-16.67,71.4,25.77-22.41,66.12ZM2726,1635l-54.57-55.64,60.21-89.42,97.56-6.35-16-83.3-79.07.61L2719,1475.06l-81.21-11,7.39-69.66,60.56-98,166.41,22.09,51.51,87.5-62.82,162.3-95.48,7Z" transform="translate(-970.83 -303.42)"/><path class="cls-11" d="M1405.88,1575.94l-89.5,2.67-28.52-120.53,70.71-87.28-82.76-51.46-61.14,67.2,50.78,70.58-72.59,60-53-60.55L1104.4,1329l148.39-123.2,114,24.75,88,179.58-68.53,86Zm-25.39,137-38.57-45.56,14.68-44.13,77.42-40.14,38.33,70.45Z" transform="translate(-970.83 -303.42)"/><path class="cls-6" d="M2586.85,2399.89l-39.47,13.46s-1.44,3.87,4.31,7.52c0,0-2.87,8.74,6.35,10.43,0,0-.71,10.81,6.15,10.37l28-33.23A12.31,12.31,0,0,1,2586.85,2399.89Z" transform="translate(-970.83 -303.42)"/><path class="cls-10" d="M2586.85,2399.89a12.31,12.31,0,0,0,5.34,8.55l12.26-14.55Z" transform="translate(-970.83 -303.42)"/></g></svg>