<?xml version="1.0" encoding="utf-8"?>
<!-- Generator: Adobe Illustrator 25.3.1, SVG Export Plug-In . SVG Version: 6.00 Build 0)  -->
<svg version="1.1" id="Layer_1" xmlns="http://www.w3.org/2000/svg" xmlns:xlink="http://www.w3.org/1999/xlink" x="0px" y="0px"
	 viewBox="0 0 25 17" style="enable-background:new 0 0 25 17;" xml:space="preserve">
<style type="text/css">
	.st0{fill:#4D7DFF;}
	.st1{fill:#5180FF;}
	.st2{fill:#5987FF;}
	.st3{fill:#6490FF;}
	.st4{fill:#80A7FF;}
	.st5{fill:#ACCAFF;}
	.st6{fill:#B5D2FF;}
	.st7{fill:#9DBFFF;}
	.st8{fill:#83AAFF;}
	.st9{fill:#78A2FF;}
	.st10{fill:#719BFF;}
	.st11{fill:#6A95FF;}
	.st12{fill:#86ACFF;}
	.st13{fill:#608DFF;}
	.st14{fill:#5383FF;}
	.st15{fill:#4877FF;}
	.st16{fill:#3F70FF;}
	.st17{fill:#3C6DFF;}
	.st18{fill:#3969FF;}
	.st19{fill:#3462FF;}
	.st20{fill:#3766FF;}
	.st21{fill:#4A7AFF;}
	.st22{fill:#6692FF;}
	.st23{fill:#749DFF;}
	.st24{fill:#BED7FF;}
	.st25{fill:#A9C8FF;}
	.st26{fill:#E7F7FF;}
	.st27{fill:#95B8FF;}
	.st28{fill:#B1CEFF;}
	.st29{fill:#8AB0FF;}
	.st30{fill:#4474FF;}
	.st31{fill:#FFFFFF;}
	.st32{fill:#F9FFFF;}
	.st33{fill:#EDFBFF;}
	.st34{fill:#7BA4FF;}
	.st35{fill:#6D98FF;}
	.st36{fill:#4171FF;}
	.st37{fill:#315EFF;}
	.st38{fill:#8DB3FF;}
	.st39{fill:#CEE5FF;}
	.st40{fill:#C8E1FF;}
	.st41{fill:#D5EBFF;}
	.st42{fill:#C1DBFF;}
	.st43{fill:#5D8AFF;}
	.st44{fill:#A5C5FF;}
	.st45{fill:#A0C1FF;}
	.st46{fill:#DBEFFF;}
	.st47{fill:#FDFFFF;}
	.st48{fill:#B8D4FF;}
	.st49{fill:#2751F9;}
	.st50{fill:#5786FF;}
	.st51{fill:#DFF1FF;}
	.st52{fill:#F1FFFF;}
	.st53{fill:#98BCFF;}
	.st54{fill:#E3F5FF;}
	.st55{fill:#D2E7FF;}
	.st56{fill:#92B6FF;}
	.st57{fill:#C5DDFF;}
	.st58{fill:#F5FFFF;}
	.st59{fill:url(#SVGID_1_);}
</style>
<g>
	<g>
		<g>
			<polygon class="st0" points="25,16.06 23.96,16.06 24.62,17 25,17 			"/>
			<polygon class="st1" points="23.4,17 24.62,17 23.96,16.06 22.73,16.06 			"/>
			<polygon class="st2" points="22.17,17 23.4,17 22.73,16.06 21.51,16.06 			"/>
			<polygon class="st3" points="20.95,17 22.17,17 21.51,16.06 20.28,16.06 			"/>
			<polygon class="st4" points="19.72,17 20.95,17 20.28,16.06 19.06,16.06 			"/>
			<polygon class="st5" points="18.5,17 19.72,17 19.06,16.06 17.83,16.06 			"/>
			<polygon class="st6" points="17.27,17 18.5,17 17.83,16.06 16.61,16.06 			"/>
			<polygon class="st7" points="16.05,17 17.27,17 16.61,16.06 15.39,16.06 			"/>
			<polygon class="st8" points="14.82,17 16.05,17 15.39,16.06 14.16,16.06 			"/>
			<polygon class="st9" points="13.6,17 14.82,17 14.16,16.06 12.94,16.06 			"/>
			<polygon class="st10" points="12.37,17 13.6,17 12.94,16.06 11.71,16.06 			"/>
			<polygon class="st11" points="11.15,17 12.37,17 11.71,16.06 10.49,16.06 			"/>
			<polygon class="st12" points="9.92,17 11.15,17 10.49,16.06 9.26,16.06 			"/>
			<polygon class="st13" points="8.7,17 9.92,17 9.26,16.06 8.04,16.06 			"/>
			<polygon class="st14" points="7.47,17 8.7,17 8.04,16.06 6.81,16.06 			"/>
			<polygon class="st15" points="6.25,17 7.47,17 6.81,16.06 5.59,16.06 			"/>
			<polygon class="st1" points="5.02,17 6.25,17 5.59,16.06 4.36,16.06 			"/>
			<polygon class="st16" points="3.8,17 5.02,17 4.36,16.06 3.14,16.06 			"/>
			<polygon class="st17" points="2.57,17 3.8,17 3.14,16.06 1.91,16.06 			"/>
			<polygon class="st0" points="1.35,17 2.57,17 1.91,16.06 0.69,16.06 			"/>
			<polygon class="st18" points="0.69,16.06 0,16.06 0,16.83 0.12,17 1.35,17 			"/>
			<polygon class="st19" points="25,15.11 24.52,15.11 25,15.79 			"/>
			<polygon class="st20" points="25,15.79 24.52,15.11 23.3,15.11 23.96,16.06 25,16.06 			"/>
			<polygon class="st20" points="22.73,16.06 23.96,16.06 23.3,15.11 22.07,15.11 			"/>
			<polygon class="st21" points="21.51,16.06 22.73,16.06 22.07,15.11 20.85,15.11 			"/>
			<polygon class="st22" points="20.28,16.06 21.51,16.06 20.85,15.11 19.62,15.11 			"/>
			<polygon class="st23" points="19.06,16.06 20.28,16.06 19.62,15.11 18.4,15.11 			"/>
			<polygon class="st7" points="17.83,16.06 19.06,16.06 18.4,15.11 17.17,15.11 			"/>
			<polygon class="st24" points="16.61,16.06 17.83,16.06 17.17,15.11 15.95,15.11 			"/>
			<polygon class="st25" points="15.39,16.06 16.61,16.06 15.95,15.11 14.72,15.11 			"/>
			<polygon class="st26" points="14.16,16.06 15.39,16.06 14.72,15.11 13.5,15.11 			"/>
			<polygon class="st4" points="12.94,16.06 14.16,16.06 13.5,15.11 12.27,15.11 			"/>
			<polygon class="st12" points="11.71,16.06 12.94,16.06 12.27,15.11 11.05,15.11 			"/>
			<polygon class="st27" points="10.49,16.06 11.71,16.06 11.05,15.11 9.82,15.11 			"/>
			<polygon class="st28" points="9.26,16.06 10.49,16.06 9.82,15.11 8.6,15.11 			"/>
			<polygon class="st23" points="8.04,16.06 9.26,16.06 8.6,15.11 7.37,15.11 			"/>
			<polygon class="st4" points="6.81,16.06 8.04,16.06 7.37,15.11 6.15,15.11 			"/>
			<polygon class="st22" points="5.59,16.06 6.81,16.06 6.15,15.11 4.92,15.11 			"/>
			<polygon class="st25" points="4.36,16.06 5.59,16.06 4.92,15.11 3.7,15.11 			"/>
			<polygon class="st10" points="3.14,16.06 4.36,16.06 3.7,15.11 2.47,15.11 			"/>
			<polygon class="st29" points="1.91,16.06 3.14,16.06 2.47,15.11 1.25,15.11 			"/>
			<polygon class="st30" points="0.69,16.06 1.91,16.06 1.25,15.11 0.02,15.11 			"/>
			<polygon class="st20" points="0,16.06 0.69,16.06 0.02,15.11 0,15.11 			"/>
			<polygon class="st19" points="25,14.17 23.86,14.17 24.52,15.11 25,15.11 			"/>
			<polygon class="st16" points="23.3,15.11 24.52,15.11 23.86,14.17 22.64,14.17 			"/>
			<polygon class="st1" points="22.07,15.11 23.3,15.11 22.64,14.17 21.41,14.17 			"/>
			<polygon class="st21" points="20.85,15.11 22.07,15.11 21.41,14.17 20.19,14.17 			"/>
			<polygon class="st1" points="19.62,15.11 20.85,15.11 20.19,14.17 18.96,14.17 			"/>
			<polygon class="st2" points="18.4,15.11 19.62,15.11 18.96,14.17 17.74,14.17 			"/>
			<polygon class="st4" points="17.17,15.11 18.4,15.11 17.74,14.17 16.51,14.17 			"/>
			<polygon class="st26" points="15.95,15.11 17.17,15.11 16.51,14.17 15.29,14.17 			"/>
			<polygon class="st25" points="14.72,15.11 15.95,15.11 15.29,14.17 14.06,14.17 			"/>
			<polygon class="st31" points="13.5,15.11 14.72,15.11 14.06,14.17 12.84,14.17 			"/>
			<polygon class="st28" points="12.27,15.11 13.5,15.11 12.84,14.17 11.61,14.17 			"/>
			<polygon class="st31" points="11.05,15.11 12.27,15.11 11.61,14.17 10.39,14.17 			"/>
			<polygon class="st32" points="9.82,15.11 11.05,15.11 10.39,14.17 9.16,14.17 			"/>
			<polygon class="st33" points="8.6,15.11 9.82,15.11 9.16,14.17 7.94,14.17 			"/>
			<polygon class="st29" points="7.37,15.11 8.6,15.11 7.94,14.17 6.71,14.17 			"/>
			<polygon class="st34" points="6.15,15.11 7.37,15.11 6.71,14.17 5.49,14.17 			"/>
			<polygon class="st34" points="4.92,15.11 6.15,15.11 5.49,14.17 4.26,14.17 			"/>
			<polygon class="st11" points="3.7,15.11 4.92,15.11 4.26,14.17 3.04,14.17 			"/>
			<polygon class="st3" points="2.47,15.11 3.7,15.11 3.04,14.17 1.81,14.17 			"/>
			<polygon class="st35" points="1.25,15.11 2.47,15.11 1.81,14.17 0.59,14.17 			"/>
			<polygon class="st36" points="0.59,14.17 0,14.17 0,15.08 0.02,15.11 1.25,15.11 			"/>
			<polygon class="st37" points="25,13.22 24.42,13.22 25,14.04 			"/>
			<polygon class="st16" points="25,14.04 24.42,13.22 23.2,13.22 23.86,14.17 25,14.17 			"/>
			<polygon class="st17" points="22.64,14.17 23.86,14.17 23.2,13.22 21.97,13.22 			"/>
			<polygon class="st30" points="21.41,14.17 22.64,14.17 21.97,13.22 20.75,13.22 			"/>
			<polygon class="st36" points="20.19,14.17 21.41,14.17 20.75,13.22 19.52,13.22 			"/>
			<polygon class="st11" points="18.96,14.17 20.19,14.17 19.52,13.22 18.3,13.22 			"/>
			<polygon class="st38" points="17.74,14.17 18.96,14.17 18.3,13.22 17.07,13.22 			"/>
			<polygon class="st4" points="16.51,14.17 17.74,14.17 17.07,13.22 15.85,13.22 			"/>
			<polygon class="st39" points="15.29,14.17 16.51,14.17 15.85,13.22 14.62,13.22 			"/>
			<polygon class="st40" points="14.06,14.17 15.29,14.17 14.62,13.22 13.4,13.22 			"/>
			<polygon class="st6" points="12.84,14.17 14.06,14.17 13.4,13.22 12.17,13.22 			"/>
			<polygon class="st26" points="11.61,14.17 12.84,14.17 12.17,13.22 10.95,13.22 			"/>
			<polygon class="st33" points="10.39,14.17 11.61,14.17 10.95,13.22 9.72,13.22 			"/>
			<polygon class="st31" points="9.16,14.17 10.39,14.17 9.72,13.22 8.5,13.22 			"/>
			<polygon class="st41" points="7.94,14.17 9.16,14.17 8.5,13.22 7.27,13.22 			"/>
			<polygon class="st42" points="6.71,14.17 7.94,14.17 7.27,13.22 6.05,13.22 			"/>
			<polygon class="st43" points="5.49,14.17 6.71,14.17 6.05,13.22 4.82,13.22 			"/>
			<polygon class="st25" points="4.26,14.17 5.49,14.17 4.82,13.22 3.6,13.22 			"/>
			<polygon class="st41" points="3.04,14.17 4.26,14.17 3.6,13.22 2.37,13.22 			"/>
			<polygon class="st44" points="1.81,14.17 3.04,14.17 2.37,13.22 1.15,13.22 			"/>
			<polygon class="st11" points="1.15,13.22 0,13.22 0,13.33 0.59,14.17 1.81,14.17 			"/>
			<polygon class="st15" points="0,13.33 0,14.17 0.59,14.17 			"/>
			<polygon class="st37" points="25,12.3 24.99,12.28 23.76,12.28 24.42,13.22 25,13.22 			"/>
			<polygon class="st19" points="23.2,13.22 24.42,13.22 23.76,12.28 22.54,12.28 			"/>
			<polygon class="st19" points="21.97,13.22 23.2,13.22 22.54,12.28 21.31,12.28 			"/>
			<polygon class="st1" points="20.75,13.22 21.97,13.22 21.31,12.28 20.09,12.28 			"/>
			<polygon class="st2" points="19.52,13.22 20.75,13.22 20.09,12.28 18.86,12.28 			"/>
			<polygon class="st7" points="18.3,13.22 19.52,13.22 18.86,12.28 17.64,12.28 			"/>
			<polygon class="st44" points="17.07,13.22 18.3,13.22 17.64,12.28 16.41,12.28 			"/>
			<polygon class="st12" points="15.85,13.22 17.07,13.22 16.41,12.28 15.19,12.28 			"/>
			<polygon class="st45" points="14.62,13.22 15.85,13.22 15.19,12.28 13.96,12.28 			"/>
			<polygon class="st7" points="13.4,13.22 14.62,13.22 13.96,12.28 12.74,12.28 			"/>
			<polygon class="st6" points="12.17,13.22 13.4,13.22 12.74,12.28 11.51,12.28 			"/>
			<polygon class="st40" points="10.95,13.22 12.17,13.22 11.51,12.28 10.29,12.28 			"/>
			<polygon class="st46" points="9.72,13.22 10.95,13.22 10.29,12.28 9.06,12.28 			"/>
			<polygon class="st47" points="8.5,13.22 9.72,13.22 9.06,12.28 7.84,12.28 			"/>
			<polygon class="st31" points="7.27,13.22 8.5,13.22 7.84,12.28 6.61,12.28 			"/>
			<polygon class="st25" points="6.05,13.22 7.27,13.22 6.61,12.28 5.39,12.28 			"/>
			<polygon class="st8" points="4.82,13.22 6.05,13.22 5.39,12.28 4.16,12.28 			"/>
			<polygon class="st48" points="3.6,13.22 4.82,13.22 4.16,12.28 2.94,12.28 			"/>
			<polygon class="st32" points="2.37,13.22 3.6,13.22 2.94,12.28 1.71,12.28 			"/>
			<polygon class="st31" points="1.15,13.22 2.37,13.22 1.71,12.28 0.49,12.28 			"/>
			<polygon class="st39" points="0,13.22 1.15,13.22 0.49,12.28 0,12.28 			"/>
			<polygon class="st49" points="25,11.33 24.32,11.33 24.99,12.28 25,12.28 			"/>
			<polygon class="st17" points="23.76,12.28 24.99,12.28 24.32,11.33 23.1,11.33 			"/>
			<polygon class="st30" points="22.54,12.28 23.76,12.28 23.1,11.33 21.87,11.33 			"/>
			<polygon class="st21" points="21.31,12.28 22.54,12.28 21.87,11.33 20.65,11.33 			"/>
			<polygon class="st22" points="20.09,12.28 21.31,12.28 20.65,11.33 19.42,11.33 			"/>
			<polygon class="st50" points="18.86,12.28 20.09,12.28 19.42,11.33 18.2,11.33 			"/>
			<polygon class="st13" points="17.64,12.28 18.86,12.28 18.2,11.33 16.98,11.33 			"/>
			<polygon class="st8" points="16.41,12.28 17.64,12.28 16.98,11.33 15.75,11.33 			"/>
			<polygon class="st12" points="15.19,12.28 16.41,12.28 15.75,11.33 14.53,11.33 			"/>
			<polygon class="st5" points="13.96,12.28 15.19,12.28 14.53,11.33 13.3,11.33 			"/>
			<polygon class="st41" points="12.74,12.28 13.96,12.28 13.3,11.33 12.08,11.33 			"/>
			<polygon class="st38" points="11.51,12.28 12.74,12.28 12.08,11.33 10.85,11.33 			"/>
			<polygon class="st51" points="10.29,12.28 11.51,12.28 10.85,11.33 9.63,11.33 			"/>
			<polygon class="st51" points="9.06,12.28 10.29,12.28 9.63,11.33 8.4,11.33 			"/>
			<polygon class="st31" points="7.84,12.28 9.06,12.28 8.4,11.33 7.18,11.33 			"/>
			<polygon class="st52" points="6.61,12.28 7.84,12.28 7.18,11.33 5.95,11.33 			"/>
			<polygon class="st47" points="5.39,12.28 6.61,12.28 5.95,11.33 4.73,11.33 			"/>
			<polygon class="st51" points="4.16,12.28 5.39,12.28 4.73,11.33 3.5,11.33 			"/>
			<polygon class="st26" points="2.94,12.28 4.16,12.28 3.5,11.33 2.28,11.33 			"/>
			<polygon class="st31" points="1.71,12.28 2.94,12.28 2.28,11.33 1.05,11.33 			"/>
			<polygon class="st33" points="1.05,11.33 0,11.33 0,11.58 0.49,12.28 1.71,12.28 			"/>
			<polygon class="st31" points="0,11.58 0,12.28 0.49,12.28 			"/>
			<polygon class="st15" points="25,10.39 24.89,10.39 25,10.55 			"/>
			<polygon class="st15" points="25,10.55 24.89,10.39 23.66,10.39 24.32,11.33 25,11.33 			"/>
			<polygon class="st16" points="23.1,11.33 24.32,11.33 23.66,10.39 22.44,10.39 			"/>
			<polygon class="st36" points="21.87,11.33 23.1,11.33 22.44,10.39 21.21,10.39 			"/>
			<polygon class="st0" points="20.65,11.33 21.87,11.33 21.21,10.39 19.99,10.39 			"/>
			<polygon class="st13" points="19.42,11.33 20.65,11.33 19.99,10.39 18.76,10.39 			"/>
			<polygon class="st50" points="18.2,11.33 19.42,11.33 18.76,10.39 17.54,10.39 			"/>
			<polygon class="st8" points="16.98,11.33 18.2,11.33 17.54,10.39 16.31,10.39 			"/>
			<polygon class="st29" points="15.75,11.33 16.98,11.33 16.31,10.39 15.09,10.39 			"/>
			<polygon class="st10" points="14.53,11.33 15.75,11.33 15.09,10.39 13.86,10.39 			"/>
			<polygon class="st53" points="13.3,11.33 14.53,11.33 13.86,10.39 12.64,10.39 			"/>
			<polygon class="st42" points="12.08,11.33 13.3,11.33 12.64,10.39 11.41,10.39 			"/>
			<polygon class="st24" points="10.85,11.33 12.08,11.33 11.41,10.39 10.19,10.39 			"/>
			<polygon class="st42" points="9.63,11.33 10.85,11.33 10.19,10.39 8.96,10.39 			"/>
			<polygon class="st31" points="8.4,11.33 9.63,11.33 8.96,10.39 7.74,10.39 			"/>
			<polygon class="st41" points="7.18,11.33 8.4,11.33 7.74,10.39 6.51,10.39 			"/>
			<polygon class="st31" points="5.95,11.33 7.18,11.33 6.51,10.39 5.29,10.39 			"/>
			<polygon class="st31" points="4.73,11.33 5.95,11.33 5.29,10.39 4.06,10.39 			"/>
			<polygon class="st33" points="3.5,11.33 4.73,11.33 4.06,10.39 2.84,10.39 			"/>
			<polygon class="st31" points="2.28,11.33 3.5,11.33 2.84,10.39 1.61,10.39 			"/>
			<polygon class="st31" points="1.05,11.33 2.28,11.33 1.61,10.39 0.39,10.39 			"/>
			<polygon class="st54" points="0,11.33 1.05,11.33 0.39,10.39 0,10.39 			"/>
			<polygon class="st1" points="25,9.44 24.23,9.44 24.89,10.39 25,10.39 			"/>
			<polygon class="st36" points="23.66,10.39 24.89,10.39 24.23,9.44 23,9.44 			"/>
			<polygon class="st0" points="22.44,10.39 23.66,10.39 23,9.44 21.78,9.44 			"/>
			<polygon class="st1" points="21.21,10.39 22.44,10.39 21.78,9.44 20.55,9.44 			"/>
			<polygon class="st11" points="19.99,10.39 21.21,10.39 20.55,9.44 19.33,9.44 			"/>
			<polygon class="st34" points="18.76,10.39 19.99,10.39 19.33,9.44 18.1,9.44 			"/>
			<polygon class="st2" points="17.54,10.39 18.76,10.39 18.1,9.44 16.88,9.44 			"/>
			<polygon class="st4" points="16.31,10.39 17.54,10.39 16.88,9.44 15.65,9.44 			"/>
			<polygon class="st45" points="15.09,10.39 16.31,10.39 15.65,9.44 14.43,9.44 			"/>
			<polygon class="st8" points="13.86,10.39 15.09,10.39 14.43,9.44 13.2,9.44 			"/>
			<polygon class="st6" points="12.64,10.39 13.86,10.39 13.2,9.44 11.98,9.44 			"/>
			<polygon class="st55" points="11.41,10.39 12.64,10.39 11.98,9.44 10.75,9.44 			"/>
			<polygon class="st45" points="10.19,10.39 11.41,10.39 10.75,9.44 9.53,9.44 			"/>
			<polygon class="st54" points="8.96,10.39 10.19,10.39 9.53,9.44 8.3,9.44 			"/>
			<polygon class="st31" points="7.74,10.39 8.96,10.39 8.3,9.44 7.08,9.44 			"/>
			<polygon class="st31" points="6.51,10.39 7.74,10.39 7.08,9.44 5.85,9.44 			"/>
			<polygon class="st31" points="5.29,10.39 6.51,10.39 5.85,9.44 4.63,9.44 			"/>
			<polygon class="st31" points="4.06,10.39 5.29,10.39 4.63,9.44 3.4,9.44 			"/>
			<polygon class="st31" points="2.84,10.39 4.06,10.39 3.4,9.44 2.18,9.44 			"/>
			<polygon class="st31" points="1.61,10.39 2.84,10.39 2.18,9.44 0.95,9.44 			"/>
			<polygon class="st31" points="0.95,9.44 0,9.44 0,9.83 0.39,10.39 1.61,10.39 			"/>
			<polygon class="st31" points="0,9.83 0,10.39 0.39,10.39 			"/>
			<polygon class="st15" points="25,8.5 24.79,8.5 25,8.8 			"/>
			<polygon class="st15" points="25,8.8 24.79,8.5 23.56,8.5 24.23,9.44 25,9.44 			"/>
			<polygon class="st13" points="23,9.44 24.23,9.44 23.56,8.5 22.34,8.5 			"/>
			<polygon class="st15" points="21.78,9.44 23,9.44 22.34,8.5 21.11,8.5 			"/>
			<polygon class="st43" points="20.55,9.44 21.78,9.44 21.11,8.5 19.89,8.5 			"/>
			<polygon class="st13" points="19.33,9.44 20.55,9.44 19.89,8.5 18.66,8.5 			"/>
			<polygon class="st34" points="18.1,9.44 19.33,9.44 18.66,8.5 17.44,8.5 			"/>
			<polygon class="st34" points="16.88,9.44 18.1,9.44 17.44,8.5 16.21,8.5 			"/>
			<polygon class="st53" points="15.65,9.44 16.88,9.44 16.21,8.5 14.99,8.5 			"/>
			<polygon class="st11" points="14.43,9.44 15.65,9.44 14.99,8.5 13.76,8.5 			"/>
			<polygon class="st29" points="13.2,9.44 14.43,9.44 13.76,8.5 12.54,8.5 			"/>
			<polygon class="st40" points="11.98,9.44 13.2,9.44 12.54,8.5 11.31,8.5 			"/>
			<polygon class="st39" points="10.75,9.44 11.98,9.44 11.31,8.5 10.09,8.5 			"/>
			<polygon class="st31" points="9.53,9.44 10.75,9.44 10.09,8.5 8.86,8.5 			"/>
			<polygon class="st32" points="8.3,9.44 9.53,9.44 8.86,8.5 7.64,8.5 			"/>
			<polygon class="st31" points="7.08,9.44 8.3,9.44 7.64,8.5 6.41,8.5 			"/>
			<polygon class="st47" points="5.85,9.44 7.08,9.44 6.41,8.5 5.19,8.5 			"/>
			<polygon class="st31" points="4.63,9.44 5.85,9.44 5.19,8.5 3.96,8.5 			"/>
			<polygon class="st31" points="3.4,9.44 4.63,9.44 3.96,8.5 2.74,8.5 			"/>
			<polygon class="st31" points="2.18,9.44 3.4,9.44 2.74,8.5 1.51,8.5 			"/>
			<polygon class="st31" points="0.95,9.44 2.18,9.44 1.51,8.5 0.29,8.5 			"/>
			<polygon class="st31" points="0,9.44 0.95,9.44 0.29,8.5 0,8.5 			"/>
			<polygon class="st43" points="25,7.56 24.13,7.56 24.79,8.5 25,8.5 			"/>
			<polygon class="st13" points="23.56,8.5 24.79,8.5 24.13,7.56 22.9,7.56 			"/>
			<polygon class="st21" points="22.34,8.5 23.56,8.5 22.9,7.56 21.68,7.56 			"/>
			<polygon class="st50" points="21.11,8.5 22.34,8.5 21.68,7.56 20.45,7.56 			"/>
			<polygon class="st2" points="19.89,8.5 21.11,8.5 20.45,7.56 19.23,7.56 			"/>
			<polygon class="st45" points="18.66,8.5 19.89,8.5 19.23,7.56 18,7.56 			"/>
			<polygon class="st38" points="17.44,8.5 18.66,8.5 18,7.56 16.78,7.56 			"/>
			<polygon class="st10" points="16.21,8.5 17.44,8.5 16.78,7.56 15.55,7.56 			"/>
			<polygon class="st56" points="14.99,8.5 16.21,8.5 15.55,7.56 14.33,7.56 			"/>
			<polygon class="st23" points="13.76,8.5 14.99,8.5 14.33,7.56 13.1,7.56 			"/>
			<polygon class="st38" points="12.54,8.5 13.76,8.5 13.1,7.56 11.88,7.56 			"/>
			<polygon class="st40" points="11.31,8.5 12.54,8.5 11.88,7.56 10.65,7.56 			"/>
			<polygon class="st41" points="10.09,8.5 11.31,8.5 10.65,7.56 9.43,7.56 			"/>
			<polygon class="st54" points="8.86,8.5 10.09,8.5 9.43,7.56 8.2,7.56 			"/>
			<polygon class="st56" points="7.64,8.5 8.86,8.5 8.2,7.56 6.98,7.56 			"/>
			<polygon class="st31" points="6.41,8.5 7.64,8.5 6.98,7.56 5.75,7.56 			"/>
			<polygon class="st31" points="5.19,8.5 6.41,8.5 5.75,7.56 4.53,7.56 			"/>
			<polygon class="st31" points="3.96,8.5 5.19,8.5 4.53,7.56 3.3,7.56 			"/>
			<polygon class="st31" points="2.74,8.5 3.96,8.5 3.3,7.56 2.08,7.56 			"/>
			<polygon class="st31" points="1.51,8.5 2.74,8.5 2.08,7.56 0.85,7.56 			"/>
			<polygon class="st31" points="0.85,7.56 0,7.56 0,8.09 0.29,8.5 1.51,8.5 			"/>
			<polygon class="st31" points="0,8.09 0,8.5 0.29,8.5 			"/>
			<polygon class="st36" points="25,6.61 24.69,6.61 25,7.05 			"/>
			<polygon class="st50" points="25,7.05 24.69,6.61 23.46,6.61 24.13,7.56 25,7.56 			"/>
			<polygon class="st22" points="22.9,7.56 24.13,7.56 23.46,6.61 22.24,6.61 			"/>
			<polygon class="st3" points="21.68,7.56 22.9,7.56 22.24,6.61 21.01,6.61 			"/>
			<polygon class="st15" points="20.45,7.56 21.68,7.56 21.01,6.61 19.79,6.61 			"/>
			<polygon class="st13" points="19.23,7.56 20.45,7.56 19.79,6.61 18.57,6.61 			"/>
			<polygon class="st11" points="18,7.56 19.23,7.56 18.57,6.61 17.34,6.61 			"/>
			<polygon class="st12" points="16.78,7.56 18,7.56 17.34,6.61 16.12,6.61 			"/>
			<polygon class="st56" points="15.55,7.56 16.78,7.56 16.12,6.61 14.89,6.61 			"/>
			<polygon class="st5" points="14.33,7.56 15.55,7.56 14.89,6.61 13.67,6.61 			"/>
			<polygon class="st23" points="13.1,7.56 14.33,7.56 13.67,6.61 12.44,6.61 			"/>
			<polygon class="st45" points="11.88,7.56 13.1,7.56 12.44,6.61 11.22,6.61 			"/>
			<polygon class="st42" points="10.65,7.56 11.88,7.56 11.22,6.61 9.99,6.61 			"/>
			<polygon class="st46" points="9.43,7.56 10.65,7.56 9.99,6.61 8.77,6.61 			"/>
			<polygon class="st41" points="8.2,7.56 9.43,7.56 8.77,6.61 7.54,6.61 			"/>
			<polygon class="st41" points="6.98,7.56 8.2,7.56 7.54,6.61 6.32,6.61 			"/>
			<polygon class="st31" points="5.75,7.56 6.98,7.56 6.32,6.61 5.09,6.61 			"/>
			<polygon class="st31" points="4.53,7.56 5.75,7.56 5.09,6.61 3.87,6.61 			"/>
			<polygon class="st31" points="3.3,7.56 4.53,7.56 3.87,6.61 2.64,6.61 			"/>
			<polygon class="st31" points="2.08,7.56 3.3,7.56 2.64,6.61 1.42,6.61 			"/>
			<polygon class="st31" points="0.85,7.56 2.08,7.56 1.42,6.61 0.19,6.61 			"/>
			<polygon class="st31" points="0,7.56 0.85,7.56 0.19,6.61 0,6.61 			"/>
			<polygon class="st15" points="25,5.67 24.03,5.67 24.69,6.61 25,6.61 			"/>
			<polygon class="st50" points="23.46,6.61 24.69,6.61 24.03,5.67 22.8,5.67 			"/>
			<polygon class="st13" points="22.24,6.61 23.46,6.61 22.8,5.67 21.58,5.67 			"/>
			<polygon class="st43" points="21.01,6.61 22.24,6.61 21.58,5.67 20.35,5.67 			"/>
			<polygon class="st43" points="19.79,6.61 21.01,6.61 20.35,5.67 19.13,5.67 			"/>
			<polygon class="st12" points="18.57,6.61 19.79,6.61 19.13,5.67 17.9,5.67 			"/>
			<polygon class="st35" points="17.34,6.61 18.57,6.61 17.9,5.67 16.68,5.67 			"/>
			<polygon class="st46" points="16.12,6.61 17.34,6.61 16.68,5.67 15.45,5.67 			"/>
			<polygon class="st5" points="14.89,6.61 16.12,6.61 15.45,5.67 14.23,5.67 			"/>
			<polygon class="st53" points="13.67,6.61 14.89,6.61 14.23,5.67 13,5.67 			"/>
			<polygon class="st48" points="12.44,6.61 13.67,6.61 13,5.67 11.78,5.67 			"/>
			<polygon class="st24" points="11.22,6.61 12.44,6.61 11.78,5.67 10.55,5.67 			"/>
			<polygon class="st48" points="9.99,6.61 11.22,6.61 10.55,5.67 9.33,5.67 			"/>
			<polygon class="st48" points="8.77,6.61 9.99,6.61 9.33,5.67 8.1,5.67 			"/>
			<polygon class="st31" points="7.54,6.61 8.77,6.61 8.1,5.67 6.88,5.67 			"/>
			<polygon class="st55" points="6.32,6.61 7.54,6.61 6.88,5.67 5.65,5.67 			"/>
			<polygon class="st31" points="5.09,6.61 6.32,6.61 5.65,5.67 4.43,5.67 			"/>
			<polygon class="st31" points="3.87,6.61 5.09,6.61 4.43,5.67 3.2,5.67 			"/>
			<polygon class="st31" points="2.64,6.61 3.87,6.61 3.2,5.67 1.98,5.67 			"/>
			<polygon class="st31" points="1.42,6.61 2.64,6.61 1.98,5.67 0.75,5.67 			"/>
			<polygon class="st31" points="0.75,5.67 0,5.67 0,6.34 0.19,6.61 1.42,6.61 			"/>
			<polygon class="st31" points="0,6.34 0,6.61 0.19,6.61 			"/>
			<polygon class="st14" points="25,4.72 24.59,4.72 25,5.31 			"/>
			<polygon class="st15" points="25,5.31 24.59,4.72 23.37,4.72 24.03,5.67 25,5.67 			"/>
			<polygon class="st14" points="22.8,5.67 24.03,5.67 23.37,4.72 22.14,4.72 			"/>
			<polygon class="st11" points="21.58,5.67 22.8,5.67 22.14,4.72 20.92,4.72 			"/>
			<polygon class="st22" points="20.35,5.67 21.58,5.67 20.92,4.72 19.69,4.72 			"/>
			<polygon class="st13" points="19.13,5.67 20.35,5.67 19.69,4.72 18.47,4.72 			"/>
			<polygon class="st13" points="17.9,5.67 19.13,5.67 18.47,4.72 17.24,4.72 			"/>
			<polygon class="st38" points="16.68,5.67 17.9,5.67 17.24,4.72 16.02,4.72 			"/>
			<polygon class="st31" points="15.45,5.67 16.68,5.67 16.02,4.72 14.79,4.72 			"/>
			<polygon class="st45" points="14.23,5.67 15.45,5.67 14.79,4.72 13.57,4.72 			"/>
			<polygon class="st6" points="13,5.67 14.23,5.67 13.57,4.72 12.34,4.72 			"/>
			<polygon class="st53" points="11.78,5.67 13,5.67 12.34,4.72 11.12,4.72 			"/>
			<polygon class="st41" points="10.55,5.67 11.78,5.67 11.12,4.72 9.89,4.72 			"/>
			<polygon class="st57" points="9.33,5.67 10.55,5.67 9.89,4.72 8.67,4.72 			"/>
			<polygon class="st24" points="8.1,5.67 9.33,5.67 8.67,4.72 7.44,4.72 			"/>
			<polygon class="st54" points="6.88,5.67 8.1,5.67 7.44,4.72 6.22,4.72 			"/>
			<polygon class="st31" points="5.65,5.67 6.88,5.67 6.22,4.72 4.99,4.72 			"/>
			<polygon class="st31" points="4.43,5.67 5.65,5.67 4.99,4.72 3.77,4.72 			"/>
			<polygon class="st31" points="3.2,5.67 4.43,5.67 3.77,4.72 2.54,4.72 			"/>
			<polygon class="st31" points="1.98,5.67 3.2,5.67 2.54,4.72 1.32,4.72 			"/>
			<polygon class="st31" points="0.75,5.67 1.98,5.67 1.32,4.72 0.09,4.72 			"/>
			<polygon class="st31" points="0,5.67 0.75,5.67 0.09,4.72 0,4.72 			"/>
			<polygon class="st50" points="25,3.78 23.93,3.78 24.59,4.72 25,4.72 			"/>
			<polygon class="st21" points="23.37,4.72 24.59,4.72 23.93,3.78 22.7,3.78 			"/>
			<polygon class="st21" points="22.14,4.72 23.37,4.72 22.7,3.78 21.48,3.78 			"/>
			<polygon class="st2" points="20.92,4.72 22.14,4.72 21.48,3.78 20.25,3.78 			"/>
			<polygon class="st23" points="19.69,4.72 20.92,4.72 20.25,3.78 19.03,3.78 			"/>
			<polygon class="st10" points="18.47,4.72 19.69,4.72 19.03,3.78 17.8,3.78 			"/>
			<polygon class="st28" points="17.24,4.72 18.47,4.72 17.8,3.78 16.58,3.78 			"/>
			<polygon class="st28" points="16.02,4.72 17.24,4.72 16.58,3.78 15.35,3.78 			"/>
			<polygon class="st5" points="14.79,4.72 16.02,4.72 15.35,3.78 14.13,3.78 			"/>
			<polygon class="st39" points="13.57,4.72 14.79,4.72 14.13,3.78 12.9,3.78 			"/>
			<polygon class="st52" points="12.34,4.72 13.57,4.72 12.9,3.78 11.68,3.78 			"/>
			<polygon class="st33" points="11.12,4.72 12.34,4.72 11.68,3.78 10.45,3.78 			"/>
			<polygon class="st47" points="9.89,4.72 11.12,4.72 10.45,3.78 9.23,3.78 			"/>
			<polygon class="st42" points="8.67,4.72 9.89,4.72 9.23,3.78 8,3.78 			"/>
			<polygon class="st46" points="7.44,4.72 8.67,4.72 8,3.78 6.78,3.78 			"/>
			<polygon class="st26" points="6.22,4.72 7.44,4.72 6.78,3.78 5.55,3.78 			"/>
			<polygon class="st31" points="4.99,4.72 6.22,4.72 5.55,3.78 4.33,3.78 			"/>
			<polygon class="st31" points="3.77,4.72 4.99,4.72 4.33,3.78 3.1,3.78 			"/>
			<polygon class="st31" points="2.54,4.72 3.77,4.72 3.1,3.78 1.88,3.78 			"/>
			<polygon class="st31" points="1.32,4.72 2.54,4.72 1.88,3.78 0.65,3.78 			"/>
			<polygon class="st31" points="0.65,3.78 0,3.78 0,4.59 0.09,4.72 1.32,4.72 			"/>
			<polygon class="st31" points="0,4.59 0,4.72 0.09,4.72 			"/>
			<polygon class="st21" points="25,2.83 24.49,2.83 25,3.56 			"/>
			<polygon class="st14" points="25,3.56 24.49,2.83 23.27,2.83 23.93,3.78 25,3.78 			"/>
			<polygon class="st21" points="22.7,3.78 23.93,3.78 23.27,2.83 22.04,2.83 			"/>
			<polygon class="st17" points="21.48,3.78 22.7,3.78 22.04,2.83 20.82,2.83 			"/>
			<polygon class="st43" points="20.25,3.78 21.48,3.78 20.82,2.83 19.59,2.83 			"/>
			<polygon class="st8" points="19.03,3.78 20.25,3.78 19.59,2.83 18.37,2.83 			"/>
			<polygon class="st45" points="17.8,3.78 19.03,3.78 18.37,2.83 17.14,2.83 			"/>
			<polygon class="st55" points="16.58,3.78 17.8,3.78 17.14,2.83 15.92,2.83 			"/>
			<polygon class="st55" points="15.35,3.78 16.58,3.78 15.92,2.83 14.69,2.83 			"/>
			<polygon class="st57" points="14.13,3.78 15.35,3.78 14.69,2.83 13.47,2.83 			"/>
			<polygon class="st31" points="12.9,3.78 14.13,3.78 13.47,2.83 12.24,2.83 			"/>
			<polygon class="st28" points="11.68,3.78 12.9,3.78 12.24,2.83 11.02,2.83 			"/>
			<polygon class="st31" points="10.45,3.78 11.68,3.78 11.02,2.83 9.79,2.83 			"/>
			<polygon class="st31" points="9.23,3.78 10.45,3.78 9.79,2.83 8.57,2.83 			"/>
			<polygon class="st31" points="8,3.78 9.23,3.78 8.57,2.83 7.34,2.83 			"/>
			<polygon class="st31" points="6.78,3.78 8,3.78 7.34,2.83 6.12,2.83 			"/>
			<polygon class="st31" points="5.55,3.78 6.78,3.78 6.12,2.83 4.89,2.83 			"/>
			<polygon class="st31" points="4.33,3.78 5.55,3.78 4.89,2.83 3.67,2.83 			"/>
			<polygon class="st31" points="3.1,3.78 4.33,3.78 3.67,2.83 2.44,2.83 			"/>
			<polygon class="st31" points="1.88,3.78 3.1,3.78 2.44,2.83 1.22,2.83 			"/>
			<polygon class="st31" points="1.22,2.83 0,2.83 0,2.84 0.65,3.78 1.88,3.78 			"/>
			<polygon class="st31" points="0,2.84 0,3.78 0.65,3.78 			"/>
			<polygon class="st23" points="25,1.89 23.83,1.89 24.49,2.83 25,2.83 			"/>
			<polygon class="st50" points="23.27,2.83 24.49,2.83 23.83,1.89 22.61,1.89 			"/>
			<polygon class="st15" points="22.04,2.83 23.27,2.83 22.61,1.89 21.38,1.89 			"/>
			<polygon class="st20" points="20.82,2.83 22.04,2.83 21.38,1.89 20.16,1.89 			"/>
			<polygon class="st50" points="19.59,2.83 20.82,2.83 20.16,1.89 18.93,1.89 			"/>
			<polygon class="st43" points="18.37,2.83 19.59,2.83 18.93,1.89 17.71,1.89 			"/>
			<polygon class="st56" points="17.14,2.83 18.37,2.83 17.71,1.89 16.48,1.89 			"/>
			<polygon class="st7" points="15.92,2.83 17.14,2.83 16.48,1.89 15.26,1.89 			"/>
			<polygon class="st58" points="14.69,2.83 15.92,2.83 15.26,1.89 14.03,1.89 			"/>
			<polygon class="st52" points="13.47,2.83 14.69,2.83 14.03,1.89 12.81,1.89 			"/>
			<polygon class="st31" points="12.24,2.83 13.47,2.83 12.81,1.89 11.58,1.89 			"/>
			<polygon class="st31" points="11.02,2.83 12.24,2.83 11.58,1.89 10.36,1.89 			"/>
			<polygon class="st31" points="9.79,2.83 11.02,2.83 10.36,1.89 9.13,1.89 			"/>
			<polygon class="st31" points="8.57,2.83 9.79,2.83 9.13,1.89 7.91,1.89 			"/>
			<polygon class="st31" points="7.34,2.83 8.57,2.83 7.91,1.89 6.68,1.89 			"/>
			<polygon class="st31" points="6.12,2.83 7.34,2.83 6.68,1.89 5.46,1.89 			"/>
			<polygon class="st31" points="4.89,2.83 6.12,2.83 5.46,1.89 4.23,1.89 			"/>
			<polygon class="st31" points="3.67,2.83 4.89,2.83 4.23,1.89 3.01,1.89 			"/>
			<polygon class="st31" points="2.44,2.83 3.67,2.83 3.01,1.89 1.78,1.89 			"/>
			<polygon class="st31" points="1.22,2.83 2.44,2.83 1.78,1.89 0.56,1.89 			"/>
			<polygon class="st31" points="0,2.83 1.22,2.83 0.56,1.89 0,1.89 			"/>
			<polygon class="st23" points="25,0.94 24.39,0.94 25,1.81 			"/>
			<polygon class="st10" points="25,1.81 24.39,0.94 23.17,0.94 23.83,1.89 25,1.89 			"/>
			<polygon class="st36" points="22.61,1.89 23.83,1.89 23.17,0.94 21.94,0.94 			"/>
			<polygon class="st1" points="21.38,1.89 22.61,1.89 21.94,0.94 20.72,0.94 			"/>
			<polygon class="st30" points="20.16,1.89 21.38,1.89 20.72,0.94 19.49,0.94 			"/>
			<polygon class="st22" points="18.93,1.89 20.16,1.89 19.49,0.94 18.27,0.94 			"/>
			<polygon class="st1" points="17.71,1.89 18.93,1.89 18.27,0.94 17.04,0.94 			"/>
			<polygon class="st56" points="16.48,1.89 17.71,1.89 17.04,0.94 15.82,0.94 			"/>
			<polygon class="st26" points="15.26,1.89 16.48,1.89 15.82,0.94 14.59,0.94 			"/>
			<polygon class="st54" points="14.03,1.89 15.26,1.89 14.59,0.94 13.37,0.94 			"/>
			<polygon class="st31" points="12.81,1.89 14.03,1.89 13.37,0.94 12.14,0.94 			"/>
			<polygon class="st31" points="11.58,1.89 12.81,1.89 12.14,0.94 10.92,0.94 			"/>
			<polygon class="st31" points="10.36,1.89 11.58,1.89 10.92,0.94 9.69,0.94 			"/>
			<polygon class="st31" points="9.13,1.89 10.36,1.89 9.69,0.94 8.47,0.94 			"/>
			<polygon class="st31" points="7.91,1.89 9.13,1.89 8.47,0.94 7.24,0.94 			"/>
			<polygon class="st54" points="6.68,1.89 7.91,1.89 7.24,0.94 6.02,0.94 			"/>
			<polygon class="st26" points="5.46,1.89 6.68,1.89 6.02,0.94 4.79,0.94 			"/>
			<polygon class="st31" points="4.23,1.89 5.46,1.89 4.79,0.94 3.57,0.94 			"/>
			<polygon class="st31" points="3.01,1.89 4.23,1.89 3.57,0.94 2.34,0.94 			"/>
			<polygon class="st31" points="1.78,1.89 3.01,1.89 2.34,0.94 1.12,0.94 			"/>
			<polygon class="st31" points="1.12,0.94 0,0.94 0,1.1 0.56,1.89 1.78,1.89 			"/>
			<polygon class="st31" points="0,1.1 0,1.89 0.56,1.89 			"/>
			<polygon class="st45" points="25,0.06 24.96,0 23.73,0 24.39,0.94 25,0.94 			"/>
			<polygon class="st8" points="23.17,0.94 24.39,0.94 23.73,0 22.51,0 			"/>
			<polygon class="st13" points="21.94,0.94 23.17,0.94 22.51,0 21.28,0 			"/>
			<polygon class="st21" points="20.72,0.94 21.94,0.94 21.28,0 20.06,0 			"/>
			<polygon class="st11" points="19.49,0.94 20.72,0.94 20.06,0 18.83,0 			"/>
			<polygon class="st14" points="18.27,0.94 19.49,0.94 18.83,0 17.61,0 			"/>
			<polygon class="st0" points="17.04,0.94 18.27,0.94 17.61,0 16.38,0 			"/>
			<polygon class="st57" points="15.82,0.94 17.04,0.94 16.38,0 15.16,0 			"/>
			<polygon class="st31" points="14.59,0.94 15.82,0.94 15.16,0 13.93,0 			"/>
			<polygon class="st31" points="13.37,0.94 14.59,0.94 13.93,0 12.71,0 			"/>
			<polygon class="st31" points="12.14,0.94 13.37,0.94 12.71,0 11.48,0 			"/>
			<polygon class="st31" points="10.92,0.94 12.14,0.94 11.48,0 10.26,0 			"/>
			<polygon class="st31" points="9.69,0.94 10.92,0.94 10.26,0 9.03,0 			"/>
			<polygon class="st31" points="8.47,0.94 9.69,0.94 9.03,0 7.81,0 			"/>
			<polygon class="st31" points="7.24,0.94 8.47,0.94 7.81,0 6.58,0 			"/>
			<polygon class="st58" points="6.02,0.94 7.24,0.94 6.58,0 5.36,0 			"/>
			<polygon class="st58" points="4.79,0.94 6.02,0.94 5.36,0 4.13,0 			"/>
			<polygon class="st31" points="3.57,0.94 4.79,0.94 4.13,0 2.91,0 			"/>
			<polygon class="st31" points="2.34,0.94 3.57,0.94 2.91,0 1.68,0 			"/>
			<polygon class="st31" points="1.12,0.94 2.34,0.94 1.68,0 0.46,0 			"/>
			<polygon class="st31" points="0,0.94 1.12,0.94 0.46,0 0,0 			"/>
		</g>
		<g>
			<polygon class="st0" points="25,0 24.62,0 23.96,0.94 25,0.94 			"/>
			<polygon class="st1" points="23.4,0 24.62,0 23.96,0.94 22.73,0.94 			"/>
			<polygon class="st2" points="22.17,0 23.4,0 22.73,0.94 21.51,0.94 			"/>
			<polygon class="st3" points="20.95,0 22.17,0 21.51,0.94 20.28,0.94 			"/>
			<polygon class="st4" points="19.72,0 20.95,0 20.28,0.94 19.06,0.94 			"/>
			<polygon class="st5" points="18.5,0 19.72,0 19.06,0.94 17.83,0.94 			"/>
			<polygon class="st6" points="17.27,0 18.5,0 17.83,0.94 16.61,0.94 			"/>
			<polygon class="st7" points="16.05,0 17.27,0 16.61,0.94 15.39,0.94 			"/>
			<polygon class="st8" points="14.82,0 16.05,0 15.39,0.94 14.16,0.94 			"/>
			<polygon class="st9" points="13.6,0 14.82,0 14.16,0.94 12.94,0.94 			"/>
			<polygon class="st10" points="12.37,0 13.6,0 12.94,0.94 11.71,0.94 			"/>
			<polygon class="st11" points="11.15,0 12.37,0 11.71,0.94 10.49,0.94 			"/>
			<polygon class="st12" points="9.92,0 11.15,0 10.49,0.94 9.26,0.94 			"/>
			<polygon class="st13" points="8.7,0 9.92,0 9.26,0.94 8.04,0.94 			"/>
			<polygon class="st14" points="7.47,0 8.7,0 8.04,0.94 6.81,0.94 			"/>
			<polygon class="st15" points="6.25,0 7.47,0 6.81,0.94 5.59,0.94 			"/>
			<polygon class="st1" points="5.02,0 6.25,0 5.59,0.94 4.36,0.94 			"/>
			<polygon class="st16" points="3.8,0 5.02,0 4.36,0.94 3.14,0.94 			"/>
			<polygon class="st17" points="2.57,0 3.8,0 3.14,0.94 1.91,0.94 			"/>
			<polygon class="st0" points="1.35,0 2.57,0 1.91,0.94 0.69,0.94 			"/>
			<polygon class="st18" points="0.12,0 0,0.17 0,0.94 0.69,0.94 1.35,0 			"/>
			<polygon class="st19" points="25,1.21 24.52,1.89 25,1.89 			"/>
			<polygon class="st20" points="25,0.94 23.96,0.94 23.3,1.89 24.52,1.89 25,1.21 			"/>
			<polygon class="st20" points="22.73,0.94 23.96,0.94 23.3,1.89 22.07,1.89 			"/>
			<polygon class="st21" points="21.51,0.94 22.73,0.94 22.07,1.89 20.85,1.89 			"/>
			<polygon class="st22" points="20.28,0.94 21.51,0.94 20.85,1.89 19.62,1.89 			"/>
			<polygon class="st23" points="19.06,0.94 20.28,0.94 19.62,1.89 18.4,1.89 			"/>
			<polygon class="st7" points="17.83,0.94 19.06,0.94 18.4,1.89 17.17,1.89 			"/>
			<polygon class="st24" points="16.61,0.94 17.83,0.94 17.17,1.89 15.95,1.89 			"/>
			<polygon class="st25" points="15.39,0.94 16.61,0.94 15.95,1.89 14.72,1.89 			"/>
			<polygon class="st26" points="14.16,0.94 15.39,0.94 14.72,1.89 13.5,1.89 			"/>
			<polygon class="st4" points="12.94,0.94 14.16,0.94 13.5,1.89 12.27,1.89 			"/>
			<polygon class="st12" points="11.71,0.94 12.94,0.94 12.27,1.89 11.05,1.89 			"/>
			<polygon class="st27" points="10.49,0.94 11.71,0.94 11.05,1.89 9.82,1.89 			"/>
			<polygon class="st28" points="9.26,0.94 10.49,0.94 9.82,1.89 8.6,1.89 			"/>
			<polygon class="st23" points="8.04,0.94 9.26,0.94 8.6,1.89 7.37,1.89 			"/>
			<polygon class="st4" points="6.81,0.94 8.04,0.94 7.37,1.89 6.15,1.89 			"/>
			<polygon class="st22" points="5.59,0.94 6.81,0.94 6.15,1.89 4.92,1.89 			"/>
			<polygon class="st25" points="4.36,0.94 5.59,0.94 4.92,1.89 3.7,1.89 			"/>
			<polygon class="st10" points="3.14,0.94 4.36,0.94 3.7,1.89 2.47,1.89 			"/>
			<polygon class="st29" points="1.91,0.94 3.14,0.94 2.47,1.89 1.25,1.89 			"/>
			<polygon class="st30" points="0.69,0.94 1.91,0.94 1.25,1.89 0.02,1.89 			"/>
			<polygon class="st20" points="0,0.94 0,1.89 0.02,1.89 0.69,0.94 			"/>
			<polygon class="st19" points="25,1.89 24.52,1.89 23.86,2.83 25,2.83 			"/>
			<polygon class="st16" points="23.3,1.89 24.52,1.89 23.86,2.83 22.64,2.83 			"/>
			<polygon class="st1" points="22.07,1.89 23.3,1.89 22.64,2.83 21.41,2.83 			"/>
			<polygon class="st21" points="20.85,1.89 22.07,1.89 21.41,2.83 20.19,2.83 			"/>
			<polygon class="st1" points="19.62,1.89 20.85,1.89 20.19,2.83 18.96,2.83 			"/>
			<polygon class="st2" points="18.4,1.89 19.62,1.89 18.96,2.83 17.74,2.83 			"/>
			<polygon class="st4" points="17.17,1.89 18.4,1.89 17.74,2.83 16.51,2.83 			"/>
			<polygon class="st26" points="15.95,1.89 17.17,1.89 16.51,2.83 15.29,2.83 			"/>
			<polygon class="st25" points="14.72,1.89 15.95,1.89 15.29,2.83 14.06,2.83 			"/>
			<polygon class="st31" points="13.5,1.89 14.72,1.89 14.06,2.83 12.84,2.83 			"/>
			<polygon class="st28" points="12.27,1.89 13.5,1.89 12.84,2.83 11.61,2.83 			"/>
			<polygon class="st31" points="11.05,1.89 12.27,1.89 11.61,2.83 10.39,2.83 			"/>
			<polygon class="st32" points="9.82,1.89 11.05,1.89 10.39,2.83 9.16,2.83 			"/>
			<polygon class="st33" points="8.6,1.89 9.82,1.89 9.16,2.83 7.94,2.83 			"/>
			<polygon class="st29" points="7.37,1.89 8.6,1.89 7.94,2.83 6.71,2.83 			"/>
			<polygon class="st34" points="6.15,1.89 7.37,1.89 6.71,2.83 5.49,2.83 			"/>
			<polygon class="st34" points="4.92,1.89 6.15,1.89 5.49,2.83 4.26,2.83 			"/>
			<polygon class="st11" points="3.7,1.89 4.92,1.89 4.26,2.83 3.04,2.83 			"/>
			<polygon class="st3" points="2.47,1.89 3.7,1.89 3.04,2.83 1.81,2.83 			"/>
			<polygon class="st35" points="1.25,1.89 2.47,1.89 1.81,2.83 0.59,2.83 			"/>
			<polygon class="st36" points="0.02,1.89 0,1.92 0,2.83 0.59,2.83 1.25,1.89 			"/>
			<polygon class="st37" points="25,2.96 24.42,3.78 25,3.78 			"/>
			<polygon class="st16" points="25,2.83 23.86,2.83 23.2,3.78 24.42,3.78 25,2.96 			"/>
			<polygon class="st17" points="22.64,2.83 23.86,2.83 23.2,3.78 21.97,3.78 			"/>
			<polygon class="st30" points="21.41,2.83 22.64,2.83 21.97,3.78 20.75,3.78 			"/>
			<polygon class="st36" points="20.19,2.83 21.41,2.83 20.75,3.78 19.52,3.78 			"/>
			<polygon class="st11" points="18.96,2.83 20.19,2.83 19.52,3.78 18.3,3.78 			"/>
			<polygon class="st38" points="17.74,2.83 18.96,2.83 18.3,3.78 17.07,3.78 			"/>
			<polygon class="st4" points="16.51,2.83 17.74,2.83 17.07,3.78 15.85,3.78 			"/>
			<polygon class="st39" points="15.29,2.83 16.51,2.83 15.85,3.78 14.62,3.78 			"/>
			<polygon class="st40" points="14.06,2.83 15.29,2.83 14.62,3.78 13.4,3.78 			"/>
			<polygon class="st6" points="12.84,2.83 14.06,2.83 13.4,3.78 12.17,3.78 			"/>
			<polygon class="st26" points="11.61,2.83 12.84,2.83 12.17,3.78 10.95,3.78 			"/>
			<polygon class="st33" points="10.39,2.83 11.61,2.83 10.95,3.78 9.72,3.78 			"/>
			<polygon class="st31" points="9.16,2.83 10.39,2.83 9.72,3.78 8.5,3.78 			"/>
			<polygon class="st41" points="7.94,2.83 9.16,2.83 8.5,3.78 7.27,3.78 			"/>
			<polygon class="st42" points="6.71,2.83 7.94,2.83 7.27,3.78 6.05,3.78 			"/>
			<polygon class="st43" points="5.49,2.83 6.71,2.83 6.05,3.78 4.82,3.78 			"/>
			<polygon class="st25" points="4.26,2.83 5.49,2.83 4.82,3.78 3.6,3.78 			"/>
			<polygon class="st41" points="3.04,2.83 4.26,2.83 3.6,3.78 2.37,3.78 			"/>
			<polygon class="st44" points="1.81,2.83 3.04,2.83 2.37,3.78 1.15,3.78 			"/>
			<polygon class="st11" points="0.59,2.83 0,3.67 0,3.78 1.15,3.78 1.81,2.83 			"/>
			<polygon class="st15" points="0,2.83 0,3.67 0.59,2.83 			"/>
			<polygon class="st37" points="25,3.78 24.42,3.78 23.76,4.72 24.99,4.72 25,4.7 			"/>
			<polygon class="st19" points="23.2,3.78 24.42,3.78 23.76,4.72 22.54,4.72 			"/>
			<polygon class="st19" points="21.97,3.78 23.2,3.78 22.54,4.72 21.31,4.72 			"/>
			<polygon class="st1" points="20.75,3.78 21.97,3.78 21.31,4.72 20.09,4.72 			"/>
			<polygon class="st2" points="19.52,3.78 20.75,3.78 20.09,4.72 18.86,4.72 			"/>
			<polygon class="st7" points="18.3,3.78 19.52,3.78 18.86,4.72 17.64,4.72 			"/>
			<polygon class="st44" points="17.07,3.78 18.3,3.78 17.64,4.72 16.41,4.72 			"/>
			<polygon class="st12" points="15.85,3.78 17.07,3.78 16.41,4.72 15.19,4.72 			"/>
			<polygon class="st45" points="14.62,3.78 15.85,3.78 15.19,4.72 13.96,4.72 			"/>
			<polygon class="st7" points="13.4,3.78 14.62,3.78 13.96,4.72 12.74,4.72 			"/>
			<polygon class="st6" points="12.17,3.78 13.4,3.78 12.74,4.72 11.51,4.72 			"/>
			<polygon class="st40" points="10.95,3.78 12.17,3.78 11.51,4.72 10.29,4.72 			"/>
			<polygon class="st46" points="9.72,3.78 10.95,3.78 10.29,4.72 9.06,4.72 			"/>
			<polygon class="st47" points="8.5,3.78 9.72,3.78 9.06,4.72 7.84,4.72 			"/>
			<polygon class="st31" points="7.27,3.78 8.5,3.78 7.84,4.72 6.61,4.72 			"/>
			<polygon class="st25" points="6.05,3.78 7.27,3.78 6.61,4.72 5.39,4.72 			"/>
			<polygon class="st8" points="4.82,3.78 6.05,3.78 5.39,4.72 4.16,4.72 			"/>
			<polygon class="st48" points="3.6,3.78 4.82,3.78 4.16,4.72 2.94,4.72 			"/>
			<polygon class="st32" points="2.37,3.78 3.6,3.78 2.94,4.72 1.71,4.72 			"/>
			<polygon class="st31" points="1.15,3.78 2.37,3.78 1.71,4.72 0.49,4.72 			"/>
			<polygon class="st39" points="0,3.78 0,4.72 0.49,4.72 1.15,3.78 			"/>
			<polygon class="st49" points="25,4.72 24.99,4.72 24.32,5.67 25,5.67 			"/>
			<polygon class="st17" points="23.76,4.72 24.99,4.72 24.32,5.67 23.1,5.67 			"/>
			<polygon class="st30" points="22.54,4.72 23.76,4.72 23.1,5.67 21.87,5.67 			"/>
			<polygon class="st21" points="21.31,4.72 22.54,4.72 21.87,5.67 20.65,5.67 			"/>
			<polygon class="st22" points="20.09,4.72 21.31,4.72 20.65,5.67 19.42,5.67 			"/>
			<polygon class="st50" points="18.86,4.72 20.09,4.72 19.42,5.67 18.2,5.67 			"/>
			<polygon class="st13" points="17.64,4.72 18.86,4.72 18.2,5.67 16.98,5.67 			"/>
			<polygon class="st8" points="16.41,4.72 17.64,4.72 16.98,5.67 15.75,5.67 			"/>
			<polygon class="st12" points="15.19,4.72 16.41,4.72 15.75,5.67 14.53,5.67 			"/>
			<polygon class="st5" points="13.96,4.72 15.19,4.72 14.53,5.67 13.3,5.67 			"/>
			<polygon class="st41" points="12.74,4.72 13.96,4.72 13.3,5.67 12.08,5.67 			"/>
			<polygon class="st38" points="11.51,4.72 12.74,4.72 12.08,5.67 10.85,5.67 			"/>
			<polygon class="st51" points="10.29,4.72 11.51,4.72 10.85,5.67 9.63,5.67 			"/>
			<polygon class="st51" points="9.06,4.72 10.29,4.72 9.63,5.67 8.4,5.67 			"/>
			<polygon class="st31" points="7.84,4.72 9.06,4.72 8.4,5.67 7.18,5.67 			"/>
			<polygon class="st52" points="6.61,4.72 7.84,4.72 7.18,5.67 5.95,5.67 			"/>
			<polygon class="st47" points="5.39,4.72 6.61,4.72 5.95,5.67 4.73,5.67 			"/>
			<polygon class="st51" points="4.16,4.72 5.39,4.72 4.73,5.67 3.5,5.67 			"/>
			<polygon class="st26" points="2.94,4.72 4.16,4.72 3.5,5.67 2.28,5.67 			"/>
			<polygon class="st31" points="1.71,4.72 2.94,4.72 2.28,5.67 1.05,5.67 			"/>
			<polygon class="st33" points="0.49,4.72 0,5.42 0,5.67 1.05,5.67 1.71,4.72 			"/>
			<polygon class="st31" points="0,4.72 0,5.42 0.49,4.72 			"/>
			<polygon class="st15" points="25,6.45 24.89,6.61 25,6.61 			"/>
			<polygon class="st15" points="25,5.67 24.32,5.67 23.66,6.61 24.89,6.61 25,6.45 			"/>
			<polygon class="st16" points="23.1,5.67 24.32,5.67 23.66,6.61 22.44,6.61 			"/>
			<polygon class="st36" points="21.87,5.67 23.1,5.67 22.44,6.61 21.21,6.61 			"/>
			<polygon class="st0" points="20.65,5.67 21.87,5.67 21.21,6.61 19.99,6.61 			"/>
			<polygon class="st13" points="19.42,5.67 20.65,5.67 19.99,6.61 18.76,6.61 			"/>
			<polygon class="st50" points="18.2,5.67 19.42,5.67 18.76,6.61 17.54,6.61 			"/>
			<polygon class="st8" points="16.98,5.67 18.2,5.67 17.54,6.61 16.31,6.61 			"/>
			<polygon class="st29" points="15.75,5.67 16.98,5.67 16.31,6.61 15.09,6.61 			"/>
			<polygon class="st10" points="14.53,5.67 15.75,5.67 15.09,6.61 13.86,6.61 			"/>
			<polygon class="st53" points="13.3,5.67 14.53,5.67 13.86,6.61 12.64,6.61 			"/>
			<polygon class="st42" points="12.08,5.67 13.3,5.67 12.64,6.61 11.41,6.61 			"/>
			<polygon class="st24" points="10.85,5.67 12.08,5.67 11.41,6.61 10.19,6.61 			"/>
			<polygon class="st42" points="9.63,5.67 10.85,5.67 10.19,6.61 8.96,6.61 			"/>
			<polygon class="st31" points="8.4,5.67 9.63,5.67 8.96,6.61 7.74,6.61 			"/>
			<polygon class="st41" points="7.18,5.67 8.4,5.67 7.74,6.61 6.51,6.61 			"/>
			<polygon class="st31" points="5.95,5.67 7.18,5.67 6.51,6.61 5.29,6.61 			"/>
			<polygon class="st31" points="4.73,5.67 5.95,5.67 5.29,6.61 4.06,6.61 			"/>
			<polygon class="st33" points="3.5,5.67 4.73,5.67 4.06,6.61 2.84,6.61 			"/>
			<polygon class="st31" points="2.28,5.67 3.5,5.67 2.84,6.61 1.61,6.61 			"/>
			<polygon class="st31" points="1.05,5.67 2.28,5.67 1.61,6.61 0.39,6.61 			"/>
			<polygon class="st54" points="0,5.67 0,6.61 0.39,6.61 1.05,5.67 			"/>
			<polygon class="st1" points="25,6.61 24.89,6.61 24.23,7.56 25,7.56 			"/>
			<polygon class="st36" points="23.66,6.61 24.89,6.61 24.23,7.56 23,7.56 			"/>
			<polygon class="st0" points="22.44,6.61 23.66,6.61 23,7.56 21.78,7.56 			"/>
			<polygon class="st1" points="21.21,6.61 22.44,6.61 21.78,7.56 20.55,7.56 			"/>
			<polygon class="st11" points="19.99,6.61 21.21,6.61 20.55,7.56 19.33,7.56 			"/>
			<polygon class="st34" points="18.76,6.61 19.99,6.61 19.33,7.56 18.1,7.56 			"/>
			<polygon class="st2" points="17.54,6.61 18.76,6.61 18.1,7.56 16.88,7.56 			"/>
			<polygon class="st4" points="16.31,6.61 17.54,6.61 16.88,7.56 15.65,7.56 			"/>
			<polygon class="st45" points="15.09,6.61 16.31,6.61 15.65,7.56 14.43,7.56 			"/>
			<polygon class="st8" points="13.86,6.61 15.09,6.61 14.43,7.56 13.2,7.56 			"/>
			<polygon class="st6" points="12.64,6.61 13.86,6.61 13.2,7.56 11.98,7.56 			"/>
			<polygon class="st55" points="11.41,6.61 12.64,6.61 11.98,7.56 10.75,7.56 			"/>
			<polygon class="st45" points="10.19,6.61 11.41,6.61 10.75,7.56 9.53,7.56 			"/>
			<polygon class="st54" points="8.96,6.61 10.19,6.61 9.53,7.56 8.3,7.56 			"/>
			<polygon class="st31" points="7.74,6.61 8.96,6.61 8.3,7.56 7.08,7.56 			"/>
			<polygon class="st31" points="6.51,6.61 7.74,6.61 7.08,7.56 5.85,7.56 			"/>
			<polygon class="st31" points="5.29,6.61 6.51,6.61 5.85,7.56 4.63,7.56 			"/>
			<polygon class="st31" points="4.06,6.61 5.29,6.61 4.63,7.56 3.4,7.56 			"/>
			<polygon class="st31" points="2.84,6.61 4.06,6.61 3.4,7.56 2.18,7.56 			"/>
			<polygon class="st31" points="1.61,6.61 2.84,6.61 2.18,7.56 0.95,7.56 			"/>
			<polygon class="st31" points="0.39,6.61 0,7.17 0,7.56 0.95,7.56 1.61,6.61 			"/>
			<polygon class="st31" points="0,6.61 0,7.17 0.39,6.61 			"/>
			<polygon class="st15" points="25,8.2 24.79,8.5 25,8.5 			"/>
			<polygon class="st15" points="25,7.56 24.23,7.56 23.56,8.5 24.79,8.5 25,8.2 			"/>
			<polygon class="st13" points="23,7.56 24.23,7.56 23.56,8.5 22.34,8.5 			"/>
			<polygon class="st15" points="21.78,7.56 23,7.56 22.34,8.5 21.11,8.5 			"/>
			<polygon class="st43" points="20.55,7.56 21.78,7.56 21.11,8.5 19.89,8.5 			"/>
			<polygon class="st13" points="19.33,7.56 20.55,7.56 19.89,8.5 18.66,8.5 			"/>
			<polygon class="st34" points="18.1,7.56 19.33,7.56 18.66,8.5 17.44,8.5 			"/>
			<polygon class="st34" points="16.88,7.56 18.1,7.56 17.44,8.5 16.21,8.5 			"/>
			<polygon class="st53" points="15.65,7.56 16.88,7.56 16.21,8.5 14.99,8.5 			"/>
			<polygon class="st11" points="14.43,7.56 15.65,7.56 14.99,8.5 13.76,8.5 			"/>
			<polygon class="st29" points="13.2,7.56 14.43,7.56 13.76,8.5 12.54,8.5 			"/>
			<polygon class="st40" points="11.98,7.56 13.2,7.56 12.54,8.5 11.31,8.5 			"/>
			<polygon class="st39" points="10.75,7.56 11.98,7.56 11.31,8.5 10.09,8.5 			"/>
			<polygon class="st31" points="9.53,7.56 10.75,7.56 10.09,8.5 8.86,8.5 			"/>
			<polygon class="st32" points="8.3,7.56 9.53,7.56 8.86,8.5 7.64,8.5 			"/>
			<polygon class="st31" points="7.08,7.56 8.3,7.56 7.64,8.5 6.41,8.5 			"/>
			<polygon class="st47" points="5.85,7.56 7.08,7.56 6.41,8.5 5.19,8.5 			"/>
			<polygon class="st31" points="4.63,7.56 5.85,7.56 5.19,8.5 3.96,8.5 			"/>
			<polygon class="st31" points="3.4,7.56 4.63,7.56 3.96,8.5 2.74,8.5 			"/>
			<polygon class="st31" points="2.18,7.56 3.4,7.56 2.74,8.5 1.51,8.5 			"/>
			<polygon class="st31" points="0.95,7.56 2.18,7.56 1.51,8.5 0.29,8.5 			"/>
			<polygon class="st31" points="0,7.56 0,8.5 0.29,8.5 0.95,7.56 			"/>
			<polygon class="st43" points="25,8.5 24.79,8.5 24.13,9.44 25,9.44 			"/>
			<polygon class="st13" points="23.56,8.5 24.79,8.5 24.13,9.44 22.9,9.44 			"/>
			<polygon class="st21" points="22.34,8.5 23.56,8.5 22.9,9.44 21.68,9.44 			"/>
			<polygon class="st50" points="21.11,8.5 22.34,8.5 21.68,9.44 20.45,9.44 			"/>
			<polygon class="st2" points="19.89,8.5 21.11,8.5 20.45,9.44 19.23,9.44 			"/>
			<polygon class="st45" points="18.66,8.5 19.89,8.5 19.23,9.44 18,9.44 			"/>
			<polygon class="st38" points="17.44,8.5 18.66,8.5 18,9.44 16.78,9.44 			"/>
			<polygon class="st10" points="16.21,8.5 17.44,8.5 16.78,9.44 15.55,9.44 			"/>
			<polygon class="st56" points="14.99,8.5 16.21,8.5 15.55,9.44 14.33,9.44 			"/>
			<polygon class="st23" points="13.76,8.5 14.99,8.5 14.33,9.44 13.1,9.44 			"/>
			<polygon class="st38" points="12.54,8.5 13.76,8.5 13.1,9.44 11.88,9.44 			"/>
			<polygon class="st40" points="11.31,8.5 12.54,8.5 11.88,9.44 10.65,9.44 			"/>
			<polygon class="st41" points="10.09,8.5 11.31,8.5 10.65,9.44 9.43,9.44 			"/>
			<polygon class="st54" points="8.86,8.5 10.09,8.5 9.43,9.44 8.2,9.44 			"/>
			<polygon class="st56" points="7.64,8.5 8.86,8.5 8.2,9.44 6.98,9.44 			"/>
			<polygon class="st31" points="6.41,8.5 7.64,8.5 6.98,9.44 5.75,9.44 			"/>
			<polygon class="st31" points="5.19,8.5 6.41,8.5 5.75,9.44 4.53,9.44 			"/>
			<polygon class="st31" points="3.96,8.5 5.19,8.5 4.53,9.44 3.3,9.44 			"/>
			<polygon class="st31" points="2.74,8.5 3.96,8.5 3.3,9.44 2.08,9.44 			"/>
			<polygon class="st31" points="1.51,8.5 2.74,8.5 2.08,9.44 0.85,9.44 			"/>
			<polygon class="st31" points="0.29,8.5 0,8.91 0,9.44 0.85,9.44 1.51,8.5 			"/>
			<polygon class="st31" points="0,8.5 0,8.91 0.29,8.5 			"/>
			<polygon class="st36" points="25,9.95 24.69,10.39 25,10.39 			"/>
			<polygon class="st50" points="25,9.44 24.13,9.44 23.46,10.39 24.69,10.39 25,9.95 			"/>
			<polygon class="st22" points="22.9,9.44 24.13,9.44 23.46,10.39 22.24,10.39 			"/>
			<polygon class="st3" points="21.68,9.44 22.9,9.44 22.24,10.39 21.01,10.39 			"/>
			<polygon class="st15" points="20.45,9.44 21.68,9.44 21.01,10.39 19.79,10.39 			"/>
			<polygon class="st13" points="19.23,9.44 20.45,9.44 19.79,10.39 18.57,10.39 			"/>
			<polygon class="st11" points="18,9.44 19.23,9.44 18.57,10.39 17.34,10.39 			"/>
			<polygon class="st12" points="16.78,9.44 18,9.44 17.34,10.39 16.12,10.39 			"/>
			<polygon class="st56" points="15.55,9.44 16.78,9.44 16.12,10.39 14.89,10.39 			"/>
			<polygon class="st5" points="14.33,9.44 15.55,9.44 14.89,10.39 13.67,10.39 			"/>
			<polygon class="st23" points="13.1,9.44 14.33,9.44 13.67,10.39 12.44,10.39 			"/>
			<polygon class="st45" points="11.88,9.44 13.1,9.44 12.44,10.39 11.22,10.39 			"/>
			<polygon class="st42" points="10.65,9.44 11.88,9.44 11.22,10.39 9.99,10.39 			"/>
			<polygon class="st46" points="9.43,9.44 10.65,9.44 9.99,10.39 8.77,10.39 			"/>
			<polygon class="st41" points="8.2,9.44 9.43,9.44 8.77,10.39 7.54,10.39 			"/>
			<polygon class="st41" points="6.98,9.44 8.2,9.44 7.54,10.39 6.32,10.39 			"/>
			<polygon class="st31" points="5.75,9.44 6.98,9.44 6.32,10.39 5.09,10.39 			"/>
			<polygon class="st31" points="4.53,9.44 5.75,9.44 5.09,10.39 3.87,10.39 			"/>
			<polygon class="st31" points="3.3,9.44 4.53,9.44 3.87,10.39 2.64,10.39 			"/>
			<polygon class="st31" points="2.08,9.44 3.3,9.44 2.64,10.39 1.42,10.39 			"/>
			<polygon class="st31" points="0.85,9.44 2.08,9.44 1.42,10.39 0.19,10.39 			"/>
			<polygon class="st31" points="0,9.44 0,10.39 0.19,10.39 0.85,9.44 			"/>
			<polygon class="st15" points="25,10.39 24.69,10.39 24.03,11.33 25,11.33 			"/>
			<polygon class="st50" points="23.46,10.39 24.69,10.39 24.03,11.33 22.8,11.33 			"/>
			<polygon class="st13" points="22.24,10.39 23.46,10.39 22.8,11.33 21.58,11.33 			"/>
			<polygon class="st43" points="21.01,10.39 22.24,10.39 21.58,11.33 20.35,11.33 			"/>
			<polygon class="st43" points="19.79,10.39 21.01,10.39 20.35,11.33 19.13,11.33 			"/>
			<polygon class="st12" points="18.57,10.39 19.79,10.39 19.13,11.33 17.9,11.33 			"/>
			<polygon class="st35" points="17.34,10.39 18.57,10.39 17.9,11.33 16.68,11.33 			"/>
			<polygon class="st46" points="16.12,10.39 17.34,10.39 16.68,11.33 15.45,11.33 			"/>
			<polygon class="st5" points="14.89,10.39 16.12,10.39 15.45,11.33 14.23,11.33 			"/>
			<polygon class="st53" points="13.67,10.39 14.89,10.39 14.23,11.33 13,11.33 			"/>
			<polygon class="st48" points="12.44,10.39 13.67,10.39 13,11.33 11.78,11.33 			"/>
			<polygon class="st24" points="11.22,10.39 12.44,10.39 11.78,11.33 10.55,11.33 			"/>
			<polygon class="st48" points="9.99,10.39 11.22,10.39 10.55,11.33 9.33,11.33 			"/>
			<polygon class="st48" points="8.77,10.39 9.99,10.39 9.33,11.33 8.1,11.33 			"/>
			<polygon class="st31" points="7.54,10.39 8.77,10.39 8.1,11.33 6.88,11.33 			"/>
			<polygon class="st55" points="6.32,10.39 7.54,10.39 6.88,11.33 5.65,11.33 			"/>
			<polygon class="st31" points="5.09,10.39 6.32,10.39 5.65,11.33 4.43,11.33 			"/>
			<polygon class="st31" points="3.87,10.39 5.09,10.39 4.43,11.33 3.2,11.33 			"/>
			<polygon class="st31" points="2.64,10.39 3.87,10.39 3.2,11.33 1.98,11.33 			"/>
			<polygon class="st31" points="1.42,10.39 2.64,10.39 1.98,11.33 0.75,11.33 			"/>
			<polygon class="st31" points="0.19,10.39 0,10.66 0,11.33 0.75,11.33 1.42,10.39 			"/>
			<polygon class="st31" points="0,10.39 0,10.66 0.19,10.39 			"/>
			<polygon class="st14" points="25,11.69 24.59,12.28 25,12.28 			"/>
			<polygon class="st15" points="25,11.33 24.03,11.33 23.37,12.28 24.59,12.28 25,11.69 			"/>
			<polygon class="st14" points="22.8,11.33 24.03,11.33 23.37,12.28 22.14,12.28 			"/>
			<polygon class="st11" points="21.58,11.33 22.8,11.33 22.14,12.28 20.92,12.28 			"/>
			<polygon class="st22" points="20.35,11.33 21.58,11.33 20.92,12.28 19.69,12.28 			"/>
			<polygon class="st13" points="19.13,11.33 20.35,11.33 19.69,12.28 18.47,12.28 			"/>
			<polygon class="st13" points="17.9,11.33 19.13,11.33 18.47,12.28 17.24,12.28 			"/>
			<polygon class="st38" points="16.68,11.33 17.9,11.33 17.24,12.28 16.02,12.28 			"/>
			<polygon class="st31" points="15.45,11.33 16.68,11.33 16.02,12.28 14.79,12.28 			"/>
			<polygon class="st45" points="14.23,11.33 15.45,11.33 14.79,12.28 13.57,12.28 			"/>
			<polygon class="st6" points="13,11.33 14.23,11.33 13.57,12.28 12.34,12.28 			"/>
			<polygon class="st53" points="11.78,11.33 13,11.33 12.34,12.28 11.12,12.28 			"/>
			<polygon class="st41" points="10.55,11.33 11.78,11.33 11.12,12.28 9.89,12.28 			"/>
			<polygon class="st57" points="9.33,11.33 10.55,11.33 9.89,12.28 8.67,12.28 			"/>
			<polygon class="st24" points="8.1,11.33 9.33,11.33 8.67,12.28 7.44,12.28 			"/>
			<polygon class="st54" points="6.88,11.33 8.1,11.33 7.44,12.28 6.22,12.28 			"/>
			<polygon class="st31" points="5.65,11.33 6.88,11.33 6.22,12.28 4.99,12.28 			"/>
			<polygon class="st31" points="4.43,11.33 5.65,11.33 4.99,12.28 3.77,12.28 			"/>
			<polygon class="st31" points="3.2,11.33 4.43,11.33 3.77,12.28 2.54,12.28 			"/>
			<polygon class="st31" points="1.98,11.33 3.2,11.33 2.54,12.28 1.32,12.28 			"/>
			<polygon class="st31" points="0.75,11.33 1.98,11.33 1.32,12.28 0.09,12.28 			"/>
			<polygon class="st31" points="0,11.33 0,12.28 0.09,12.28 0.75,11.33 			"/>
			<polygon class="st50" points="25,12.28 24.59,12.28 23.93,13.22 25,13.22 			"/>
			<polygon class="st21" points="23.37,12.28 24.59,12.28 23.93,13.22 22.7,13.22 			"/>
			<polygon class="st21" points="22.14,12.28 23.37,12.28 22.7,13.22 21.48,13.22 			"/>
			<polygon class="st2" points="20.92,12.28 22.14,12.28 21.48,13.22 20.25,13.22 			"/>
			<polygon class="st23" points="19.69,12.28 20.92,12.28 20.25,13.22 19.03,13.22 			"/>
			<polygon class="st10" points="18.47,12.28 19.69,12.28 19.03,13.22 17.8,13.22 			"/>
			<polygon class="st28" points="17.24,12.28 18.47,12.28 17.8,13.22 16.58,13.22 			"/>
			<polygon class="st28" points="16.02,12.28 17.24,12.28 16.58,13.22 15.35,13.22 			"/>
			<polygon class="st5" points="14.79,12.28 16.02,12.28 15.35,13.22 14.13,13.22 			"/>
			<polygon class="st39" points="13.57,12.28 14.79,12.28 14.13,13.22 12.9,13.22 			"/>
			<polygon class="st52" points="12.34,12.28 13.57,12.28 12.9,13.22 11.68,13.22 			"/>
			<polygon class="st33" points="11.12,12.28 12.34,12.28 11.68,13.22 10.45,13.22 			"/>
			<polygon class="st47" points="9.89,12.28 11.12,12.28 10.45,13.22 9.23,13.22 			"/>
			<polygon class="st42" points="8.67,12.28 9.89,12.28 9.23,13.22 8,13.22 			"/>
			<polygon class="st46" points="7.44,12.28 8.67,12.28 8,13.22 6.78,13.22 			"/>
			<polygon class="st26" points="6.22,12.28 7.44,12.28 6.78,13.22 5.55,13.22 			"/>
			<polygon class="st31" points="4.99,12.28 6.22,12.28 5.55,13.22 4.33,13.22 			"/>
			<polygon class="st31" points="3.77,12.28 4.99,12.28 4.33,13.22 3.1,13.22 			"/>
			<polygon class="st31" points="2.54,12.28 3.77,12.28 3.1,13.22 1.88,13.22 			"/>
			<polygon class="st31" points="1.32,12.28 2.54,12.28 1.88,13.22 0.65,13.22 			"/>
			<polygon class="st31" points="0.09,12.28 0,12.41 0,13.22 0.65,13.22 1.32,12.28 			"/>
			<polygon class="st31" points="0,12.28 0,12.41 0.09,12.28 			"/>
			<polygon class="st21" points="25,13.44 24.49,14.17 25,14.17 			"/>
			<polygon class="st14" points="25,13.22 23.93,13.22 23.27,14.17 24.49,14.17 25,13.44 			"/>
			<polygon class="st21" points="22.7,13.22 23.93,13.22 23.27,14.17 22.04,14.17 			"/>
			<polygon class="st17" points="21.48,13.22 22.7,13.22 22.04,14.17 20.82,14.17 			"/>
			<polygon class="st43" points="20.25,13.22 21.48,13.22 20.82,14.17 19.59,14.17 			"/>
			<polygon class="st8" points="19.03,13.22 20.25,13.22 19.59,14.17 18.37,14.17 			"/>
			<polygon class="st45" points="17.8,13.22 19.03,13.22 18.37,14.17 17.14,14.17 			"/>
			<polygon class="st55" points="16.58,13.22 17.8,13.22 17.14,14.17 15.92,14.17 			"/>
			<polygon class="st55" points="15.35,13.22 16.58,13.22 15.92,14.17 14.69,14.17 			"/>
			<polygon class="st57" points="14.13,13.22 15.35,13.22 14.69,14.17 13.47,14.17 			"/>
			<polygon class="st31" points="12.9,13.22 14.13,13.22 13.47,14.17 12.24,14.17 			"/>
			<polygon class="st28" points="11.68,13.22 12.9,13.22 12.24,14.17 11.02,14.17 			"/>
			<polygon class="st31" points="10.45,13.22 11.68,13.22 11.02,14.17 9.79,14.17 			"/>
			<polygon class="st31" points="9.23,13.22 10.45,13.22 9.79,14.17 8.57,14.17 			"/>
			<polygon class="st31" points="8,13.22 9.23,13.22 8.57,14.17 7.34,14.17 			"/>
			<polygon class="st31" points="6.78,13.22 8,13.22 7.34,14.17 6.12,14.17 			"/>
			<polygon class="st31" points="5.55,13.22 6.78,13.22 6.12,14.17 4.89,14.17 			"/>
			<polygon class="st31" points="4.33,13.22 5.55,13.22 4.89,14.17 3.67,14.17 			"/>
			<polygon class="st31" points="3.1,13.22 4.33,13.22 3.67,14.17 2.44,14.17 			"/>
			<polygon class="st31" points="1.88,13.22 3.1,13.22 2.44,14.17 1.22,14.17 			"/>
			<polygon class="st31" points="0.65,13.22 0,14.16 0,14.17 1.22,14.17 1.88,13.22 			"/>
			<polygon class="st31" points="0,13.22 0,14.16 0.65,13.22 			"/>
			<polygon class="st23" points="25,14.17 24.49,14.17 23.83,15.11 25,15.11 			"/>
			<polygon class="st50" points="23.27,14.17 24.49,14.17 23.83,15.11 22.61,15.11 			"/>
			<polygon class="st15" points="22.04,14.17 23.27,14.17 22.61,15.11 21.38,15.11 			"/>
			<polygon class="st20" points="20.82,14.17 22.04,14.17 21.38,15.11 20.16,15.11 			"/>
			<polygon class="st50" points="19.59,14.17 20.82,14.17 20.16,15.11 18.93,15.11 			"/>
			<polygon class="st43" points="18.37,14.17 19.59,14.17 18.93,15.11 17.71,15.11 			"/>
			<polygon class="st56" points="17.14,14.17 18.37,14.17 17.71,15.11 16.48,15.11 			"/>
			<polygon class="st7" points="15.92,14.17 17.14,14.17 16.48,15.11 15.26,15.11 			"/>
			<polygon class="st58" points="14.69,14.17 15.92,14.17 15.26,15.11 14.03,15.11 			"/>
			<polygon class="st52" points="13.47,14.17 14.69,14.17 14.03,15.11 12.81,15.11 			"/>
			<polygon class="st31" points="12.24,14.17 13.47,14.17 12.81,15.11 11.58,15.11 			"/>
			<polygon class="st31" points="11.02,14.17 12.24,14.17 11.58,15.11 10.36,15.11 			"/>
			<polygon class="st31" points="9.79,14.17 11.02,14.17 10.36,15.11 9.13,15.11 			"/>
			<polygon class="st31" points="8.57,14.17 9.79,14.17 9.13,15.11 7.91,15.11 			"/>
			<polygon class="st31" points="7.34,14.17 8.57,14.17 7.91,15.11 6.68,15.11 			"/>
			<polygon class="st31" points="6.12,14.17 7.34,14.17 6.68,15.11 5.46,15.11 			"/>
			<polygon class="st31" points="4.89,14.17 6.12,14.17 5.46,15.11 4.23,15.11 			"/>
			<polygon class="st31" points="3.67,14.17 4.89,14.17 4.23,15.11 3.01,15.11 			"/>
			<polygon class="st31" points="2.44,14.17 3.67,14.17 3.01,15.11 1.78,15.11 			"/>
			<polygon class="st31" points="1.22,14.17 2.44,14.17 1.78,15.11 0.56,15.11 			"/>
			<polygon class="st31" points="0,14.17 0,15.11 0.56,15.11 1.22,14.17 			"/>
			<polygon class="st23" points="25,15.19 24.39,16.06 25,16.06 			"/>
			<polygon class="st10" points="25,15.11 23.83,15.11 23.17,16.06 24.39,16.06 25,15.19 			"/>
			<polygon class="st36" points="22.61,15.11 23.83,15.11 23.17,16.06 21.94,16.06 			"/>
			<polygon class="st1" points="21.38,15.11 22.61,15.11 21.94,16.06 20.72,16.06 			"/>
			<polygon class="st30" points="20.16,15.11 21.38,15.11 20.72,16.06 19.49,16.06 			"/>
			<polygon class="st22" points="18.93,15.11 20.16,15.11 19.49,16.06 18.27,16.06 			"/>
			<polygon class="st1" points="17.71,15.11 18.93,15.11 18.27,16.06 17.04,16.06 			"/>
			<polygon class="st56" points="16.48,15.11 17.71,15.11 17.04,16.06 15.82,16.06 			"/>
			<polygon class="st26" points="15.26,15.11 16.48,15.11 15.82,16.06 14.59,16.06 			"/>
			<polygon class="st54" points="14.03,15.11 15.26,15.11 14.59,16.06 13.37,16.06 			"/>
			<polygon class="st31" points="12.81,15.11 14.03,15.11 13.37,16.06 12.14,16.06 			"/>
			<polygon class="st31" points="11.58,15.11 12.81,15.11 12.14,16.06 10.92,16.06 			"/>
			<polygon class="st31" points="10.36,15.11 11.58,15.11 10.92,16.06 9.69,16.06 			"/>
			<polygon class="st31" points="9.13,15.11 10.36,15.11 9.69,16.06 8.47,16.06 			"/>
			<polygon class="st31" points="7.91,15.11 9.13,15.11 8.47,16.06 7.24,16.06 			"/>
			<polygon class="st54" points="6.68,15.11 7.91,15.11 7.24,16.06 6.02,16.06 			"/>
			<polygon class="st26" points="5.46,15.11 6.68,15.11 6.02,16.06 4.79,16.06 			"/>
			<polygon class="st31" points="4.23,15.11 5.46,15.11 4.79,16.06 3.57,16.06 			"/>
			<polygon class="st31" points="3.01,15.11 4.23,15.11 3.57,16.06 2.34,16.06 			"/>
			<polygon class="st31" points="1.78,15.11 3.01,15.11 2.34,16.06 1.12,16.06 			"/>
			<polygon class="st31" points="0.56,15.11 0,15.9 0,16.06 1.12,16.06 1.78,15.11 			"/>
			<polygon class="st31" points="0,15.11 0,15.9 0.56,15.11 			"/>
			<polygon class="st45" points="25,16.06 24.39,16.06 23.73,17 24.96,17 25,16.94 			"/>
			<polygon class="st8" points="23.17,16.06 24.39,16.06 23.73,17 22.51,17 			"/>
			<polygon class="st13" points="21.94,16.06 23.17,16.06 22.51,17 21.28,17 			"/>
			<polygon class="st21" points="20.72,16.06 21.94,16.06 21.28,17 20.06,17 			"/>
			<polygon class="st11" points="19.49,16.06 20.72,16.06 20.06,17 18.83,17 			"/>
			<polygon class="st14" points="18.27,16.06 19.49,16.06 18.83,17 17.61,17 			"/>
			<polygon class="st0" points="17.04,16.06 18.27,16.06 17.61,17 16.38,17 			"/>
			<polygon class="st57" points="15.82,16.06 17.04,16.06 16.38,17 15.16,17 			"/>
			<polygon class="st31" points="14.59,16.06 15.82,16.06 15.16,17 13.93,17 			"/>
			<polygon class="st31" points="13.37,16.06 14.59,16.06 13.93,17 12.71,17 			"/>
			<polygon class="st31" points="12.14,16.06 13.37,16.06 12.71,17 11.48,17 			"/>
			<polygon class="st31" points="10.92,16.06 12.14,16.06 11.48,17 10.26,17 			"/>
			<polygon class="st31" points="9.69,16.06 10.92,16.06 10.26,17 9.03,17 			"/>
			<polygon class="st31" points="8.47,16.06 9.69,16.06 9.03,17 7.81,17 			"/>
			<polygon class="st31" points="7.24,16.06 8.47,16.06 7.81,17 6.58,17 			"/>
			<polygon class="st58" points="6.02,16.06 7.24,16.06 6.58,17 5.36,17 			"/>
			<polygon class="st58" points="4.79,16.06 6.02,16.06 5.36,17 4.13,17 			"/>
			<polygon class="st31" points="3.57,16.06 4.79,16.06 4.13,17 2.91,17 			"/>
			<polygon class="st31" points="2.34,16.06 3.57,16.06 2.91,17 1.68,17 			"/>
			<polygon class="st31" points="1.12,16.06 2.34,16.06 1.68,17 0.46,17 			"/>
			<polygon class="st31" points="0,16.06 0,17 0.46,17 1.12,16.06 			"/>
		</g>
	</g>
	<radialGradient id="SVGID_1_" cx="12.1369" cy="-3.7368" r="22.5013" gradientUnits="userSpaceOnUse">
		<stop  offset="0" style="stop-color:#FFFFFF;stop-opacity:0"/>
		<stop  offset="0.0738" style="stop-color:#DEDFEB;stop-opacity:0.0702"/>
		<stop  offset="0.2169" style="stop-color:#A4A7C7;stop-opacity:0.2061"/>
		<stop  offset="0.36" style="stop-color:#7277A8;stop-opacity:0.342"/>
		<stop  offset="0.4999" style="stop-color:#494F8F;stop-opacity:0.4749"/>
		<stop  offset="0.6359" style="stop-color:#29317B;stop-opacity:0.6041"/>
		<stop  offset="0.7669" style="stop-color:#121B6D;stop-opacity:0.7285"/>
		<stop  offset="0.8907" style="stop-color:#050E65;stop-opacity:0.8462"/>
		<stop  offset="1" style="stop-color:#000962;stop-opacity:0.95"/>
	</radialGradient>
	<rect x="0" y="0" class="st59" width="25" height="17"/>
</g>
</svg>
