<?xml version="1.0" encoding="utf-8"?>
<!-- Generator: Adobe Illustrator 26.0.0, SVG Export Plug-In . SVG Version: 6.00 Build 0)  -->
<svg version="1.1" xmlns="http://www.w3.org/2000/svg" xmlns:xlink="http://www.w3.org/1999/xlink" x="0px" y="0px"
	 viewBox="0 0 1328 978" style="enable-background:new 0 0 1328 978;" xml:space="preserve">
<style type="text/css">
	.st0{display:none;}
	.st1{display:inline;}
	.st2{fill:#FFFBE9;}
	.st3{fill:#545454;}
	.st4{fill:#92A32B;}
	.st5{fill:#BEE41B;}
	.st6{fill:#FDE427;}
	.st7{fill:#16B1B5;}
	.st8{fill:#46F2F2;}
	.st9{fill:#D3B81A;}
	.st10{fill:#AA3C6E;}
	.st11{fill:#FF5593;}
	.st12{opacity:0.6;fill:#16B1B5;}
	.st13{opacity:0.6;}
	.st14{fill:#FFFFFF;}
	.st15{fill:#D7E0E0;}
	.st16{fill:#FF1717;}
	.st17{fill:#579334;}
	.st18{fill:#3D3D3D;}
	.st19{fill:#707070;}
	.st20{fill:#A0A0A0;}
	.st21{opacity:0.7;fill:#212E35;}
	.st22{fill:#CCCCCC;}
	.st23{fill:#302530;}
	.st24{fill:#60485E;}
	.st25{fill:#423241;}
	.st26{fill:#603043;}
	.st27{fill:#00788C;}
	.st28{fill:#757573;}
	.st29{fill:#999995;}
	.st30{fill:#544753;}
	.st31{fill:#CACEA5;}
	.st32{fill:#E0E8BF;}
	.st33{fill:#353535;}
	.st34{fill:#FF5821;}
	.st35{fill:#889F33;}
	.st36{fill:#9C9E8F;}
	.st37{fill:#C9CCBC;}
	.st38{fill:#728425;}
	.st39{fill:#212030;}
	.st40{fill:#FFA471;}
	.st41{fill:#171721;}
	.st42{fill:#636363;}
	.st43{fill:#F2EDEE;}
	.st44{fill:#F2F0EB;}
	.st45{fill:#E07F4F;}
	.st46{fill:#121C26;}
	.st47{fill:#49211C;}
	.st48{fill:#D83A0F;}
	.st49{fill:#3C3C56;}
	.st50{fill:#8A8A8E;}
	.st51{fill:#44283E;}
	.st52{fill:#553D57;}
	.st53{opacity:0.7;fill:#49363E;}
	.st54{fill:#69698E;}
	.st55{fill:#2D2D3F;}
	.st56{fill:#1D1D28;}
	.st57{fill:#49363E;}
	.st58{fill:#717199;}
	.st59{fill:#00B8D6;}
	.st60{opacity:0.2;fill:#663445;}
	.st61{fill:#FF2E2E;}
	.st62{fill:#FF5555;}
	.st63{opacity:0.5;fill:#FC8F35;}
</style>
<g id="레이어_2" class="st0">
	<rect class="st1" width="1332" height="978"/>
</g>
<g id="Layer_1">
	<g>
		<g>
			<path class="st2" d="M1180.62,755.44c-6.7,43.95-24.87,85.95-49.72,124.05c-4.55,6.99-9.33,13.84-14.31,20.55H221.11
				c-4.5-6.61-8.86-13.49-13.05-20.55c-25.18-42.52-44.12-92.11-51.19-134.44c-11.79-70.59,4.21-134.14,52.35-189.39
				c26.79-30.74,59.92-46.11,96.25-63.01C248.13,324.77,424.35,176.59,579.71,128.7c213.68-65.86,558.31-19.1,569.59,242.46
				c2.85,66-10.06,127.16-55.6,178.82c0.91-0.23,1.68-1.7,2.38-2.3C1167.67,586.28,1191.77,682.37,1180.62,755.44z"/>
			<rect x="136.89" y="879.49" class="st3" width="1054.21" height="20.55"/>
		</g>
		<g>
			<g>
				<g>
					<g>
						<path class="st4" d="M438.18,445.63l-38.65,6.15c6.44,13.83,4.16,29.09,0.99,42.89c13.42,0.44,27.07,5.93,40.15,2.64
							C447.12,481.4,443.93,461.67,438.18,445.63z"/>
						<path class="st5" d="M439.94,441.24l-38.65,6.15c6.43,13.83,4.16,29.09,0.99,42.89c13.42,0.44,27.07,5.93,40.15,2.64
							C448.87,477.01,445.69,457.28,439.94,441.24z"/>
					</g>
					<path class="st4" d="M411.28,458.76c7.42-2.04,14.95-3.03,22.64-3.05c0.94,0,0.94-1.47,0-1.46c-7.82,0.02-15.49,1.03-23.03,3.1
						C409.98,457.6,410.37,459.01,411.28,458.76L411.28,458.76z"/>
					<path class="st4" d="M413.04,464.47c9.18-2.59,18.68-3.55,28.11-4.83c0.93-0.13,0.53-1.54-0.39-1.41
						c-9.43,1.28-18.92,2.24-28.11,4.83C411.74,463.32,412.13,464.73,413.04,464.47L413.04,464.47z"/>
					<path class="st4" d="M411.52,470.21c8.82-0.53,17.1-3.9,25.67-5.74c0.92-0.2,0.53-1.61-0.39-1.41
						c-8.43,1.81-16.6,5.16-25.28,5.68C410.59,468.8,410.58,470.27,411.52,470.21L411.52,470.21z"/>
					<path class="st4" d="M415.67,474.57c9.06-2.26,18.15-4.42,27.23-6.59c0.92-0.22,0.53-1.63-0.39-1.41
						c-9.08,2.16-18.17,4.33-27.23,6.59C414.37,473.39,414.76,474.8,415.67,474.57L415.67,474.57z"/>
				</g>
				<g>
					<g>
						<path class="st4" d="M863.45,198.98l35.05,11.69c-8.13,11.89-8.36,26.45-7.55,39.8c-12.57-1.66-26.13,1.34-37.8-3.74
							C849.61,230.93,855.62,213.04,863.45,198.98z"/>
						<path class="st6" d="M862.49,194.62l35.05,11.69c-8.13,11.89-8.36,26.45-7.55,39.8c-12.57-1.66-26.13,1.34-37.8-3.74
							C848.65,226.56,854.66,208.68,862.49,194.62z"/>
					</g>
					<path class="st4" d="M886.48,215.37c-6.59-3.04-13.46-5.13-20.62-6.33c-0.88-0.15-0.65-1.51,0.23-1.36
						c7.28,1.23,14.27,3.35,20.97,6.44C887.87,214.49,887.29,215.74,886.48,215.37L886.48,215.37z"/>
					<path class="st4" d="M883.96,220.42c-8.15-3.83-16.85-6.19-25.43-8.84c-0.85-0.26-0.26-1.51,0.58-1.25
						c8.58,2.65,17.28,5.01,25.43,8.84C885.35,219.54,884.77,220.8,883.96,220.42L883.96,220.42z"/>
					<path class="st4" d="M884.49,225.99c-8.13-1.85-15.33-6.27-23.02-9.3c-0.83-0.33-0.25-1.58,0.58-1.25
						c7.57,2.99,14.67,7.37,22.67,9.2C885.58,224.83,885.35,226.19,884.49,225.99L884.49,225.99z"/>
					<path class="st4" d="M879.95,229.42c-8.09-3.51-16.22-6.92-24.34-10.34c-0.82-0.35-0.24-1.6,0.58-1.25
						c8.13,3.42,16.25,6.83,24.34,10.34C881.35,228.52,880.77,229.77,879.95,229.42L879.95,229.42z"/>
				</g>
				<g>
					<g>
						<path class="st7" d="M410.12,270.94l-38.65,6.15c6.44,13.83,4.16,29.09,0.99,42.89c13.42,0.44,27.07,5.93,40.15,2.64
							C419.06,306.72,415.87,286.99,410.12,270.94z"/>
						<path class="st8" d="M411.88,266.55l-38.65,6.15c6.43,13.83,4.16,29.09,0.99,42.89c13.42,0.44,27.07,5.93,40.15,2.64
							C414.02,303.24,415.19,283.92,411.88,266.55z"/>
					</g>
					<path class="st7" d="M385.35,286.42c5.71-2.04,11.51-3.03,17.43-3.05c0.73,0,0.73-1.47,0-1.46c-6.01,0.02-11.93,1.03-17.73,3.1
						C384.36,285.26,384.65,286.67,385.35,286.42L385.35,286.42z"/>
					<path class="st7" d="M386.71,292.13c7.07-2.59,14.38-3.55,21.63-4.83c0.72-0.13,0.41-1.54-0.3-1.41
						c-7.26,1.28-14.57,2.24-21.63,4.83C385.71,290.98,386.01,292.39,386.71,292.13L386.71,292.13z"/>
					<path class="st7" d="M385.54,297.87c6.78-0.53,13.16-3.9,19.76-5.74c0.71-0.2,0.41-1.61-0.3-1.41
						c-6.49,1.81-12.78,5.16-19.46,5.68C384.82,296.46,384.82,297.92,385.54,297.87L385.54,297.87z"/>
					<path class="st7" d="M388.73,302.23c6.97-2.26,13.97-4.42,20.96-6.59c0.71-0.22,0.41-1.63-0.3-1.41
						c-6.99,2.16-13.98,4.33-20.96,6.59C387.73,301.05,388.03,302.46,388.73,302.23L388.73,302.23z"/>
				</g>
				<g>
					<g>
						<path class="st4" d="M497.28,271.71l-38.65,6.15c6.43,13.83,4.16,29.09,0.99,42.89c13.42,0.44,27.07,5.93,40.15,2.64
							C506.22,307.49,503.03,287.76,497.28,271.71z"/>
						<path class="st5" d="M499.04,267.32l-38.65,6.15c6.43,13.83,4.16,29.09,0.99,42.89c13.42,0.44,27.07,5.93,40.15,2.64
							C507.97,303.1,504.79,283.36,499.04,267.32z"/>
					</g>
					<path class="st4" d="M470.38,284.85c7.42-2.04,14.96-3.03,22.64-3.05c0.94,0,0.94-1.47,0-1.46c-7.81,0.02-15.49,1.03-23.03,3.1
						C469.08,283.69,469.47,285.1,470.38,284.85L470.38,284.85z"/>
					<path class="st4" d="M472.14,290.56c9.18-2.59,18.68-3.55,28.11-4.83c0.93-0.13,0.53-1.54-0.39-1.41
						c-9.43,1.28-18.92,2.24-28.11,4.83C470.84,289.4,471.23,290.81,472.14,290.56L472.14,290.56z"/>
					<path class="st4" d="M470.63,296.29c8.82-0.53,17.1-3.9,25.67-5.74c0.92-0.2,0.53-1.61-0.39-1.41
						c-8.43,1.81-16.6,5.16-25.28,5.68C469.69,294.89,469.68,296.35,470.63,296.29L470.63,296.29z"/>
					<path class="st4" d="M474.77,300.66c9.06-2.26,18.14-4.42,27.23-6.59c0.92-0.22,0.53-1.63-0.39-1.41
						c-9.08,2.16-18.17,4.33-27.23,6.59C473.47,299.48,473.86,300.89,474.77,300.66L474.77,300.66z"/>
				</g>
				<g>
					<g>
						<path class="st9" d="M363.96,405.74l-33.38,1.76c4.39,14.03-1.1,30.37,4.55,44.67c9.25-1.13,21.46-0.41,30.46-3.53
							C366.28,435.7,368.17,417.73,363.96,405.74z"/>
						<path class="st6" d="M366.6,402.23l-33.38,1.76c4.39,14.04-1.1,30.37,4.55,44.67c9.25-1.13,21.46-0.41,30.46-3.53
							C368.91,432.18,370.81,414.22,366.6,402.23z"/>
					</g>
					<path class="st9" d="M340.02,417.91c1.95,0.83,4.74-0.03,6.71-0.39c3.01-0.56,5.99-1.34,9.03-1.7c0.93-0.11,0.94-1.57,0-1.46
						c-2.68,0.32-5.33,0.95-7.98,1.48c-1.37,0.27-2.74,0.53-4.12,0.73c-0.8,0.11-2.13,0.43-2.91,0.09
						C339.9,416.28,339.15,417.54,340.02,417.91L340.02,417.91z"/>
					<path class="st9" d="M338.19,423.28c8.27-0.95,16.34-3.07,24.35-5.3c0.91-0.25,0.52-1.66-0.39-1.41
						c-7.88,2.18-15.82,4.31-23.96,5.24C337.27,421.92,337.26,423.39,338.19,423.28L338.19,423.28z"/>
					<path class="st9" d="M340.83,427.24c4.54-0.61,8.91-2.09,13.37-3.1c0.92-0.21,0.53-1.62-0.39-1.41
						c-4.32,0.98-8.58,2.46-12.98,3.05C339.91,425.89,339.89,427.36,340.83,427.24L340.83,427.24z"/>
					<path class="st9" d="M341.95,429.51c0.57,0.91,1.93,0.8,2.86,0.74c1.93-0.13,3.85-0.57,5.73-1c4.04-0.92,8.07-2.05,12-3.36
						c0.89-0.3,0.51-1.71-0.39-1.41c-3.31,1.1-6.67,2.04-10.05,2.89c-1.92,0.48-3.85,0.92-5.8,1.23c-0.44,0.07-2.87,0.5-3.08,0.17
						C342.72,427.97,341.45,428.71,341.95,429.51L341.95,429.51z"/>
					<path class="st9" d="M343.27,430.96c-0.45,0.71-0.89,0.78-0.98,1.69c-0.04,0.4,0.36,0.73,0.73,0.73
						c4.88-0.03,9.7-0.88,14.25-2.66c0.87-0.34,0.49-1.76-0.39-1.41c-4.44,1.74-9.1,2.58-13.86,2.61c0.24,0.24,0.49,0.49,0.73,0.73
						c0.02-0.2,0.65-0.75,0.78-0.95C345.04,430.9,343.78,430.17,343.27,430.96L343.27,430.96z"/>
					<path class="st9" d="M347.92,435.04c2.43,1.63,5.96,1,8.71,0.98c0.94-0.01,0.94-1.47,0-1.46c-2.46,0.02-5.81,0.67-7.98-0.78
						C347.88,433.25,347.14,434.52,347.92,435.04L347.92,435.04z"/>
				</g>
				<g>
					<g>
						<path class="st9" d="M1009.12,336.19l-33.38,1.76c4.39,14.03-1.1,30.37,4.55,44.67c9.25-1.13,21.46-0.41,30.46-3.53
							C1011.43,366.14,1013.33,348.18,1009.12,336.19z"/>
						<path class="st6" d="M1011.76,332.67l-33.38,1.76c4.39,14.04-1.1,30.37,4.55,44.67c9.25-1.13,21.46-0.41,30.46-3.53
							C1014.07,362.63,1015.97,344.66,1011.76,332.67z"/>
					</g>
					<path class="st9" d="M985.18,348.36c1.95,0.83,4.74-0.03,6.71-0.39c3.01-0.56,5.99-1.34,9.03-1.7c0.93-0.11,0.94-1.57,0-1.46
						c-2.68,0.32-5.33,0.95-7.98,1.48c-1.37,0.27-2.74,0.53-4.12,0.72c-0.8,0.11-2.12,0.43-2.91,0.09
						C985.06,346.73,984.31,347.99,985.18,348.36L985.18,348.36z"/>
					<path class="st9" d="M983.35,353.73c8.27-0.95,16.34-3.07,24.35-5.3c0.91-0.25,0.52-1.66-0.39-1.41
						c-7.88,2.18-15.82,4.31-23.96,5.24C982.42,352.37,982.41,353.84,983.35,353.73L983.35,353.73z"/>
					<path class="st9" d="M985.98,357.68c4.54-0.61,8.91-2.09,13.37-3.1c0.92-0.21,0.53-1.62-0.39-1.41
						c-4.32,0.98-8.58,2.46-12.98,3.05C985.06,356.34,985.05,357.81,985.98,357.68L985.98,357.68z"/>
					<path class="st9" d="M987.11,359.95c0.57,0.91,1.93,0.8,2.86,0.74c1.93-0.13,3.85-0.57,5.73-1c4.04-0.92,8.07-2.05,12-3.36
						c0.89-0.3,0.51-1.71-0.39-1.41c-3.31,1.1-6.67,2.04-10.05,2.89c-1.92,0.48-3.85,0.92-5.8,1.23c-0.44,0.07-2.87,0.5-3.08,0.17
						C987.87,358.42,986.61,359.15,987.11,359.95L987.11,359.95z"/>
					<path class="st9" d="M988.43,361.41c-0.45,0.71-0.89,0.78-0.98,1.69c-0.04,0.4,0.36,0.73,0.73,0.73
						c4.88-0.03,9.7-0.88,14.25-2.66c0.87-0.34,0.49-1.76-0.39-1.41c-4.44,1.74-9.1,2.58-13.86,2.61c0.24,0.24,0.49,0.49,0.73,0.73
						c0.02-0.2,0.65-0.75,0.78-0.95C990.2,361.35,988.93,360.62,988.43,361.41L988.43,361.41z"/>
					<path class="st9" d="M993.08,365.49c2.43,1.63,5.96,1,8.71,0.98c0.94-0.01,0.94-1.47,0-1.46c-2.46,0.02-5.81,0.67-7.98-0.78
						C993.03,363.7,992.3,364.96,993.08,365.49L993.08,365.49z"/>
				</g>
				<g>
					<g>
						<path class="st9" d="M659.87,354.18l-33.38,1.76c4.39,14.03-1.1,30.37,4.55,44.67c9.25-1.13,21.46-0.41,30.46-3.53
							C662.18,384.14,664.08,366.17,659.87,354.18z"/>
						<path class="st6" d="M662.51,350.67l-33.38,1.76c4.39,14.04-1.1,30.37,4.55,44.67c9.25-1.13,21.46-0.41,30.46-3.53
							C664.82,380.62,666.71,362.66,662.51,350.67z"/>
					</g>
					<path class="st9" d="M635.93,366.35c1.95,0.83,4.74-0.03,6.71-0.39c3.01-0.56,5.99-1.34,9.03-1.7c0.93-0.11,0.94-1.57,0-1.46
						c-2.68,0.32-5.33,0.95-7.98,1.48c-1.37,0.27-2.74,0.53-4.12,0.73c-0.8,0.11-2.13,0.43-2.91,0.09
						C635.81,364.72,635.06,365.98,635.93,366.35L635.93,366.35z"/>
					<path class="st9" d="M634.1,371.72c8.27-0.95,16.34-3.07,24.35-5.3c0.91-0.25,0.52-1.66-0.39-1.41
						c-7.88,2.18-15.82,4.31-23.96,5.24C633.17,370.36,633.16,371.83,634.1,371.72L634.1,371.72z"/>
					<path class="st9" d="M636.73,375.67c4.54-0.61,8.91-2.09,13.37-3.1c0.92-0.21,0.53-1.62-0.39-1.41
						c-4.32,0.98-8.58,2.46-12.98,3.05C635.81,374.33,635.8,375.8,636.73,375.67L636.73,375.67z"/>
					<path class="st9" d="M637.86,377.95c0.57,0.91,1.93,0.8,2.86,0.74c1.93-0.13,3.85-0.57,5.73-1c4.04-0.92,8.07-2.05,12-3.36
						c0.89-0.3,0.51-1.71-0.39-1.41c-3.31,1.1-6.67,2.04-10.05,2.89c-1.92,0.48-3.85,0.92-5.8,1.23c-0.44,0.07-2.87,0.5-3.08,0.17
						C638.62,376.41,637.36,377.14,637.86,377.95L637.86,377.95z"/>
					<path class="st9" d="M639.18,379.4c-0.45,0.71-0.89,0.78-0.98,1.69c-0.04,0.4,0.36,0.73,0.73,0.73
						c4.88-0.03,9.7-0.88,14.25-2.66c0.87-0.34,0.49-1.76-0.39-1.41c-4.44,1.74-9.1,2.58-13.86,2.61c0.24,0.24,0.49,0.49,0.73,0.73
						c0.02-0.2,0.65-0.75,0.78-0.95C640.95,379.34,639.68,378.61,639.18,379.4L639.18,379.4z"/>
					<path class="st9" d="M643.83,383.48c2.43,1.63,5.96,1,8.71,0.98c0.94-0.01,0.94-1.47,0-1.46c-2.46,0.02-5.81,0.67-7.98-0.78
						C643.78,381.69,643.05,382.96,643.83,383.48L643.83,383.48z"/>
				</g>
				<g>
					<g>
						<path class="st10" d="M444,411.81c-4.44-12.03-8.4-24.45-11.48-37.38c-7.33,9.32-34.52,10.61-34.52,10.61
							c5.89,12.84,11.49,29.34,11.5,43.14C421.13,424.08,433.13,417.99,444,411.81z"/>
						<path class="st11" d="M444.8,407.97c-4.44-12.03-8.4-24.45-11.48-37.38c-7.33,9.32-34.52,10.61-34.52,10.61
							c5.89,12.84,11.49,29.34,11.5,43.14C421.94,420.23,433.93,414.14,444.8,407.97z"/>
					</g>
					<path class="st10" d="M412.86,390.53c2.71,0.99,5.88-0.18,8.4-1.21c3.08-1.25,5.98-2.9,8.81-4.62c0.8-0.49,0.07-1.76-0.74-1.27
						c-2.44,1.49-4.93,2.89-7.54,4.08c-2.45,1.11-5.84,2.6-8.55,1.61C412.36,388.8,411.98,390.21,412.86,390.53L412.86,390.53z"/>
					<path class="st10" d="M414.99,396.4c3.17-1.39,6.59-2.14,9.79-3.46c0.86-0.35,0.5-1.77-0.37-1.42
						c-3.32,1.37-6.85,2.17-10.15,3.61C413.39,395.52,414.14,396.78,414.99,396.4L414.99,396.4z"/>
					<path class="st10" d="M414.45,398.29c3.78,1.59,8.15-0.7,11.65-2.06c0.87-0.34,0.51-1.76-0.37-1.42
						c-3.23,1.26-7.39,3.53-10.88,2.07C413.97,396.51,413.59,397.93,414.45,398.29L414.45,398.29z"/>
					<path class="st10" d="M412.87,405.59c5.84-3.41,12.46-5.09,18.68-7.63c0.86-0.35,0.5-1.77-0.37-1.42
						c-6.34,2.58-13.09,4.3-19.04,7.78C411.32,404.8,412.06,406.07,412.87,405.59L412.87,405.59z"/>
					<path class="st10" d="M416.9,409.56c4.06-1.57,8.13-3.12,12.05-5.02c0.85-0.41,0.11-1.68-0.74-1.27
						c-3.8,1.84-7.74,3.35-11.69,4.87C415.65,408.48,416.02,409.9,416.9,409.56L416.9,409.56z"/>
					<path class="st10" d="M418.4,412.12c1.45,0.62,3.47-0.58,4.76-1.16c2.25-1.01,4.44-2.2,6.57-3.45
						c0.81-0.48,0.08-1.75-0.74-1.27c-1.72,1.01-3.48,1.96-5.27,2.84c-0.95,0.47-1.91,0.91-2.9,1.29c-0.34,0.13-1.42,0.6-1.69,0.49
						C418.28,410.48,417.53,411.74,418.4,412.12L418.4,412.12z"/>
				</g>
				<g>
					<g>
						<path class="st12" d="M437.68,296.21c-4.44-12.03-8.4-24.45-11.48-37.38c-7.33,9.32-34.52,10.61-34.52,10.61
							c5.89,12.84,11.49,29.34,11.5,43.14C414.81,308.47,426.81,302.39,437.68,296.21z"/>
						<path class="st11" d="M438.48,292.37c-4.44-12.03-8.4-24.45-11.48-37.38c-25.1,7.57-35.32,14.45-35.32,14.45
							c5.89,12.84,12.3,25.49,12.3,39.3C415.61,304.63,427.61,298.54,438.48,292.37z"/>
					</g>
					<path class="st10" d="M406.54,274.93c2.71,0.99,5.88-0.18,8.4-1.21c3.08-1.25,5.98-2.9,8.81-4.62c0.8-0.49,0.07-1.76-0.74-1.27
						c-2.44,1.49-4.93,2.89-7.54,4.08c-2.45,1.11-5.84,2.6-8.55,1.61C406.04,273.19,405.66,274.61,406.54,274.93L406.54,274.93z"/>
					<path class="st10" d="M408.67,280.8c3.17-1.39,6.59-2.14,9.79-3.46c0.86-0.36,0.5-1.78-0.37-1.42
						c-3.32,1.37-6.85,2.17-10.15,3.61C407.07,279.91,407.81,281.18,408.67,280.8L408.67,280.8z"/>
					<path class="st10" d="M408.13,282.69c3.78,1.59,8.15-0.7,11.65-2.06c0.87-0.34,0.51-1.76-0.37-1.42
						c-3.23,1.26-7.39,3.53-10.88,2.07C407.65,280.91,407.27,282.33,408.13,282.69L408.13,282.69z"/>
					<path class="st10" d="M406.55,289.99c5.84-3.41,12.46-5.09,18.68-7.63c0.86-0.35,0.5-1.77-0.37-1.42
						c-6.34,2.58-13.1,4.3-19.04,7.78C405,289.2,405.74,290.47,406.55,289.99L406.55,289.99z"/>
					<path class="st10" d="M410.58,293.95c4.06-1.57,8.13-3.12,12.05-5.02c0.85-0.41,0.11-1.68-0.74-1.27
						c-3.8,1.84-7.75,3.35-11.69,4.87C409.33,292.87,409.7,294.29,410.58,293.95L410.58,293.95z"/>
					<path class="st10" d="M412.08,296.51c1.45,0.62,3.47-0.58,4.76-1.16c2.25-1.01,4.44-2.2,6.57-3.45
						c0.81-0.48,0.08-1.75-0.74-1.27c-1.72,1.01-3.48,1.96-5.27,2.84c-0.95,0.47-1.91,0.91-2.9,1.29c-0.34,0.13-1.42,0.6-1.69,0.49
						C411.96,294.88,411.21,296.14,412.08,296.51L412.08,296.51z"/>
				</g>
				<g>
					<g>
						<path class="st10" d="M548.62,230.45c-1.22-12.77-1.88-25.78-1.56-39.07c-9.47,7.14-36.08,1.45-36.08,1.45
							c2.41,13.92,3.63,31.3,0.11,44.65C523.38,236.48,536.53,233.65,548.62,230.45z"/>
						<path class="st11" d="M550.38,226.94c-1.22-12.77-1.88-25.78-1.56-39.07c-9.47,7.14-36.08,1.45-36.08,1.45
							c2.41,13.92,3.63,31.3,0.11,44.65C525.14,232.96,538.29,230.14,550.38,226.94z"/>
					</g>
					<path class="st10" d="M523.94,201.93c2.36,1.65,5.74,1.32,8.43,0.98c3.29-0.42,6.52-1.27,9.7-2.22
						c0.9-0.27,0.52-1.68-0.39-1.41c-2.74,0.82-5.51,1.54-8.33,2.02c-2.65,0.45-6.31,1.02-8.68-0.63
						C523.9,200.12,523.17,201.39,523.94,201.93L523.94,201.93z"/>
					<path class="st10" d="M524.5,208.15c3.42-0.53,6.91-0.39,10.35-0.85c0.92-0.12,0.93-1.59,0-1.46
						c-3.56,0.48-7.18,0.35-10.74,0.9C523.18,206.89,523.58,208.3,524.5,208.15L524.5,208.15z"/>
					<path class="st10" d="M523.5,209.84c3.25,2.5,8.06,1.4,11.79,0.98c0.93-0.11,0.94-1.57,0-1.46c-3.45,0.39-8.05,1.53-11.05-0.78
						C523.49,208,522.76,209.27,523.5,209.84L523.5,209.84z"/>
					<path class="st10" d="M520.11,216.5c6.51-1.8,13.35-1.74,20.01-2.61c0.92-0.12,0.93-1.59,0-1.46
						c-6.79,0.88-13.76,0.82-20.4,2.66C518.81,215.34,519.2,216.75,520.11,216.5L520.11,216.5z"/>
					<path class="st10" d="M522.99,221.36c4.33-0.48,8.65-0.95,12.93-1.78c0.93-0.18,0.53-1.59-0.39-1.41
						c-4.15,0.81-8.34,1.27-12.54,1.73C522.06,219.99,522.05,221.46,522.99,221.36L522.99,221.36z"/>
					<path class="st10" d="M523.79,224.22c1.24,0.97,3.5,0.33,4.9,0.09c2.44-0.4,4.86-0.99,7.23-1.66c0.91-0.26,0.52-1.67-0.39-1.41
						c-1.92,0.54-3.86,1-5.82,1.4c-1.04,0.21-2.08,0.39-3.13,0.51c-0.36,0.04-1.53,0.22-1.76,0.04
						C524.09,222.61,523.05,223.63,523.79,224.22L523.79,224.22z"/>
				</g>
				<g>
					<g>
						<path class="st7" d="M931.22,304.29c1.98-12.67,4.56-25.45,8.15-38.24c-10.94,4.58-35.32-7.52-35.32-7.52
							c-1.1,14.08-4.22,31.23-10.93,43.29C905.28,303.88,918.72,304.4,931.22,304.29z"/>
						<path class="st8" d="M933.79,301.32c1.98-12.67,4.56-25.45,8.15-38.24c-14.43-3.39-35.32-7.52-35.32-7.52
							c-1.1,14.08-4.22,31.23-10.93,43.29C907.85,300.91,921.29,301.43,933.79,301.32z"/>
					</g>
					<path class="st7" d="M914.36,270.55c1.88,2.18,5.23,2.7,7.93,3.03c3.3,0.41,6.64,0.38,9.95,0.25c0.94-0.04,0.92-1.5-0.03-1.46
						c-2.86,0.12-5.72,0.13-8.57-0.1c-2.68-0.22-6.37-0.57-8.25-2.75C914.77,268.79,913.75,269.84,914.36,270.55L914.36,270.55z"/>
					<path class="st7" d="M913.37,276.72c3.45,0.33,6.8,1.33,10.24,1.73c0.92,0.11,1.3-1.31,0.36-1.42
						c-3.57-0.42-7.05-1.43-10.63-1.78C912.4,275.17,912.44,276.63,913.37,276.72L913.37,276.72z"/>
					<path class="st7" d="M911.98,278.1c2.53,3.23,7.47,3.35,11.18,3.86c0.92,0.13,1.3-1.29,0.36-1.42
						c-3.44-0.47-8.18-0.51-10.51-3.49C912.42,276.32,911.4,277.37,911.98,278.1L911.98,278.1z"/>
					<path class="st7" d="M907.05,283.72c6.76-0.14,13.36,1.61,20.03,2.42c0.92,0.11,1.3-1.3,0.36-1.42
						c-6.8-0.83-13.54-2.61-20.42-2.47C906.08,282.27,906.1,283.74,907.05,283.72L907.05,283.72z"/>
					<path class="st7" d="M908.64,289.14c4.31,0.61,8.62,1.22,12.97,1.47c0.94,0.05,0.91-1.41-0.03-1.46
						c-4.22-0.24-8.4-0.84-12.58-1.43C908.07,287.59,907.7,289.01,908.64,289.14L908.64,289.14z"/>
					<path class="st7" d="M908.71,292.11c0.96,1.25,3.31,1.18,4.72,1.3c2.46,0.21,4.95,0.24,7.42,0.18
						c0.94-0.02,0.92-1.49-0.03-1.46c-1.99,0.05-3.99,0.02-5.98-0.08c-1.06-0.05-2.11-0.14-3.16-0.29
						c-0.36-0.05-1.54-0.17-1.71-0.39C909.39,290.62,908.13,291.36,908.71,292.11L908.71,292.11z"/>
				</g>
				<g>
					<g class="st13">
						<g>
							<path class="st7" d="M644.3,317.3c0.01-0.03,0.01-0.05,0.01-0.08c-0.02,0-0.05,0.01-0.07,0.01
								C643.93,317.55,643.95,317.57,644.3,317.3z"/>
							<path class="st7" d="M741.63,239c1.77-21.76,2.01-43.62,2.68-65.37c-3.81-0.51-7.68-0.84-11.58-1.05
								c-0.13-0.02-0.25-0.04-0.39-0.05c-0.19-0.02-0.37-0.01-0.56,0c-9.77-0.49-19.69-0.25-29.26-0.1
								c-11.48,0.19-23.85-0.38-35.34,0.67l-14.85-0.31c-0.21-0.06-0.43-0.1-0.65-0.12c-0.39-0.03-0.77,0-1.13,0.08l-11.04-0.23
								c7.42,20.79,6.63,50.23,7.76,72.25c1.21,23.61,1.31,49.05-2.97,72.45c13.93-2.64,31.28,4.61,46.09,4.13
								c13.71-0.45,28.66-2.9,41.47-5.33c0.39-11.25,4.67-22.59,6.24-33.81C740.09,267.98,740.47,253.33,741.63,239z"/>
						</g>
					</g>
					<g>
						<g>
							<g>
								<path class="st14" d="M655.33,310.53c0-0.03,0.01-0.05,0.01-0.08c-0.02,0.01-0.05,0.01-0.07,0.02
									C654.99,310.81,655.01,310.83,655.33,310.53z"/>
								<path class="st14" d="M745.98,224.58c0-21.83-1.54-43.64-2.64-65.37c-13.79-0.7-28.11,0.86-41.74,2.2
									c-11.42,1.12-23.8,1.56-35.17,3.54l-27.63,1.67c9.08,20.12,10.69,49.52,13.6,71.38c3.13,23.44,5.29,48.78,2.92,72.45
									c13.67-3.77,31.55,2.05,46.27,0.37c13.63-1.56,28.33-5.22,40.9-8.68c-0.52-11.24,2.82-22.89,3.47-34.21
									C746.8,253.59,745.98,238.95,745.98,224.58z"/>
							</g>
							<g>
								<path class="st15" d="M669.57,197.84c3.78,1.07,8.02-0.22,11.63-1.37c4.74-1.51,9.28-3.49,14.06-4.93
									c11.64-3.5,23.61-6.02,35.83-5.47c1.35,0.06,1.34-2.03,0-2.09c-11.61-0.53-23,1.7-34.12,4.88
									c-4.78,1.37-9.34,3.08-13.99,4.79c-3.81,1.4-8.76,3.33-12.85,2.17C668.83,195.46,668.28,197.48,669.57,197.84L669.57,197.84
									z"/>
								<path class="st15" d="M669.72,208.8c18.74-10.81,40.56-17.4,62.03-19.78c1.33-0.15,1.34-2.24,0-2.09
									c-21.84,2.42-44,9.05-63.08,20.06C667.5,207.67,668.55,209.48,669.72,208.8L669.72,208.8z"/>
								<path class="st15" d="M664.45,214.7c17.83-8.02,37.84-8.26,56.38-13.91c1.29-0.39,0.74-2.41-0.56-2.02
									c-18.73,5.71-38.86,6.01-56.88,14.12C662.17,213.45,663.23,215.25,664.45,214.7L664.45,214.7z"/>
								<path class="st15" d="M673.42,217.02c16.5-2.22,32.99-4.45,49.38-7.38c1.33-0.24,0.76-2.25-0.56-2.02
									c-16.39,2.93-32.89,5.16-49.38,7.38C671.53,215.18,672.1,217.2,673.42,217.02L673.42,217.02z"/>
								<path class="st15" d="M672.21,227.35c2.67,0.69,5.54,0.26,8.22-0.19c4.21-0.7,8.34-1.88,12.43-3.08
									c8.18-2.39,16.29-5.45,24.68-7.06c1.32-0.25,0.76-2.27-0.56-2.02c-7.84,1.5-15.43,4.3-23.06,6.58
									c-4.05,1.21-8.12,2.36-12.26,3.22c-2.81,0.58-6.06,1.26-8.9,0.53C671.46,225,670.9,227.01,672.21,227.35L672.21,227.35z"/>
								<path class="st15" d="M676.44,235.5c10.9,0.78,22.17-2.12,32.54-5.2c1.29-0.38,0.74-2.4-0.56-2.02
									c-10.21,3.03-21.25,5.89-31.99,5.13C675.09,233.32,675.1,235.41,676.44,235.5L676.44,235.5z"/>
								<path class="st15" d="M682.28,243.31c3.65,3.79,11.27,1.64,15.6,0.55c5.9-1.48,11.81-3.6,17.28-6.29
									c1.21-0.6,0.15-2.4-1.06-1.81c-4.87,2.4-10.09,4.23-15.31,5.69c-2.94,0.82-5.95,1.49-9,1.71c-1.95,0.14-4.56,0.19-6.03-1.33
									C682.82,240.86,681.35,242.34,682.28,243.31L682.28,243.31z"/>
								<path class="st15" d="M693.94,254.65c5.15,1.55,10.65,0.92,15.88,0.19c6.2-0.86,12.36-2.31,18.64-2.37
									c1.35-0.01,1.35-2.1,0-2.09c-5.58,0.05-11.09,1.17-16.58,2.05c-5.64,0.9-11.79,1.89-17.38,0.2
									C693.2,252.24,692.65,254.26,693.94,254.65L693.94,254.65z"/>
								<path class="st15" d="M671.45,269.4c18.23-5.39,37.89-2.74,55.97-8.85c1.27-0.43,0.73-2.45-0.56-2.02
									c-18.08,6.11-37.73,3.47-55.97,8.85C669.6,267.77,670.15,269.79,671.45,269.4L671.45,269.4z"/>
								<path class="st15" d="M679.73,282.72c14.54-1.05,27.53-9.42,42.14-10.33c1.34-0.08,1.35-2.18,0-2.09
									c-7.25,0.45-14.24,2.65-21.1,4.88c-6.83,2.22-13.81,4.93-21.04,5.45C678.39,280.72,678.38,282.82,679.73,282.72
									L679.73,282.72z"/>
								<path class="st15" d="M685.57,284.62c-0.88,0.74-1.86,0.73-2.24,1.94c-0.19,0.59,0.34,1.41,1.01,1.32
									c10.61-1.41,21.45-0.17,31.88-2.99c1.3-0.35,0.75-2.37-0.56-2.02c-10.25,2.76-20.9,1.52-31.33,2.91
									c0.34,0.44,0.67,0.88,1.01,1.33c0.05-0.15,1.46-0.8,1.71-1.01C688.09,285.23,686.6,283.76,685.57,284.62L685.57,284.62z"/>
								<path class="st15" d="M701.18,290.8c4.29,1.68,9.4-0.02,13.73-0.74c1.33-0.22,0.76-2.24-0.56-2.02
									c-3.98,0.66-8.68,2.28-12.61,0.74C700.48,288.29,699.94,290.31,701.18,290.8L701.18,290.8z"/>
							</g>
						</g>
						<path class="st16" d="M654.72,169.55c0,2.08-1.69,3.77-3.77,3.77c-2.08,0-3.77-1.69-3.77-3.77c0-2.08,1.69-3.77,3.77-3.77
							C653.03,165.78,654.72,167.47,654.72,169.55z"/>
						<path class="st17" d="M735.1,162.85c0,2.08-1.69,3.77-3.77,3.77c-2.08,0-3.77-1.69-3.77-3.77c0-2.08,1.69-3.77,3.77-3.77
							C733.41,159.09,735.1,160.77,735.1,162.85z"/>
					</g>
				</g>
				<g>
					<g>
						<path class="st10" d="M828.3,304.55c-1.22-12.77-1.88-25.78-1.56-39.07c-9.47,7.14-36.08,1.45-36.08,1.45
							c2.41,13.92,3.63,31.3,0.11,44.65C803.07,310.58,816.22,307.75,828.3,304.55z"/>
						<path class="st11" d="M830.06,301.04c-1.22-12.77-1.88-25.78-1.56-39.07c-9.47,7.14-36.08,1.45-36.08,1.45
							c2.41,13.92,3.63,31.3,0.11,44.65C804.82,307.06,817.97,304.23,830.06,301.04z"/>
					</g>
					<path class="st10" d="M803.62,276.03c2.36,1.65,5.74,1.32,8.43,0.98c3.29-0.42,6.52-1.27,9.7-2.22
						c0.9-0.27,0.52-1.68-0.39-1.41c-2.74,0.82-5.51,1.54-8.33,2.02c-2.65,0.45-6.31,1.02-8.68-0.63
						C803.59,274.22,802.85,275.49,803.62,276.03L803.62,276.03z"/>
					<path class="st10" d="M804.19,282.25c3.42-0.53,6.92-0.39,10.35-0.85c0.92-0.12,0.93-1.59,0-1.46
						c-3.56,0.48-7.18,0.35-10.74,0.9C802.87,280.99,803.26,282.4,804.19,282.25L804.19,282.25z"/>
					<path class="st10" d="M803.18,283.94c3.25,2.5,8.06,1.4,11.79,0.98c0.93-0.11,0.94-1.57,0-1.46
						c-3.45,0.39-8.05,1.53-11.05-0.78C803.17,282.1,802.45,283.37,803.18,283.94L803.18,283.94z"/>
					<path class="st10" d="M799.8,290.6c6.51-1.8,13.35-1.75,20.01-2.61c0.92-0.12,0.93-1.59,0-1.46
						c-6.79,0.88-13.76,0.82-20.4,2.66C798.5,289.44,798.88,290.85,799.8,290.6L799.8,290.6z"/>
					<path class="st10" d="M802.68,295.45c4.33-0.48,8.65-0.95,12.93-1.78c0.93-0.18,0.53-1.59-0.39-1.41
						c-4.15,0.81-8.34,1.27-12.54,1.73C801.75,294.09,801.74,295.56,802.68,295.45L802.68,295.45z"/>
					<path class="st10" d="M803.47,298.31c1.24,0.97,3.5,0.33,4.9,0.09c2.44-0.4,4.86-0.99,7.23-1.66c0.91-0.26,0.52-1.67-0.39-1.41
						c-1.92,0.54-3.86,1-5.82,1.4c-1.04,0.21-2.08,0.39-3.13,0.51c-0.36,0.04-1.53,0.22-1.76,0.04
						C803.78,296.71,802.73,297.73,803.47,298.31L803.47,298.31z"/>
				</g>
				<g>
					<g>
						<path class="st10" d="M352.82,385.35c-1.22-12.77-1.88-25.78-1.56-39.07c-9.47,7.14-36.08,1.45-36.08,1.45
							c2.41,13.92,3.63,31.3,0.11,44.65C327.58,391.37,340.74,388.54,352.82,385.35z"/>
						<path class="st11" d="M354.58,381.83c-1.22-12.77-1.88-25.78-1.56-39.07c-9.47,7.14-36.08,1.45-36.08,1.45
							c2.41,13.92,3.63,31.3,0.11,44.65C329.34,387.85,342.49,385.03,354.58,381.83z"/>
					</g>
					<path class="st10" d="M328.14,356.82c2.36,1.65,5.74,1.32,8.43,0.98c3.29-0.42,6.52-1.27,9.7-2.22
						c0.9-0.27,0.52-1.68-0.39-1.41c-2.74,0.82-5.51,1.54-8.33,2.02c-2.65,0.45-6.31,1.02-8.68-0.63
						C328.11,355.02,327.37,356.29,328.14,356.82L328.14,356.82z"/>
					<path class="st10" d="M328.71,363.05c3.42-0.53,6.91-0.39,10.35-0.85c0.92-0.12,0.93-1.59,0-1.46
						c-3.56,0.48-7.18,0.35-10.74,0.9C327.39,361.78,327.78,363.19,328.71,363.05L328.71,363.05z"/>
					<path class="st10" d="M327.7,364.73c3.25,2.5,8.06,1.4,11.79,0.98c0.93-0.11,0.94-1.57,0-1.46c-3.45,0.39-8.05,1.53-11.05-0.78
						C327.69,362.89,326.97,364.16,327.7,364.73L327.7,364.73z"/>
					<path class="st10" d="M324.31,371.39c6.51-1.81,13.35-1.74,20.01-2.61c0.92-0.12,0.93-1.59,0-1.46
						c-6.79,0.88-13.76,0.82-20.4,2.66C323.02,370.23,323.4,371.64,324.31,371.39L324.31,371.39z"/>
					<path class="st10" d="M327.19,376.25c4.33-0.48,8.65-0.95,12.93-1.78c0.93-0.18,0.53-1.59-0.39-1.41
						c-4.15,0.81-8.34,1.27-12.54,1.73C326.27,374.89,326.26,376.35,327.19,376.25L327.19,376.25z"/>
					<path class="st10" d="M327.99,379.11c1.24,0.97,3.5,0.33,4.9,0.09c2.44-0.4,4.86-0.99,7.23-1.66c0.91-0.26,0.52-1.67-0.39-1.41
						c-1.92,0.54-3.86,1-5.82,1.4c-1.04,0.21-2.08,0.39-3.13,0.51c-0.36,0.04-1.53,0.22-1.76,0.04
						C328.3,377.5,327.25,378.53,327.99,379.11L327.99,379.11z"/>
				</g>
			</g>
			<g>
				<g>
					<g>
						<path class="st18" d="M682.05,524.45c0.41,5.94-4.07,10.75-10.01,10.75h-33.69c-5.94,0-10.15-4.81-9.41-10.75l8.51-68.09
							c0.74-5.94,4.64-10.75,8.7-10.75h23.06c4.06,0,7.69,4.81,8.1,10.75L682.05,524.45z"/>
						<path class="st19" d="M672.88,522.57c0.33,4.64-3.25,8.4-7.99,8.4h-26.91c-4.74,0-8.11-3.76-7.51-8.4l6.8-53.22
							c0.59-4.64,3.71-8.4,6.95-8.4h18.42c3.25,0,6.14,3.76,6.47,8.4L672.88,522.57z"/>
						<g>
							<path class="st18" d="M652.35,526.37c-9.79,0-17.75-7.96-17.75-17.74c0-9.78,7.96-17.75,17.75-17.75
								c9.78,0,17.74,7.96,17.74,17.75C670.1,518.41,662.14,526.37,652.35,526.37z M652.35,492.2c-9.06,0-16.42,7.37-16.42,16.42
								c0,9.06,7.37,16.42,16.42,16.42c9.06,0,16.42-7.37,16.42-16.42C668.78,499.57,661.41,492.2,652.35,492.2z"/>
							<path class="st18" d="M652.35,495.01c-7.51,0-13.61,6.11-13.61,13.61s6.11,13.61,13.61,13.61c7.51,0,13.61-6.11,13.61-13.61
								S659.86,495.01,652.35,495.01z"/>
						</g>
						<g>
							<path class="st18" d="M652.35,486.7c-5.53,0-10.03-4.5-10.03-10.03c0-5.53,4.5-10.03,10.03-10.03
								c5.53,0,10.03,4.5,10.03,10.03C662.39,482.2,657.89,486.7,652.35,486.7z M652.35,467.38c-5.12,0-9.29,4.17-9.29,9.29
								c0,5.12,4.17,9.29,9.29,9.29c5.12,0,9.29-4.17,9.29-9.29C661.64,471.54,657.48,467.38,652.35,467.38z"/>
							<path class="st18" d="M652.35,468.97c-4.25,0-7.7,3.45-7.7,7.7c0,4.25,3.45,7.7,7.7,7.7s7.7-3.45,7.7-7.7
								C660.05,472.42,656.6,468.97,652.35,468.97z"/>
						</g>
					</g>
					<g>
						<g>
							<g>
								<rect x="1118.19" y="553.77" class="st20" width="28.59" height="326.42"/>
								<rect x="1118.19" y="868.79" class="st21" width="28.59" height="11.4"/>
							</g>
							<path class="st22" d="M1129.35,834.55c0,2.04-1.31,3.69-2.92,3.69l0,0c-1.61,0-2.92-1.65-2.92-3.69V571.46
								c0-2.04,1.31-3.69,2.92-3.69l0,0c1.61,0,2.92,1.65,2.92,3.69V834.55z"/>
						</g>
						<g>
							<g>
								<rect x="914.32" y="553.77" class="st20" width="28.59" height="326.42"/>
								<rect x="914.32" y="868.79" class="st21" width="28.59" height="11.4"/>
							</g>
							<path class="st22" d="M925.48,834.55c0,2.04-1.31,3.69-2.92,3.69l0,0c-1.61,0-2.92-1.65-2.92-3.69V571.46
								c0-2.04,1.31-3.69,2.92-3.69l0,0c1.61,0,2.92,1.65,2.92,3.69V834.55z"/>
						</g>
						<g>
							<g>
								<rect x="587.28" y="553.77" class="st20" width="28.59" height="326.42"/>
								<rect x="587.28" y="868.79" class="st21" width="28.59" height="11.4"/>
							</g>
							<path class="st22" d="M598.44,834.55c0,2.04-1.31,3.69-2.92,3.69l0,0c-1.61,0-2.92-1.65-2.92-3.69V571.46
								c0-2.04,1.31-3.69,2.92-3.69l0,0c1.61,0,2.92,1.65,2.92,3.69V834.55z"/>
						</g>
						<g>
							<g>
								<rect x="384.24" y="553.77" class="st20" width="28.59" height="326.42"/>
								<rect x="384.24" y="868.79" class="st21" width="28.59" height="11.4"/>
							</g>
							<path class="st22" d="M395.41,834.55c0,2.04-1.31,3.69-2.92,3.69l0,0c-1.61,0-2.92-1.65-2.92-3.69V571.46
								c0-2.04,1.31-3.69,2.92-3.69l0,0c1.61,0,2.92,1.65,2.92,3.69V834.55z"/>
						</g>
						<g>
							<rect x="383.04" y="547.21" class="st23" width="765.29" height="25.12"/>
							<g>
								<rect x="359.6" y="536.33" class="st24" width="810.5" height="16.75"/>
								<rect x="947.51" y="536.33" class="st25" width="222.59" height="16.75"/>
							</g>
						</g>
					</g>
					<path class="st26" d="M447.2,493.96c-0.49-0.06-0.97-0.12-1.46-0.18C446.52,493.83,447.01,493.89,447.2,493.96z"/>
					<path class="st27" d="M448.02,640.1c-17.1,2.48,5.53,10.39-9.29,15.78l75.54,11.62c38.58-2.34,149.05,4.5,166.78,0
						c6.34-1.61,39.24-0.82,41.9-4.56C702.41,629.55,473.66,636.38,448.02,640.1z"/>
					<g>
						<g>
							<g>
								<rect x="800.49" y="459" class="st18" width="35.9" height="74.93"/>
								<rect x="800.49" y="459" class="st28" width="16.6" height="74.93"/>
								<g>
									<path class="st29" d="M900.37,531.25c0,2.59-2.1,4.68-4.68,4.68H741.18c-2.59,0-4.68-2.09-4.68-4.68
										c0-1.29,0.52-2.46,1.37-3.3c0.84-0.85,2.02-1.37,3.31-1.37h154.51C898.28,526.57,900.37,528.67,900.37,531.25z"/>
									<path class="st18" d="M900.37,531.25c0,2.59-1.47,4.68-3.28,4.68h-55.8c-1.81,0-3.28-2.09-3.28-4.68
										c0-1.29,0.37-2.46,0.96-3.3c0.59-0.85,1.41-1.37,2.32-1.37h55.8C898.9,526.57,900.37,528.67,900.37,531.25z"/>
								</g>
								<g>
									<path class="st18" d="M951.3,328.15v141.92c0,8.18-5.49,14.98-12.75,16.42c-0.93,0.19-1.88,0.28-2.86,0.28H685.98
										c-0.98,0-1.93-0.09-2.86-0.28c-7.25-1.44-12.75-8.24-12.75-16.42V328.15c0-9.22,6.99-16.69,15.61-16.69h249.71
										C944.31,311.45,951.3,318.93,951.3,328.15z"/>
									<path class="st30" d="M932.7,334.06v130.1c0,8.45-6.32,15.31-14.12,15.31H692.73c-7.8,0-14.12-6.85-14.12-15.31v-130.1
										c0-8.45,6.32-15.31,14.12-15.31h225.85C926.38,318.76,932.7,325.61,932.7,334.06z"/>
									<path class="st22" d="M933.45,449.42v21.09c0,8.35-5.16,15.3-11.97,16.76H681.56c-6.81-1.47-11.97-8.41-11.97-16.76v-21.09
										H933.45z"/>
								</g>
								<path class="st28" d="M805.18,462.97c0,3.23-3.49,5.85-7.8,5.85c-4.31,0-7.8-2.62-7.8-5.85c0-3.23,3.49-5.85,7.8-5.85
									C801.68,457.12,805.18,459.74,805.18,462.97z"/>
							</g>
							<g>
								<g>
									<rect x="688.65" y="326.96" class="st31" width="12.92" height="1.38"/>
									<rect x="757.87" y="326.96" class="st31" width="17.54" height="1.38"/>
									<rect x="779.1" y="326.96" class="st31" width="57.23" height="1.38"/>
									<polygon class="st31" points="875.56,328.34 875.56,326.96 840.02,326.96 840.02,328.34 852.94,328.34 852.94,327.42 
										857.1,327.42 857.1,328.34 									"/>
									<rect x="886.17" y="326.96" class="st31" width="14.31" height="1.38"/>
									<rect x="688.65" y="333.42" class="st31" width="12.92" height="1.38"/>
									<rect x="821.56" y="333.42" class="st31" width="14.77" height="1.38"/>
									<rect x="840.02" y="333.42" class="st31" width="12.92" height="1.38"/>
									<rect x="886.17" y="333.42" class="st31" width="14.31" height="1.38"/>
									<rect x="857.1" y="333.42" class="st31" width="18.46" height="1.38"/>
									<rect x="757.87" y="333.42" class="st31" width="17.54" height="1.38"/>
									<rect x="779.1" y="333.42" class="st31" width="35.54" height="1.38"/>
									<rect x="688.65" y="339.88" class="st31" width="12.92" height="1.38"/>
									<rect x="766.64" y="339.88" class="st31" width="48" height="1.38"/>
									<rect x="821.56" y="339.88" class="st31" width="2.77" height="1.38"/>
									<rect x="834.95" y="339.88" class="st31" width="18" height="1.38"/>
									<rect x="857.1" y="339.88" class="st31" width="18.46" height="1.38"/>
									<rect x="886.17" y="339.88" class="st31" width="14.31" height="1.38"/>
									<rect x="688.65" y="346.34" class="st31" width="12.92" height="1.38"/>
									<rect x="766.64" y="346.34" class="st31" width="48" height="1.38"/>
									<rect x="821.56" y="346.34" class="st31" width="2.77" height="1.38"/>
									<rect x="834.95" y="346.34" class="st31" width="40.61" height="1.38"/>
									<rect x="893.1" y="346.34" class="st31" width="7.38" height="1.38"/>
									<rect x="886.17" y="346.34" class="st31" width="5.08" height="1.38"/>
									<rect x="688.65" y="352.8" class="st31" width="37.38" height="1.38"/>
									<rect x="766.64" y="352.8" class="st31" width="11.54" height="1.38"/>
									<rect x="834.95" y="352.8" class="st31" width="56.3" height="1.38"/>
									<rect x="893.1" y="352.8" class="st31" width="7.38" height="1.38"/>
									<rect x="793.87" y="352.8" class="st31" width="14.31" height="1.38"/>
									<polygon class="st31" points="756.03,360.19 726.03,360.19 726.03,359.27 688.65,359.27 688.65,360.65 756.03,360.65 
																			"/>
									<rect x="793.87" y="359.27" class="st31" width="14.31" height="1.38"/>
									<polygon class="st31" points="834.95,359.27 834.95,360.19 830.33,360.19 830.33,360.65 860.33,360.65 860.33,359.27 
																			"/>
									<rect x="861.71" y="359.27" class="st31" width="29.54" height="1.38"/>
									<rect x="893.1" y="359.27" class="st31" width="7.38" height="1.38"/>
									<rect x="766.64" y="359.27" class="st31" width="11.54" height="1.38"/>
									<polygon class="st32" points="688.65,365.73 688.65,367.11 690.49,367.11 690.49,366.65 694.64,366.65 694.64,367.11 
										778.18,367.11 778.18,365.73 									"/>
									<rect x="793.87" y="365.73" class="st32" width="14.31" height="1.38"/>
									<rect x="830.33" y="365.73" class="st32" width="30" height="1.38"/>
									<rect x="861.71" y="365.73" class="st32" width="29.54" height="1.38"/>
									<rect x="893.1" y="365.73" class="st32" width="7.38" height="1.38"/>
									<rect x="688.65" y="372.19" class="st32" width="1.85" height="1.38"/>
									<rect x="694.64" y="372.19" class="st32" width="83.53" height="1.38"/>
									<rect x="793.87" y="372.19" class="st32" width="14.31" height="1.38"/>
									<rect x="830.33" y="372.19" class="st32" width="30" height="1.38"/>
									<rect x="861.71" y="372.19" class="st32" width="29.54" height="1.38"/>
									<rect x="893.1" y="372.19" class="st32" width="7.38" height="1.38"/>
									<rect x="694.64" y="378.65" class="st32" width="83.53" height="1.38"/>
									<rect x="793.87" y="378.65" class="st32" width="12" height="1.38"/>
									<rect x="830.33" y="378.65" class="st32" width="24.92" height="1.38"/>
									<rect x="878.79" y="378.65" class="st32" width="21.69" height="1.38"/>
									<rect x="865.87" y="378.65" class="st32" width="4.61" height="1.38"/>
									<rect x="830.33" y="385.11" class="st32" width="24.92" height="1.38"/>
									<rect x="865.87" y="385.11" class="st32" width="4.61" height="1.38"/>
									<rect x="878.79" y="385.11" class="st32" width="5.54" height="1.38"/>
									<rect x="886.63" y="385.11" class="st32" width="13.85" height="1.38"/>
									<rect x="793.87" y="385.11" class="st32" width="12" height="1.38"/>
									<rect x="694.64" y="385.11" class="st32" width="13.85" height="1.38"/>
									<rect x="708.95" y="385.11" class="st32" width="69.23" height="1.38"/>
									<rect x="793.87" y="391.57" class="st32" width="12" height="1.38"/>
									<rect x="830.33" y="391.57" class="st32" width="24.92" height="1.38"/>
									<rect x="865.87" y="391.57" class="st32" width="4.61" height="1.38"/>
									<rect x="878.79" y="391.57" class="st32" width="5.54" height="1.38"/>
									<rect x="886.63" y="391.57" class="st32" width="13.85" height="1.38"/>
									<rect x="708.95" y="391.57" class="st32" width="69.23" height="1.38"/>
									<rect x="694.64" y="391.57" class="st32" width="13.85" height="1.38"/>
									<polygon class="st32" points="694.64,398.03 694.64,398.96 690.49,398.96 690.49,398.03 690.03,398.03 690.03,399.42 
										708.49,399.42 708.49,398.03 									"/>
									<rect x="708.95" y="398.03" class="st32" width="96.92" height="1.38"/>
									<rect x="830.33" y="398.03" class="st32" width="13.85" height="1.38"/>
									<rect x="845.56" y="398.03" class="st32" width="38.77" height="1.38"/>
									<rect x="886.63" y="398.03" class="st32" width="13.85" height="1.38"/>
									<rect x="738.03" y="404.49" class="st32" width="67.84" height="1.38"/>
									<rect x="690.03" y="404.49" class="st32" width="18.46" height="1.38"/>
									<rect x="708.95" y="404.49" class="st32" width="23.08" height="1.38"/>
									<rect x="845.56" y="404.49" class="st32" width="38.77" height="1.38"/>
									<rect x="817.87" y="404.49" class="st32" width="26.31" height="1.38"/>
									<rect x="886.63" y="404.49" class="st32" width="13.85" height="1.38"/>
									<rect x="690.03" y="410.96" class="st32" width="8.77" height="1.38"/>
									<rect x="701.11" y="410.96" class="st32" width="7.38" height="1.38"/>
									<rect x="708.95" y="410.96" class="st32" width="23.08" height="1.38"/>
									<rect x="738.03" y="410.96" class="st32" width="67.84" height="1.38"/>
									<rect x="817.87" y="410.96" class="st32" width="26.31" height="1.38"/>
									<rect x="845.56" y="410.96" class="st32" width="38.77" height="1.38"/>
									<rect x="886.63" y="410.96" class="st32" width="13.85" height="1.38"/>
									<rect x="757.41" y="417.42" class="st32" width="72.46" height="1.38"/>
									<rect x="690.03" y="417.42" class="st32" width="8.77" height="1.38"/>
									<rect x="701.11" y="417.42" class="st32" width="10.15" height="1.38"/>
									<rect x="715.87" y="417.42" class="st32" width="16.15" height="1.38"/>
									<rect x="738.03" y="417.42" class="st32" width="16.15" height="1.38"/>
									<rect x="832.64" y="417.42" class="st32" width="11.54" height="1.38"/>
									<rect x="845.56" y="417.42" class="st32" width="54.92" height="1.38"/>
									<rect x="832.64" y="423.88" class="st32" width="11.54" height="1.38"/>
									<rect x="688.65" y="423.88" class="st32" width="10.15" height="1.38"/>
									<rect x="715.87" y="423.88" class="st32" width="16.15" height="1.38"/>
									<rect x="701.11" y="423.88" class="st32" width="10.15" height="1.38"/>
									<rect x="738.03" y="423.88" class="st32" width="16.15" height="1.38"/>
									<rect x="757.41" y="423.88" class="st32" width="72.46" height="1.38"/>
									<rect x="845.56" y="423.88" class="st32" width="54.92" height="1.38"/>
									<rect x="688.65" y="430.34" class="st32" width="10.15" height="1.38"/>
									<rect x="715.87" y="430.34" class="st32" width="13.85" height="1.38"/>
									<rect x="738.49" y="430.34" class="st32" width="15.69" height="1.38"/>
									<rect x="701.11" y="430.34" class="st32" width="10.15" height="1.38"/>
									<rect x="757.41" y="430.34" class="st32" width="19.85" height="1.38"/>
									<rect x="780.02" y="430.34" class="st32" width="18.46" height="1.38"/>
									<rect x="802.64" y="430.34" class="st32" width="27.23" height="1.38"/>
									<rect x="832.64" y="430.34" class="st32" width="67.84" height="1.38"/>
									<rect x="688.65" y="436.8" class="st32" width="22.61" height="1.38"/>
									<rect x="715.87" y="436.8" class="st32" width="13.85" height="1.38"/>
									<rect x="738.49" y="436.8" class="st32" width="38.77" height="1.38"/>
									<rect x="780.02" y="436.8" class="st32" width="18.46" height="1.38"/>
									<rect x="802.64" y="436.8" class="st32" width="27.23" height="1.38"/>
									<rect x="832.64" y="436.8" class="st32" width="67.84" height="1.38"/>
								</g>
							</g>
							<g>
								<g>
									<rect x="696.61" y="336.93" class="st33" width="123.08" height="92.75"/>
									<rect x="696.59" y="336.93" class="st19" width="123.12" height="6.94"/>
								</g>
								<g>
									<path class="st34" d="M813.24,340.31c0,1.33-1.08,2.41-2.41,2.41c-1.33,0-2.41-1.08-2.41-2.41c0-1.33,1.08-2.41,2.41-2.41
										C812.16,337.9,813.24,338.98,813.24,340.31z"/>
									<path class="st35" d="M801.66,340.31c0,1.33-1.08,2.41-2.41,2.41c-1.33,0-2.41-1.08-2.41-2.41c0-1.33,1.08-2.41,2.41-2.41
										C800.58,337.9,801.66,338.98,801.66,340.31z"/>
									<path class="st14" d="M790.72,340.31c0,1.33-1.08,2.41-2.41,2.41c-1.33,0-2.41-1.08-2.41-2.41c0-1.33,1.08-2.41,2.41-2.41
										C789.64,337.9,790.72,338.98,790.72,340.31z"/>
								</g>
								<g>
									<rect x="704.97" y="352.9" class="st35" width="4.83" height="1.38"/>
									<rect x="726" y="352.9" class="st35" width="67.57" height="1.38"/>
									<rect x="704.97" y="358.42" class="st35" width="4.83" height="1.38"/>
									<polygon class="st35" points="726,358.42 726,359.8 777.36,359.8 777.36,358.76 788.4,358.76 788.4,359.8 789.09,359.8 
										789.09,358.42 									"/>
									<rect x="704.97" y="363.94" class="st35" width="4.83" height="1.38"/>
									<rect x="726" y="363.94" class="st35" width="45.16" height="1.38"/>
									<polygon class="st35" points="789.09,364.62 789.09,363.94 788.4,363.94 788.4,365.32 793.57,365.32 793.57,364.62 
																			"/>
									<polygon class="st35" points="726,369.45 726,370.14 709.79,370.14 709.79,369.45 704.97,369.45 704.97,370.83 
										743.92,370.83 743.92,369.45 									"/>
									<rect x="762.54" y="369.45" class="st35" width="8.62" height="1.38"/>
									<rect x="787.36" y="369.45" class="st35" width="6.55" height="1.38"/>
									<rect x="704.97" y="374.97" class="st35" width="21.03" height="1.38"/>
									<rect x="762.54" y="374.97" class="st35" width="34.13" height="1.38"/>
									<rect x="704.97" y="380.48" class="st35" width="21.03" height="1.38"/>
									<polygon class="st35" points="796.67,380.48 762.54,380.48 762.54,381.52 743.92,381.52 743.92,380.48 742.54,380.48 
										742.54,381.86 758.06,381.86 758.06,381.86 769.78,381.86 769.78,381.86 771.5,381.86 771.5,380.83 778.74,380.83 
										778.74,381.86 782.88,381.86 782.88,381.17 796.67,381.17 									"/>
									<polygon class="st35" points="758.06,386 742.54,386 742.54,386.35 726,386.35 726,386 704.97,386 704.97,387.38 
										758.06,387.38 									"/>
									<rect x="769.78" y="386" class="st35" width="1.72" height="1.38"/>
									<rect x="778.74" y="386" class="st35" width="4.14" height="1.38"/>
									<rect x="706" y="404.62" class="st34" width="21.03" height="1.38"/>
									<rect x="745.3" y="404.62" class="st34" width="4.14" height="1.38"/>
									<rect x="760.13" y="404.62" class="st34" width="18.27" height="1.38"/>
									<rect x="705.66" y="411.17" class="st34" width="21.37" height="1.38"/>
									<rect x="745.3" y="411.17" class="st34" width="4.14" height="1.38"/>
									<rect x="760.13" y="411.17" class="st34" width="2.41" height="1.38"/>
									<rect x="771.85" y="411.17" class="st34" width="6.55" height="1.38"/>
									<rect x="705.31" y="417.72" class="st34" width="21.72" height="1.38"/>
									<rect x="745.3" y="417.72" class="st34" width="31.37" height="1.38"/>
								</g>
							</g>
							<g>
								<g>
									<rect x="828.9" y="372.89" class="st33" width="90.83" height="68.44"/>
									<rect x="828.89" y="372.89" class="st19" width="90.86" height="5.12"/>
								</g>
								<g>
									<path class="st34" d="M914.97,375.38c0,0.98-0.8,1.78-1.78,1.78c-0.98,0-1.78-0.8-1.78-1.78c0-0.98,0.8-1.78,1.78-1.78
										C914.18,373.6,914.97,374.4,914.97,375.38z"/>
									<path class="st35" d="M906.42,375.38c0,0.98-0.8,1.78-1.78,1.78c-0.98,0-1.78-0.8-1.78-1.78c0-0.98,0.8-1.78,1.78-1.78
										C905.63,373.6,906.42,374.4,906.42,375.38z"/>
									<path class="st14" d="M898.35,375.38c0,0.98-0.8,1.78-1.78,1.78c-0.98,0-1.78-0.8-1.78-1.78c0-0.98,0.8-1.78,1.78-1.78
										C897.55,373.6,898.35,374.4,898.35,375.38z"/>
								</g>
								<g>
									<rect x="834.51" y="386.91" class="st14" width="12.66" height="0.49"/>
									<rect x="857.15" y="386.91" class="st14" width="16.55" height="0.49"/>
									<rect x="848.88" y="386.91" class="st14" width="6.82" height="0.49"/>
									<rect x="876.14" y="386.91" class="st14" width="3.9" height="0.49"/>
									<rect x="880.77" y="386.91" class="st14" width="20.45" height="0.49"/>
									<rect x="901.95" y="386.91" class="st14" width="4.14" height="0.49"/>
									<rect x="906.58" y="386.91" class="st14" width="6.82" height="0.49"/>
									<rect x="834.51" y="388.13" class="st14" width="12.66" height="0.73"/>
									<rect x="848.88" y="388.13" class="st14" width="6.82" height="0.73"/>
									<rect x="857.15" y="388.13" class="st14" width="16.55" height="0.73"/>
									<rect x="876.14" y="388.13" class="st14" width="3.9" height="0.73"/>
									<polygon class="st14" points="880.77,388.13 880.77,388.86 892.7,388.86 892.7,388.37 893.43,388.37 893.43,388.86 
										901.22,388.86 901.22,388.13 									"/>
									<rect x="901.95" y="388.13" class="st14" width="4.14" height="0.73"/>
									<rect x="906.58" y="388.13" class="st14" width="6.82" height="0.73"/>
									<rect x="834.51" y="394.46" class="st14" width="21.42" height="0.49"/>
									<rect x="856.42" y="394.46" class="st14" width="8.52" height="0.49"/>
									<rect x="866.89" y="394.46" class="st14" width="6.82" height="0.49"/>
									<rect x="876.14" y="394.46" class="st14" width="16.56" height="0.49"/>
									<rect x="902.44" y="394.46" class="st14" width="10.96" height="0.49"/>
									<rect x="893.43" y="394.46" class="st14" width="7.79" height="0.49"/>
									<rect x="856.42" y="395.68" class="st14" width="8.52" height="1.95"/>
									<rect x="834.51" y="395.68" class="st14" width="21.42" height="1.95"/>
									<rect x="866.89" y="395.68" class="st14" width="6.82" height="1.95"/>
									<polygon class="st14" points="901.22,395.68 893.43,395.68 893.43,397.38 892.7,397.38 892.7,395.68 876.14,395.68 
										876.14,397.62 901.22,397.62 									"/>
									<polygon class="st14" points="902.44,395.68 902.44,397.62 906.33,397.62 906.33,396.41 909.5,396.41 909.5,397.62 
										913.39,397.62 913.39,395.68 									"/>
									<polygon class="st14" points="846.2,405.03 834.76,405.03 834.76,407.29 841.57,407.29 841.57,405.17 846.2,405.17 
																			"/>
									<rect x="889.53" y="405.03" class="st14" width="3.41" height="0.14"/>
									<polygon class="st14" points="902.68,405.03 902.68,405.17 907.06,405.17 907.06,407.29 913.64,407.29 913.64,405.03 
																			"/>
									<rect x="896.59" y="405.03" class="st14" width="4.87" height="0.14"/>
									<rect x="856.67" y="418.81" class="st14" width="8.52" height="0.87"/>
									<rect x="857.88" y="414.18" class="st14" width="7.3" height="1.46"/>
									<polygon class="st14" points="834.76,414.18 834.76,415.64 843.03,415.64 843.03,414.42 843.28,414.42 843.28,415.64 
										844.98,415.64 844.98,414.18 									"/>
									<rect x="845.22" y="414.18" class="st14" width="9.25" height="1.46"/>
									<rect x="845.22" y="418.81" class="st14" width="10.96" height="0.87"/>
									<rect x="834.76" y="418.81" class="st14" width="8.28" height="0.87"/>
									<rect x="843.28" y="418.81" class="st14" width="1.7" height="0.87"/>
									<rect x="867.13" y="414.18" class="st14" width="5.6" height="1.46"/>
									<rect x="867.13" y="418.81" class="st14" width="5.6" height="0.87"/>
									<rect x="896.59" y="414.18" class="st14" width="4.87" height="1.46"/>
									<rect x="876.39" y="414.18" class="st14" width="16.56" height="1.46"/>
									<rect x="875.55" y="427.68" class="st14" width="16.56" height="1.46"/>
									<rect x="895.43" y="427.68" class="st14" width="16.56" height="1.46"/>
									<rect x="876.39" y="418.81" class="st14" width="16.8" height="0.87"/>
									<rect x="896.59" y="418.81" class="st14" width="4.87" height="0.87"/>
									<rect x="902.68" y="414.18" class="st14" width="3.9" height="1.46"/>
									<rect x="909.74" y="414.18" class="st14" width="3.9" height="1.46"/>
									<rect x="902.68" y="418.81" class="st14" width="3.9" height="0.87"/>
									<rect x="909.74" y="418.81" class="st14" width="3.9" height="0.87"/>
									<polygon class="st14" points="865,422.62 865,422.75 869.38,422.75 869.38,424.87 875.96,424.87 875.96,422.62 									
										"/>
									<rect x="858.92" y="431.76" class="st14" width="4.87" height="1.46"/>
									<rect x="838.71" y="431.76" class="st14" width="16.56" height="1.46"/>
									<rect x="838.71" y="436.39" class="st14" width="16.8" height="0.87"/>
									<rect x="858.92" y="436.39" class="st14" width="4.87" height="0.87"/>
									<rect x="865" y="431.76" class="st14" width="3.9" height="1.46"/>
									<rect x="872.06" y="431.76" class="st14" width="3.9" height="1.46"/>
									<rect x="865" y="436.39" class="st14" width="3.9" height="0.87"/>
									<rect x="872.06" y="436.39" class="st14" width="3.9" height="0.87"/>
									<rect x="834.51" y="383.26" class="st14" width="12.66" height="1.7"/>
									<rect x="848.88" y="383.26" class="st14" width="6.82" height="1.7"/>
									<rect x="857.15" y="383.26" class="st14" width="16.55" height="1.7"/>
									<polygon class="st14" points="901.22,384.96 901.22,383.26 876.14,383.26 876.14,384.96 880.04,384.96 880.04,383.75 
										880.77,383.75 880.77,384.96 									"/>
									<polygon class="st14" points="901.95,383.26 901.95,384.96 906.09,384.96 906.09,384.48 906.58,384.48 906.58,384.96 
										913.39,384.96 913.39,383.26 									"/>
								</g>
							</g>
						</g>
						<g>
							<g>
								
									<rect x="770.71" y="529.35" transform="matrix(1 -5.768446e-03 5.768446e-03 1 -3.0562 4.6527)" class="st36" width="68.66" height="5.58"/>
								<polygon class="st37" points="637.57,530.32 633.42,535.93 788.31,535.03 788.28,529.45 								"/>
							</g>
							<polygon class="st18" points="653.36,525.49 637.57,530.32 839.35,529.15 835.14,524.43 							"/>
						</g>
						<g>
							<path class="st38" d="M926.07,535.93H875.5c4.99-7.55,13.24-14.82,28.75-13.88c1.91,0.12,3.72,0.39,5.42,0.81
								C918.23,524.92,924.08,530.41,926.07,535.93z"/>
							<path class="st35" d="M926.07,535.93h-34.41c3.68-5.57,9.15-11,18.01-13.08C918.23,524.92,924.08,530.41,926.07,535.93z"/>
						</g>
					</g>
					<g>
						<path class="st18" d="M1016.55,525.28c0.41,5.94-4.07,10.75-10.01,10.75h-33.69c-5.94,0-10.15-4.81-9.41-10.75l8.51-68.09
							c0.74-5.94,4.64-10.75,8.7-10.75h23.06c4.06,0,7.69,4.81,8.1,10.75L1016.55,525.28z"/>
						<path class="st19" d="M1007.38,523.4c0.33,4.64-3.25,8.4-7.99,8.4h-26.9c-4.74,0-8.11-3.76-7.51-8.4l6.8-53.22
							c0.59-4.64,3.7-8.4,6.95-8.4h18.42c3.25,0,6.14,3.76,6.47,8.4L1007.38,523.4z"/>
						<g>
							<path class="st18" d="M986.85,527.21c-9.78,0-17.75-7.96-17.75-17.74c0-9.78,7.96-17.75,17.75-17.75
								c9.78,0,17.74,7.96,17.74,17.75C1004.6,519.25,996.64,527.21,986.85,527.21z M986.85,493.04c-9.06,0-16.42,7.37-16.42,16.42
								c0,9.06,7.37,16.42,16.42,16.42c9.06,0,16.42-7.37,16.42-16.42C1003.28,500.41,995.91,493.04,986.85,493.04z"/>
							<path class="st18" d="M986.85,495.85c-7.51,0-13.61,6.11-13.61,13.61c0,7.51,6.11,13.61,13.61,13.61
								c7.51,0,13.61-6.11,13.61-13.61C1000.47,501.95,994.36,495.85,986.85,495.85z"/>
						</g>
						<g>
							<path class="st18" d="M986.85,487.54c-5.53,0-10.03-4.5-10.03-10.03c0-5.53,4.5-10.03,10.03-10.03
								c5.53,0,10.03,4.5,10.03,10.03C996.89,483.04,992.38,487.54,986.85,487.54z M986.85,468.21c-5.12,0-9.29,4.17-9.29,9.29
								c0,5.12,4.17,9.29,9.29,9.29c5.12,0,9.29-4.17,9.29-9.29C996.14,472.38,991.97,468.21,986.85,468.21z"/>
							<path class="st18" d="M986.85,469.8c-4.25,0-7.7,3.45-7.7,7.7c0,4.25,3.45,7.7,7.7,7.7c4.25,0,7.7-3.45,7.7-7.7
								C994.55,473.26,991.1,469.8,986.85,469.8z"/>
						</g>
					</g>
					<g>
						<g>
							<g>
								<g>
									<path class="st39" d="M647.86,865.52c-8.4-4.75-15.46-18.44-18.83-26.85c-5.43-13.56-3.72,10.11-14.18,7.49
										c-4.29-1.07-7.12,5.3-8.12,9c-2.39,8.82-0.57,23.39,0.95,29.14c12.47,1.63,18.91,1.54,31.49,1.71
										c7.24,0.1,22.89,0.19,27.25-6.39C663.02,870.44,655.25,869.7,647.86,865.52z"/>
									<path class="st40" d="M610.38,797.51c-0.21,10.43-1.88,20.25-0.93,30.98c0.8,9.1-1.55,23.35,5.75,30.01
										c14.36-7.13,14.24-39.68,18.22-53.66L610.38,797.51z"/>
									<path class="st39" d="M601.42,829.66l28.8,1.82c0.87-3.66,1.73-7.34,2.57-11.04c11.89-51.87,30.37-108.59,33.83-163.22
										l-51.15-11.25c-9.13,1.08-14.37,32.85-15.94,43.9c-3.46,24.45-0.38,49.47,0.61,73.98
										C600.98,784.81,602.28,807.5,601.42,829.66z"/>
								</g>
								<g>
									<path class="st39" d="M772.82,865.52c-8.4-4.75-15.46-18.44-18.83-26.85c-5.43-13.56-3.72,10.11-14.18,7.49
										c-4.29-1.07-7.12,5.3-8.12,9c-2.39,8.82-0.57,23.39,0.95,29.14c12.47,1.63,18.91,1.54,31.49,1.71
										c7.24,0.1,22.89,0.19,27.25-6.39C787.98,870.44,780.21,869.7,772.82,865.52z"/>
									<path class="st40" d="M735.34,797.51c-0.21,10.43-1.88,20.25-0.93,30.98c0.81,9.1-1.55,23.35,5.75,30.01
										c14.36-7.13,14.25-39.68,18.22-53.66L735.34,797.51z"/>
									<path class="st39" d="M791.58,657.22c0,0.07-0.01,0.15-0.02,0.22c-2.41,37.69-11.96,76.37-21.54,113.77
										c-4.3,16.74-8.59,33.22-12.27,49.23c-0.85,3.7-1.7,7.37-2.57,11.04l-28.8-1.82c0.86-22.15-0.44-44.84-1.28-65.79
										c-0.98-24.51-4.07-49.53-0.61-73.99c0.34-2.39,0.85-5.76,1.54-9.59c1.72-9.57,4.54-21.96,8.49-28.94
										c1.75-3.09,3.71-5.11,5.91-5.37L791.58,657.22z"/>
								</g>
							</g>
							<path class="st39" d="M791.57,657.44c-0.69,2.1-1.9,4.27-3.68,6.5c-6.98,8.7-20.47,12.85-35.44,14.78
								c-8.63,1.11-17.75,1.49-26.41,1.57c-10.24,0.09-19.84-0.23-27.19-0.23c-20.87,0-41.52,0.05-62.09-1.67
								c-11.16-0.94-25.29,0.01-37.38-1.6c-3.98-0.53-7.74-1.34-11.1-2.58l5.73-66.98c38.95-3.42,58.03-8.41,95.98-0.42
								C702.99,609.53,801.59,626.93,791.57,657.44z"/>
							<path class="st41" d="M770.02,771.21c-4.3,16.74-8.59,33.22-12.27,49.23c-0.85,3.7-1.7,7.37-2.57,11.04l-28.8-1.82
								c0.86-22.15-0.44-44.84-1.28-65.79c-0.98-24.51-4.07-49.53-0.61-73.99c0.34-2.39,0.85-5.76,1.54-9.59
								c-10.24,0.09-19.84-0.23-27.19-0.23c-20.87,0-41.52,0.05-62.09-1.67c-11.16-0.94-25.29,0.01-37.38-1.6l3.36-31.91
								c3.91,5.72,30.81,4.68,39.21,5.02c18.55,0.75,36.82,0.31,55.27,1.26c11.15,0.57,24.29,0.11,37.31,0.2
								c14.53,0.1,28.9,0.89,40.19,4.55c-9.17,1.24-16.56,4.35-24.9,8.13c5.06,2.97,13.64,4.47,18.62,6.95
								c-6.68-0.77-11.91,2.42-16,7.76c-10.5,13.71-13.45,41.61-14.05,52.81c-0.67,12.35,0.42,29.39,11.37,37.43
								C756.86,774.18,763.44,773.36,770.02,771.21z"/>
						</g>
						<g>
							<g>
								<g>
									<path class="st42" d="M620.45,325.05h-5.79c-6.21,0-11.27-4.97-11.27-11.08v-3.37c0-6.11,5.05-11.08,11.27-11.08h5.79
										c6.21,0,11.26,4.97,11.26,11.08v3.37C631.71,320.07,626.66,325.05,620.45,325.05z M614.65,301.43
										c-5.06,0-9.17,4.11-9.17,9.16v3.37c0,5.05,4.11,9.16,9.17,9.16h5.79c5.06,0,9.17-4.11,9.17-9.16v-3.37
										c0-5.05-4.11-9.16-9.17-9.16H614.65z"/>
									<g>
										<g>
											<path class="st43" d="M615.2,319.19c-0.31,2.57-1.11,11.79-0.97,16.95c0.18,6.43,0.97,13.1,2.23,19.3
												c-7.08,2.6-17.78-6.23-22.38-10.9c-6.97-7.08-10.88-15.67-12.04-25.47L615.2,319.19z"/>
											<path class="st44" d="M610.19,324.27c-4.16-0.07-7.08,6.75-7.44,10.23c-0.68,6.48,5.54,12.55,4.23,18.61
												c-4.79-1.84-10.54-8.08-14.21-11.74c-3.74-3.73-10.54-10.89-10.29-16.55L610.19,324.27z"/>
										</g>
										<path class="st40" d="M619.86,332.88c-0.33,11.36-2.59,22.59-2.53,24.57c0,0,0,0,0,0.01c0.01,0.2,0.01,0.4,0,0.59
											c-0.01,0.87-0.14,1.73-0.52,2.52c-0.38,0.77-1,1.47-1.99,1.99c-4.07,2.15-9.37,2.35-14.39,1.39
											c-0.84-0.16-1.67-0.35-2.49-0.57c-0.56-0.15-1.11-0.31-1.65-0.49c-1.87-0.61-3.63-1.35-5.19-2.19
											c-2.32-1.25-4.2-2.7-5.36-4.2c-0.46-0.6-0.8-1.21-1.01-1.81c-0.01,0.27-0.03,0.57-0.04,0.88
											c-0.01,0.15-0.02,0.31-0.02,0.47c0,0.06-0.01,0.13-0.01,0.2c-0.01,0.19-0.02,0.39-0.03,0.59c0,0.07,0,0.13-0.01,0.2v0.05
											c-0.01,0.17-0.01,0.34-0.02,0.52c-0.01,0.23-0.02,0.47-0.03,0.71c-0.01,0.25-0.02,0.5-0.03,0.77
											c-0.03,0.71-0.05,1.47-0.08,2.26c-0.04,1.21-0.08,2.48-0.11,3.78c-0.01,0.39-0.02,0.78-0.03,1.18
											c-0.06,2.28-0.12,4.64-0.17,6.94c0,0.2-0.01,0.41-0.01,0.61c-0.04,1.64-0.07,3.25-0.1,4.76
											c-0.04,2.05-0.07,3.94-0.09,5.55c-0.05,3.17-0.07,5.25-0.05,5.34c-0.04,0.01-0.08,0.02-0.12,0.03
											c-3.18,0.85-8.11,1.24-13.79,1.22c-10.33-0.03-23.13-1.43-32.26-3.87l0,0c-3.64-0.97-6.7-2.11-8.79-3.4
											c-0.74-0.45-1.35-0.92-1.83-1.41c-0.02-0.02-0.03-0.03-0.05-0.05c-0.08-0.08-0.16-0.17-0.23-0.26
											c1.05-1.88,1.8-6.09,2.33-11.39c0.06-0.59,0.12-1.18,0.17-1.8c0.08-0.92,0.15-1.86,0.23-2.83
											c0.23-3.24,0.41-6.72,0.55-10.21c0.26-6.9,0.37-13.89,0.44-19.34v0c0.04-2.88,0.07-5.32,0.11-7.09
											c0.03-1.36,0.04-2.54,0.03-3.5c-0.19-11.77-1.56-23.5-2.39-35.3c-1.26-18.09,72.95-14.3,72.95-14.3
											c5.6,4.3,7.47,10.63,9.01,17.6c0.03,0.12,0.05,0.23,0.08,0.35c0.47,2.14,0.91,4.35,1.42,6.57
											c0.06,0.26,0.12,0.51,0.18,0.77c0.05,0.21,0.1,0.43,0.15,0.64c0,0.01,0,0.02,0.01,0.03c0.02,0.08,0.04,0.16,0.06,0.25
											c0.2,0.78,0.4,1.57,0.62,2.35c0.1,0.34,0.2,0.67,0.3,1.01c0.44,1.42,0.93,2.84,1.51,4.25c0.23,0.23,0.45,0.47,0.66,0.72
											c0.4,0.47,0.77,0.99,1.1,1.54c1.34,2.19,2.23,4.96,2.78,8.06C619.83,324.05,619.99,328.47,619.86,332.88z"/>
									</g>
									<path class="st45" d="M616.8,360.57c-0.38,0.78-1,1.47-1.99,1.99c-10.14,5.36-27.86-1.42-30.09-7.87
										c-0.44,8.52-1.24,40.82-0.88,42.47c-12.12,3.33-50.65-7.9-57.01-15.42c3.71-6.63,3.57-41.95,3.83-52.66l51.07-11.96
										c0.75,1.42-0.1,4.47-0.16,6.29c-0.08,2.31-0.04,4.75,0.11,7.06c0.28,4.4,1.51,8.97,3.41,13.04
										c3.52,7.53,10.29,15.61,18.8,17.58C607.45,361.93,612.56,362.02,616.8,360.57z"/>
									<path class="st40" d="M624.46,326.11c-0.34-0.61-2.54-1.65-3.19-2.37c-1.38-1.54-2.09-3.66-3.03-5.47
										c-1.29-2.47-3.1-7.43-4.94-8.56l0.77,24.34C616.88,333.07,628.32,333.06,624.46,326.11z"/>
									<g>
										<g>
											<g>
												<path class="st46" d="M616.36,312.08c-0.12,0.11-0.24,0.2-0.36,0.28c-0.34,0.22-0.71,0.35-1.1,0.39
													c-0.84,0.07-1.65-0.33-2.34-1.06c-0.95-1-1.65-2.64-1.81-4.54c-0.06-0.75-0.04-1.47,0.07-2.14
													c0.19-1.27,0.64-2.35,1.28-3.09c0,0.01,0,0.02,0.01,0.03c0.02,0.08,0.04,0.16,0.06,0.25c0.2,0.78,0.4,1.57,0.62,2.35
													c0.1,0.34,0.2,0.67,0.3,1.01c0.44,1.42,0.93,2.84,1.51,4.25c0.23,0.23,0.45,0.47,0.66,0.72
													C615.66,311.01,616.03,311.52,616.36,312.08z"/>
											</g>
											<path class="st46" d="M612.79,304.56c-0.68,0.1-1.35,0.26-1.98,0.45c-1.68,0.51-3.02,1.31-3.37,2.26
												c0.44-2.72,2.13-5.01,4.5-5.99c0.05,0.21,0.1,0.43,0.15,0.64c0,0.01,0,0.02,0.01,0.03c0.02,0.08,0.04,0.16,0.06,0.25
												C612.36,302.99,612.57,303.77,612.79,304.56z"/>
										</g>
										<path class="st47" d="M614.45,295.1c-1.69-1.71-6.18-2.2-8.98-0.33c-2.98,1.62-6.74,5.88-6.21,7.24
											c0.25,1.11,7.92-0.4,9.79-0.88C610.88,300.53,619.01,299.92,614.45,295.1z"/>
									</g>
									<path class="st47" d="M527.18,269.34c6.6-19.43,26-17.19,48.28-16.42c23.8,0.82,41.26,9.8,41.26,9.8
										c-0.34,15.5,1.12,16.46-5.05,30.56c-3.87,0.52-16.27,21.46-31.39,10.46c5.5,9.47,6.22,33.63,1.19,44.33
										c-4.61,9.78-8.09,3.29-15.96,8.98c-1.53-2.8-3.75-5.58-5.98-7.5c0.86,5.54,2.71,11.36,1.78,17.15
										c-6.53,3.57-12.55,3.87-20.13,4.23c-10.98,0.51-12.38-0.6-15.59-10.51c-4.94-15.2-4.09-23.21-11-37.68
										C509.34,307.69,499.22,283.64,527.18,269.34z"/>
									<polygon class="st42" points="577.88,317.74 630.04,308.71 630.66,311.85 579.94,320.87 									"/>
									<g>
										<path class="st40" d="M570.19,316.87c6.69-7.68,14.51,2,17.62,5.83c0,0-0.07,13.34-3.67,16.42
											c-4.35,3.73-10.67,0.17-13.45-3.61C567,330.49,565.18,322.63,570.19,316.87z"/>
										<path class="st45" d="M570.46,321.13c2.1-5.82,7.66-3.02,10.12,0.9c-8.59-3.26-9.51,6.66-7.37,12.27
											C571.11,330.35,568.79,325.78,570.46,321.13z"/>
									</g>
								</g>
								<path class="st34" d="M650.53,609.59c-0.15,0.08-0.3,0.16-0.45,0.24c-10.2,5.35-29.47,10.71-41.5,13.3
									c-3.04,0.65-5.62,1.13-7.47,1.38c-20.46,2.79-40.25,2.48-60.19-1.96c-5.26-19.22-17.42-36.95-21.89-56.57
									c-5.15-22.67-13.72-55.49-14.81-79.02c-0.81-17.42-11.91-62.74-10.86-80.29c0.77-12.89,18.23,1.25,22.46-10.24l0.13-10.51
									c-0.8-6.33-1.93-13-0.88-19.52c19.26-0.75,45.8-3.25,62.82,4.79c15.28,7.22,33.74,9.71,47.28,21.92
									c7.79,7.01,10.27,66.24,14.23,119.8c3.18,42.86,7.3,82.08,15.86,88.04C658.87,603.44,656.25,606.51,650.53,609.59z"/>
							</g>
							<path class="st48" d="M650.08,609.83c-10.2,5.35-29.47,10.71-41.5,13.3c-3.44-26.76,6.24-66.27,1.21-85.61
								c-5.22-20.06-6.87-37.44-10.05-57.77c-1.38-8.86,0.2-27.35-0.25-36.27c-0.32-6.38,1.31-14.21-0.84-20.05l21.77,53.59
								c1.72,13.76,12.08,24.2,18.99,35.89c3.18,42.86,7.3,82.08,15.86,88.04C656.29,601.65,658.76,605.33,650.08,609.83z"/>
							<g>
								<g>
									
										<ellipse transform="matrix(0.1602 -0.9871 0.9871 0.1602 127.5764 873.4233)" class="st39" cx="577.08" cy="361.74" rx="23.44" ry="23.44"/>
									
										<ellipse transform="matrix(0.0453 -0.999 0.999 0.0453 193.1622 925.5981)" class="st49" cx="580.85" cy="361.74" rx="17.16" ry="17.16"/>
									
										<ellipse transform="matrix(0.7071 -0.7071 0.7071 0.7071 -84.4955 519.485)" class="st39" cx="584.83" cy="361.74" rx="11.51" ry="11.51"/>
								</g>
								<path class="st50" d="M585.66,357.27c-19,6.05-49.45,1.63-67.64-5.7c0.08,3.68-0.81,11.68-0.6,15.33
									c9.3,4.09,19.01,4.53,29.31,5.02c10.68,0.51,30.5-2.28,40.19-6.7L585.66,357.27z"/>
								<path class="st50" d="M591.11,361.04c0,2.54-2.06,4.61-4.6,4.61c-2.54,0-4.61-2.06-4.61-4.61c0-2.54,2.06-4.6,4.61-4.6
									C589.04,356.43,591.11,358.5,591.11,361.04z"/>
							</g>
							<g>
								<path class="st34" d="M675.02,533.07c-0.34,0.28-0.68,0.56-1.03,0.83c-5.4,4.13-12.43,6.29-26.04-4.28
									c-1.53-1.18-3.14-2.53-4.83-4.05c-10.82-9.68-19.83-29.23-28.15-40.61c-0.95-1.31-1.91-2.65-2.86-4.05
									c-13.67-20-26.58-48.59-26.23-72.64c0.15-10.14,2.47-17.82,12.25-20.6c6.58-1.87,18.95-9.25,34.9,16.09
									c0,0,26.11,54.6,38.24,93.11C676.92,514.85,679.53,529.32,675.02,533.07z"/>
								<g>
									<path class="st40" d="M766.85,508.3c-9.68-3.22-21.44,3-30.26,6.88l8.94,9.18c6.83,1.31,9.65,1.35,16.51,1.16
										c18.75-0.53,20.61,2.42,26.92,0.73C787.58,517.91,776.4,511.49,766.85,508.3z"/>
									<path class="st34" d="M752.85,526.37c-0.8,1.68-19.09,6.31-37.08,10.28c-14.96,3.29-29.72,6.13-34.04,6.43
										c-13.14,0.9-26.02-3.94-33.79-13.46c-4.03-4.94-6.69-11.12-7.3-18.42c-0.05-0.51-0.08-1.02-0.1-1.54l16.68-12.61
										c4.76-1.03,9.31-0.94,14.03-0.18c16.71,2.69,35.5,13.83,72.74,14.14C743.99,511.01,754.73,522.44,752.85,526.37z"/>
								</g>
							</g>
							<g>
								<g>
									<path class="st48" d="M715.77,536.65c-14.96,3.29-29.72,6.13-34.04,6.43c-13.14,0.9-26.02-3.94-33.79-13.46
										c-1.53-1.18-3.14-2.53-4.83-4.05c-10.82-9.68-19.83-29.23-28.15-40.61c-0.95-1.31-1.91-2.65-2.86-4.05
										c-6.62-19.43-14.27-30.89-13.62-50.77c6.91,32.02,35.89,72.39,42.16,81.06c5.07,7.02,10.83,13.57,17.93,19.31
										c-0.87-4.69-0.66-10-0.3-14.73c3.8,9.42,9.05,14.99,15.7,18.13c7.28,3.43,16.24,3.96,26.81,3.43
										C705.64,537.09,710.71,536.9,715.77,536.65z"/>
								</g>
							</g>
						</g>
						<g>
							<g>
								<g>
									<g>
										<path class="st51" d="M492.48,750.46c0,2.63-1.48,4.76-3.3,4.76h-22.21c-1.82,0-3.3-2.13-3.3-4.76l0,0
											c0-2.63,1.48-4.76,3.3-4.76h22.21C491,745.71,492.48,747.84,492.48,750.46L492.48,750.46z"/>
									</g>
									<g>
										<path class="st51" d="M482.74,752.51c7.83-1.25,15.83-0.67,23.66-1.97c7.93-1.32,14.45-5.68,20.98-10.11
											c6.44-4.37,12.81-8.89,19.97-12.02c7.72-3.38,16.64-3.2,24.86-4.34c2.41-0.34,1.38-3.99-1.01-3.66
											c-8.24,1.14-16.9,1.08-24.71,4.28c-7.18,2.94-13.57,7.38-19.94,11.73c-6.64,4.53-13.1,9-21.15,10.46
											c-7.8,1.41-15.83,0.72-23.66,1.97C479.33,749.24,480.35,752.9,482.74,752.51L482.74,752.51z"/>
									</g>
								</g>
							</g>
							<g>
								<path class="st52" d="M730.64,687.14v5.84c0,6.28-5.09,11.37-11.37,11.37H459.99c-6.28,0-11.37-5.09-11.37-11.37v-5.84
									c0-6.28,5.09-11.37,11.37-11.37h259.27C725.55,675.76,730.64,680.85,730.64,687.14z"/>
								<path class="st51" d="M742.5,675.76v1.04c0,7.08-4.89,13.15-11.86,15.72v0.45c0,6.28-5.09,11.37-11.37,11.37H559.49
									c-5.99,0-10.9-4.63-11.34-10.51c-0.02-0.28-0.03-0.57-0.03-0.86v-5.84c0-6.28,5.09-11.37,11.37-11.37H742.5z"/>
							</g>
							<g>
								<polygon class="st51" points="607.46,735.54 578.66,735.54 489.51,690.06 695.11,690.06 								"/>
								<polygon class="st52" points="596.3,735.54 578.35,735.54 489.2,690.06 553.34,690.06 								"/>
							</g>
							<rect x="585.19" y="737.82" class="st51" width="13.9" height="48.52"/>
							<g>
								<rect x="585.88" y="759.04" class="st53" width="9.74" height="72.66"/>
								<rect x="581.02" y="759.04" class="st51" width="22.24" height="72.66"/>
								<rect x="581.02" y="759.04" class="st54" width="9.74" height="72.66"/>
							</g>
							<g>
								<path class="st52" d="M610.33,740.21c0,2.58-1.65,4.68-3.69,4.68h-28.98c-2.03,0-3.68-2.09-3.68-4.68
									c0-1.29,0.41-2.46,1.08-3.31c0.67-0.85,1.59-1.37,2.61-1.37h28.98C608.68,735.54,610.33,737.63,610.33,740.21z"/>
								<path class="st51" d="M610.33,740.21c0,2.58-1.65,4.68-3.69,4.68h-10.8c-2.04,0-3.69-2.09-3.69-4.68
									c0-1.29,0.41-2.46,1.08-3.31c0.67-0.85,1.59-1.37,2.61-1.37h10.8C608.68,735.54,610.33,737.63,610.33,740.21z"/>
							</g>
							<g>
								<g>
									<g>
										<path class="st51" d="M599.7,826.87v40.64c0,2.21-1.03,4.17-2.63,5.44c-0.56,0.45-1.19,0.81-1.87,1.07
											c-0.76,0.29-1.59,0.44-2.45,0.44c-0.86,0-1.69-0.16-2.45-0.44c-0.68-0.26-1.31-0.62-1.87-1.07
											c-0.21-0.16-0.41-0.34-0.59-0.53c-1.26-1.26-2.04-3-2.04-4.92v-40.64c0-2.2,1.03-4.17,2.63-5.44
											c0.56-0.45,1.19-0.81,1.87-1.06c0.76-0.29,1.59-0.44,2.45-0.44c0.86,0,1.69,0.16,2.45,0.44c0.68,0.26,1.31,0.62,1.87,1.06
											c0.21,0.16,0.41,0.34,0.59,0.53C598.93,823.22,599.7,824.95,599.7,826.87z"/>
									</g>
									<path class="st52" d="M593.75,852.34c0,0.55-0.45,1-1,1l0,0c-0.55,0-1-0.45-1-1v-23.78c0-0.55,0.45-1,1-1l0,0
										c0.55,0,1,0.45,1,1V852.34z"/>
								</g>
								<g>
									<g>
										<rect x="586.87" y="851.39" class="st51" width="9.42" height="13.66"/>
										<rect x="586.87" y="851.39" class="st54" width="3.54" height="13.66"/>
									</g>
									<g>
										<g>
											<path class="st55" d="M587.96,874c0,7.58-6.15,13.73-13.73,13.73c-7.58,0-13.73-6.14-13.73-13.73
												c0-7.58,6.15-13.73,13.73-13.73C581.81,860.27,587.96,866.41,587.96,874z"/>
											<path class="st56" d="M581.09,874c0,3.79-3.07,6.86-6.86,6.86c-3.79,0-6.86-3.07-6.86-6.86c0-3.79,3.07-6.86,6.86-6.86
												C578.02,867.13,581.09,870.2,581.09,874z"/>
										</g>
										<g>
											<g>
												<path class="st54" d="M598,869.41h-39.77c0.43-7.06,9.17-12.7,19.88-12.7c1.5,0,2.95,0.11,4.36,0.32
													C591.11,858.31,597.62,863.34,598,869.41z"/>
												<path class="st51" d="M598,869.41h-31.06c0.38-6.08,6.9-11.1,15.53-12.38C591.11,858.31,597.62,863.34,598,869.41z"/>
											</g>
										</g>
									</g>
								</g>
							</g>
							<g>
								<g>
									<g>
										<rect x="465" y="849.61" class="st51" width="9.42" height="13.66"/>
										<rect x="465" y="849.61" class="st57" width="3.54" height="13.66"/>
									</g>
									<g>
										<g>
											<path class="st55" d="M466.09,872.21c0,7.58-6.15,13.73-13.73,13.73s-13.73-6.15-13.73-13.73
												c0-7.58,6.15-13.73,13.73-13.73S466.09,864.63,466.09,872.21z"/>
											<path class="st56" d="M459.23,872.21c0,3.79-3.07,6.87-6.86,6.87s-6.86-3.07-6.86-6.87c0-3.79,3.07-6.86,6.86-6.86
												S459.23,868.42,459.23,872.21z"/>
										</g>
										<g>
											<g>
												<path class="st54" d="M476.13,867.63h-39.77c0.44-7.06,9.17-12.7,19.88-12.7c1.5,0,2.95,0.11,4.36,0.32
													C469.24,856.53,475.75,861.56,476.13,867.63z"/>
												<path class="st51" d="M476.13,867.63h-31.06c0.38-6.08,6.9-11.1,15.53-12.38C469.24,856.53,475.75,861.56,476.13,867.63
													z"/>
											</g>
										</g>
									</g>
								</g>
								<path class="st51" d="M581.08,810.06c-7.7,1.36-110.69,23.55-124.08,37.27c-3.6,3.69,5.35,5.76,9.35,5.01l114.73-21.59
									V810.06z"/>
								<path class="st54" d="M581.08,810.06l0,10.74c-17.19,2.81-108.19,18.07-123.13,27.73c-0.9,0.58-1.01,1.42-0.85,2.04
									c-1.08-0.84-1.36-1.94-0.1-3.23C470.39,833.61,573.38,811.42,581.08,810.06z"/>
								<path class="st54" d="M581,810.06v2.27c-7.43,1.32-105.93,22.17-124.76,35.96c0.13-0.3,0.36-0.62,0.68-0.95
									C470.31,833.61,573.3,811.42,581,810.06z"/>
							</g>
							<g>
								<g>
									<g>
										<rect x="709.88" y="849.61" class="st51" width="9.42" height="13.66"/>
										<rect x="715.76" y="849.61" class="st57" width="3.54" height="13.66"/>
									</g>
									<g>
										<g>
											<path class="st55" d="M718.21,872.21c0,7.58,6.15,13.73,13.73,13.73c7.58,0,13.73-6.15,13.73-13.73
												c0-7.58-6.15-13.73-13.73-13.73C724.36,858.49,718.21,864.63,718.21,872.21z"/>
											<path class="st56" d="M725.08,872.21c0,3.79,3.07,6.87,6.86,6.87c3.79,0,6.86-3.07,6.86-6.87c0-3.79-3.07-6.86-6.86-6.86
												C728.15,865.35,725.08,868.42,725.08,872.21z"/>
										</g>
										<g>
											<g>
												<path class="st54" d="M708.17,867.63h39.77c-0.43-7.06-9.17-12.7-19.88-12.7c-1.5,0-2.95,0.11-4.36,0.32
													C715.07,856.53,708.55,861.56,708.17,867.63z"/>
												<path class="st51" d="M708.17,867.63h31.06c-0.38-6.08-6.9-11.1-15.53-12.38C715.07,856.53,708.55,861.56,708.17,867.63
													z"/>
											</g>
										</g>
									</g>
								</g>
								<path class="st51" d="M603.22,810.06c7.7,1.36,110.69,23.55,124.08,37.27c3.6,3.69-5.35,5.76-9.35,5.01l-114.73-21.59
									V810.06z"/>
								<path class="st54" d="M603.22,810.06l0,10.74c17.19,2.81,108.19,18.07,123.13,27.73c0.9,0.58,1.01,1.42,0.85,2.04
									c1.08-0.84,1.36-1.94,0.1-3.23C713.91,833.61,610.92,811.42,603.22,810.06z"/>
								<path class="st54" d="M603.3,810.06v2.27c7.43,1.32,105.93,22.17,124.76,35.96c-0.13-0.3-0.36-0.62-0.68-0.95
									C713.99,833.61,611,811.42,603.3,810.06z"/>
							</g>
							<g>
								<path class="st52" d="M702.28,554.74c-4.2-2.57-13.04-3.03-17.82-3.03h-84.67c2.85,7.43,5.16,15.11,7.57,22.74h79.19
									c0.03,0.01,0.07,0.02,0.1,0.03c0,0,0,0,0,0c0.02,0.01,0.03,0.02,0.04,0.03c0,0,0.01,0,0.01,0.01
									c0.24,0.19,0.48,0.39,0.67,0.58c0,0,0.01,0.01,0.01,0.01c0.02,0.03,0.03,0.05,0.05,0.08c0.17,0.27,0.33,0.55,0.49,0.83
									c0,0,0,0,0,0.01c0.18,0.56,0.34,1.13,0.47,1.71c0,0,0,0,0,0c0.1,1.82,0.03,3.67,0.03,5.49v74.64
									c0,6.2,5.17,11.37,11.37,11.37c0.92,0,1.82-0.11,2.68-0.33c4.94-1.22,8.7-5.76,8.7-11.04v-78.79
									C711.16,569.32,710.7,559.89,702.28,554.74z"/>
								<path class="st52" d="M686.81,574.37c-0.08-0.1-0.12-0.16-0.14-0.17c0.01,0,0.07,0.08,0.15,0.18
									C686.82,574.37,686.82,574.37,686.81,574.37z"/>
								<path class="st52" d="M686.88,574.46C686.88,574.46,686.87,574.46,686.88,574.46c0-0.01,0.01-0.01,0.01,0
									c0,0,0.01,0.01,0.01,0.01C686.9,574.47,686.88,574.46,686.88,574.46z"/>
								<path class="st52" d="M687.11,574.74c-0.05-0.06-0.1-0.12-0.14-0.17c0,0,0.01,0,0.02,0.01
									C687.04,574.63,687.08,574.69,687.11,574.74C687.12,574.74,687.11,574.74,687.11,574.74z"/>
								<path class="st51" d="M695.15,563.08c-4.2-2.57-14.26-3.03-19.06-3.03h-73.33c1.6,4.77,3.08,9.6,4.59,14.41h79.19
									c0.03,0.01,0.07,0.02,0.1,0.03c0,0,0,0,0,0c0.02,0.01,0.03,0.02,0.04,0.03c0,0,0.01,0,0.01,0.01
									c0.24,0.19,0.48,0.39,0.67,0.58c0,0,0.01,0.01,0.01,0.01c0.02,0.03,0.03,0.05,0.05,0.08c0.17,0.27,0.33,0.55,0.49,0.83
									c0,0,0,0,0,0.01c0.18,0.56,0.34,1.13,0.47,1.71c0,0,0,0,0,0c0.1,1.82,0.03,3.67,0.03,5.49v74.64
									c0,6.2,5.17,11.37,11.37,11.37c0.92,0,1.82-0.11,2.68-0.33c0.22-0.87,0.34-1.77,0.34-2.7v-78.79
									C702.8,577.66,703.58,568.23,695.15,563.08z"/>
								<path class="st58" d="M691.36,558.43c9.59,0.14,13.95,8.91,13.74,17.53c-0.05,1.83,2.8,1.83,2.84,0
									c0.13-5.15-0.99-10.53-4.3-14.6c-3.06-3.76-7.47-5.7-12.28-5.77C689.52,555.56,689.53,558.41,691.36,558.43L691.36,558.43z"
									/>
							</g>
							<g>
								<g>
									<path class="st59" d="M438.94,376.8c0.02,8.75,7.13,15.83,15.88,15.81l70.89-0.16c8.75-0.02,15.83-7.13,15.81-15.88
										l-0.06-25.36c-0.02-8.75-7.13-15.83-15.88-15.81l-70.89,0.16c-8.75,0.02-15.83,7.13-15.81,15.88L438.94,376.8z"/>
									<path class="st60" d="M438.98,377.98c0.62,8.2,7.48,14.65,15.83,14.63l70.89-0.16c8.75-0.02,15.83-7.13,15.81-15.88
										l-0.06-25.36c-0.02-8.41-6.59-15.28-14.87-15.78c0.03,0.39,0.05,0.78,0.05,1.18l0.06,25.36
										c0.02,8.75-7.06,15.86-15.81,15.88l-70.89,0.16C439.65,378.01,439.32,378,438.98,377.98z"/>
								</g>
								<path class="st59" d="M627.63,621.76c-0.49,11.02,0.27,25.54-2.79,37.1c-0.4,1.5-0.86,2.96-1.4,4.35
									c-0.03,0.09-0.07,0.18-0.1,0.28c-0.23,0.58-5.59,31.13-5.85,31.68c-25.34,0.31-59.22,0.92-90.03,1.18
									c-17.39,0.15-33.79,0.18-47.13,0c-19.18-0.26-32.02-0.99-32.33-2.52c-7.93,0-14.76-7.02-15.49-16.2l-1.05-13.07l-0.32-4.04
									l-20.31-253.1c-0.07-0.87-0.08-1.73-0.04-2.57c0.41-8.47,6.2-15.41,13.83-16.02c1.77-0.75,8.69-1.84,17.22-2.94
									c3.83-0.49,7.99-0.98,12.15-1.45c10.1-1.13,57.43-2.29,85.68-0.45c0,0,0,0,0.01,0c5.03,0.32,9.45,0.74,12.96,1.28
									c24.1,3.65,35.28,17.46,39.42,41.84c0.14,0.84,0.28,1.67,0.43,2.52c1.25,7.29,2.52,14.58,3.81,21.88
									c0.55,3.11,1.1,6.22,1.66,9.34c2.42,13.5,4.92,27.02,7.49,40.59c0.41,2.19,0.83,4.39,1.24,6.59c0.17,0.9,0.35,1.8,0.54,2.7
									c5.16,24.83,16.22,49.38,18.8,74.46c0.46,4.56,0.89,9.16,1.21,13.79C627.74,606.55,627.97,614.18,627.63,621.76z"/>
								<path class="st60" d="M584.83,644.93c-2.29,5.66-6.23,10.24-11.37,13.94c-37.14,26.66-137.57,6.75-141.99,5.7l-0.32-4.04
									l-20.31-253.1c-0.07-0.87-0.08-1.73-0.04-2.57c2.77-0.76,5.56-1.6,8.35-2.45c6.79-2.07,13.53-4.19,19.7-5.31
									c1.38-0.26,2.74-0.46,4.06-0.6c21.31-2.28,41.86-0.18,62.81,1.04c18.29,1.07,40.01,0.84,55.02,12.81
									c15.27,12.17,15.31,33.94,17.76,51.26c5.63,39.74,10.16,81.81,10.11,123.03C588.58,603,591.58,628.29,584.83,644.93z"/>
							</g>
							<path class="st59" d="M743.33,675.91v3.4c0,7.08-7.22,13.15-17.5,15.72c-3.38,0.84-7.08,1.31-10.97,1.31H480.33
								c-19.18-0.26-32.02-0.99-32.33-2.52c-7.93,0-14.76-7.02-15.49-16.2l-1.05-13.07l-0.32-4.04c3.72-1.07,7.89-1.67,12.29-1.67
								h271.43C730.59,658.87,743.33,666.5,743.33,675.91z"/>
						</g>
					</g>
				</g>
				<g>
					<path class="st61" d="M861.73,502.7c0,0.95-0.02,1.89-0.07,2.83c0,0.03,0,0.06,0,0.09c0,0.01,0,0.03,0,0.04
						c0,0.02,0,0.03,0,0.05c-0.01,0.23-0.02,0.46-0.04,0.69c-0.35,5.34-1.46,10.34-3.15,14.76c-1.24,3.24-2.8,6.16-4.61,8.67
						c-1.89,2.62-4.05,4.79-6.41,6.4H827.5c-2.18-1.49-4.19-3.46-5.97-5.81c-5.1-6.74-8.33-16.66-8.33-27.72
						c0-2.94,0.23-5.79,0.66-8.53h47.21c0.34,2.14,0.55,4.36,0.63,6.63C861.72,501.43,861.73,502.06,861.73,502.7z"/>
					<path class="st61" d="M861.63,505.37c-0.08-0.31,0.04,0.53,0.03,0.22c-0.01-0.32-0.1,0.52-0.03,0.2
						c0.11-0.53-0.19,0.3,0.03-0.09c0.05-0.08,0.1-0.16,0.15-0.24c0.21-0.31-0.29,0.35-0.04,0.06c0.18-0.21,0.38-0.39,0.58-0.58
						c0.09-0.09,0.19-0.17,0.29-0.25c0.35-0.29-0.33,0.24,0.05-0.04c0.23-0.17,0.47-0.34,0.72-0.5c0.58-0.38,1.19-0.72,1.8-1.04
						c0.61-0.32,1.23-0.61,1.87-0.88c-0.36,0.16,0.17-0.07,0.2-0.08c0.16-0.07,0.32-0.13,0.49-0.19c0.38-0.14,0.76-0.28,1.14-0.41
						c0.63-0.21,1.26-0.39,1.9-0.55c0.3-0.07,0.6-0.14,0.9-0.19c0.14-0.03,0.29-0.05,0.43-0.07c0.35-0.06-0.36,0.04,0.18-0.02
						c1.39-0.15,2.33,0.04,3.64,0.52c0.57,0.21-0.3-0.15,0.24,0.1c0.17,0.08,0.33,0.16,0.49,0.25c0.31,0.17,0.61,0.36,0.9,0.57
						c-0.31-0.22,0.13,0.12,0.16,0.14c0.13,0.11,0.25,0.23,0.37,0.35c0.12,0.12,0.23,0.25,0.35,0.37c0.14,0.17,0.15,0.17,0.03,0.01
						c0.07,0.09,0.13,0.18,0.2,0.27c0.19,0.28,0.36,0.57,0.51,0.87c0.02,0.04,0.24,0.55,0.09,0.17c0.06,0.16,0.12,0.32,0.17,0.48
						c0.11,0.33,0.18,0.67,0.25,1.01c0.11,0.57-0.03-0.37,0.03,0.2c0.02,0.24,0.03,0.48,0.04,0.72c0.03,1.34-0.46,3.01-1.03,4.2
						c-1.34,2.84-3.61,4.62-6.44,6.09c-1.46,0.76-2.7,1.22-4.36,1.77c-1.57,0.51-3.17,0.92-4.78,1.3c-2.24,0.52-4.6,0.84-6.74,1.69
						c-1.31,0.52-2.46,1.2-3.28,2.39c-0.9,1.3-0.68,2.95-0.1,4.31c1.21,2.8,4.15,3.48,6.79,2.33c1.03-0.45,2-1.47,2.22-2.59
						c0.33-1.64-0.59-2.91-1.89-3.81c-0.84-0.58-2.08-0.16-2.57,0.67c-0.55,0.93-0.17,1.99,0.67,2.57c0.46,0.31-0.24-0.23,0.12,0.1
						c0.34,0.31-0.19-0.32,0.04,0.02c0.22,0.34-0.12-0.41-0.02-0.05c-0.13-0.44-0.02-0.32-0.03-0.1c0.02-0.57-0.09,0.01,0.13-0.48
						c-0.05,0.12-0.27,0.41,0.07-0.03c-0.07,0.09-0.15,0.16-0.23,0.24c-0.22,0.21,0.35-0.22-0.09,0.05
						c-0.1,0.07-0.22,0.12-0.33,0.17c0.46-0.22,0.08-0.05-0.03-0.01c-0.12,0.04-0.25,0.07-0.38,0.09c-0.44,0.09,0.43-0.03-0.02-0.01
						c-0.13,0.01-0.26,0-0.39,0c-0.45-0.02,0.42,0.08-0.01-0.01c-0.11-0.02-0.51-0.18-0.04,0.02c-0.11-0.05-0.56-0.37-0.17-0.06
						c-0.11-0.09-0.2-0.19-0.29-0.29c0.3,0.34,0.02-0.02-0.03-0.11c-0.08-0.15-0.16-0.3-0.23-0.45c0.18,0.39,0-0.04-0.02-0.11
						c-0.03-0.11-0.11-0.57-0.04-0.02c-0.02-0.12-0.02-0.24-0.01-0.36c0-0.41-0.09,0.45-0.01,0.06c0.11-0.49-0.14,0.22,0-0.05
						c0.05-0.1,0.11-0.19,0.17-0.27c-0.3,0.44-0.1,0.14-0.01,0.04c0.08-0.08,0.17-0.16,0.26-0.23c-0.4,0.34-0.09,0.08,0.01,0.01
						c0.21-0.14,0.44-0.26,0.67-0.37c0.09-0.04,0.51-0.22,0.05-0.03c0.17-0.07,0.35-0.13,0.52-0.19c2.24-0.79,4.67-1.12,6.97-1.68
						c3.32-0.8,6.61-1.85,9.63-3.45c2.99-1.58,5.66-3.89,7.26-6.9c1.6-3.01,2.35-6.76,1.03-10.01c-1.31-3.23-4.17-5.39-7.56-6.04
						c-2.79-0.54-5.54,0.11-8.17,1.07c-2.2,0.8-4.4,1.8-6.29,3.18c-1.57,1.15-3.31,2.8-2.78,4.95
						C858.59,508.71,862.21,507.72,861.63,505.37L861.63,505.37z"/>
					<path class="st62" d="M847.61,498.88c0,17.87-9.55,32.35-21.32,32.35c-1.64,0-3.23-0.28-4.76-0.81
						c-5.1-6.74-8.33-16.66-8.33-27.72c0-2.94,0.23-5.79,0.66-8.53h33.53C847.54,495.71,847.61,497.28,847.61,498.88z"/>
					<path class="st63" d="M817.35,500.8c-1.13,4.08-0.27,8.62,0.86,12.6c0.6,2.11,1.37,4.15,2.25,6.16
						c0.67,1.53,1.43,3.05,2.41,4.41c0.7,0.97,1.91,1.44,3.02,0.79c0.97-0.57,1.49-2.04,0.79-3.02c-0.91-1.26-1.61-2.66-2.26-4.07
						c-0.08-0.17-0.15-0.34-0.23-0.51c-0.05-0.11-0.1-0.23-0.15-0.35c0.1,0.23,0.1,0.23,0,0c-0.2-0.49-0.39-0.98-0.57-1.47
						c-0.36-0.96-0.67-1.93-0.96-2.92c-0.29-0.99-0.54-2-0.75-3.02c-0.1-0.47-0.18-0.93-0.26-1.4c-0.01-0.09-0.13-0.92-0.06-0.4
						c-0.03-0.26-0.06-0.52-0.09-0.78c-0.09-0.93-0.12-1.87-0.08-2.8c0.01-0.18,0.02-0.35,0.03-0.53c0.01-0.12,0.11-0.89,0.02-0.26
						c0.06-0.43,0.16-0.85,0.27-1.27c0.32-1.16-0.38-2.4-1.54-2.71C818.9,498.95,817.67,499.65,817.35,500.8L817.35,500.8z"/>
				</g>
			</g>
		</g>
	</g>
</g>
</svg>
